<?xml version="1.0" encoding="UTF-8"?><svg id="uuid-6e6d4067-588e-42b0-beca-b2cb4a66acb5" xmlns="http://www.w3.org/2000/svg" width="200" height="120" viewBox="0 0 200 120"><path d="M54.24999,104.50085c-.06951-.06276-.10427-.13662-.10427-.22254,0-.05938.01352-.13179.03958-.21772.02028-.0922.02993-.16124.02993-.20758,0-.58653-.03283-1.71324-.09848-3.38111-.06662-1.4236-.09944-2.54742-.09944-3.37146,0-.05889.02317-.10669.06951-.14337.04634-.03572.10234-.05407.16799-.05407.07917,0,.14868.028.20758.084s.08882.12358.08882.20275c0,.39536.02028.98865.05986,1.77938.03283.87666.04924,1.46994.04924,1.77986l.00965.11827v.23751c.01931.5735.02993,1.43036.02993,2.57059v.25682h.7608c.13903.09896.20758.19792.20758.29689,0,.07241-.02414.13662-.07434.19261-.04924.056-.10717.084-.17282.084-.01931,0-.056-.00676-.10813-.01979l-.03958-.00965c-.03958.00628-.10234.00965-.18827.00965h-.16799c-.04634-.00628-.09848-.00965-.15834-.00965-.06565.07869-.15834.11827-.27709.11827-.08496,0-.16317-.03138-.23172-.09365Z" style="fill:#fff; stroke-width:0px;"/><path d="M56.9292,104.52547c-.06951-.05938-.10717-.13179-.11393-.21772v-.45474c-.00676-.05938-.00965-.12841-.00965-.20758,0-.13855-.00965-.34902-.02993-.63287l-.01931-.63239c0-.32295.00965-.80425.02993-1.44339.02607-.5735.03958-1.05479.03958-1.44339,0-.0922-.01062-.23075-.02993-.41564-.02028-.19068-.02993-.32923-.02993-.41516,0-.46778.13806-.7019.41516-.7019.21723,0,.47019.04296.75694.12841.28578.08593.42964.18827.42964.30654,0,.06614-.028.12696-.084.18296s-.12358.10089-.20275.13372c-.27709-.09896-.52715-.16461-.75114-.19792.00579.09896.00965.24089.00965.42529,0,.26358-.00386.5006-.00965.71156-.02028.31668-.02993.5537-.02993.71204l.02993.15834.15834-.01014c.05214-.00628.11779-.00965.19696-.00965.31668,0,.47502.0922.47502.27661,0,.07241-.02993.13324-.08882.18296-.05986.04924-.13517.07386-.22785.07386-.11875,0-.21047-.00628-.27613-.01931h-.24716c.01255.17137.01931.42143.01931.75114s-.00386.62611-.00965.88969c-.02028.40212-.02993.7019-.02993.89983,0,.3693.00676.5537.02028.5537l.32537-.01014c.112-.00628.24716-.00965.4055-.00965.25102,0,.37557.07917.37557.23703,0,.09269-.04055.16317-.12358.21289-.08207.04924-.18248.07386-.30123.07386h-.83997c-.08593,0-.16317-.02945-.23268-.08882Z" style="fill:#fff; stroke-width:0px;"/><path d="M59.5891,104.49554c-.08303-.06565-.13034-.1511-.14386-.25682l.1091-.16799c.03958,0,.10234.01303.1873.03958.09944.01979.17475.02945.22785.02945.11875,0,.22592-.05262.3215-.15786.09558-.10572.16606-.24378.21241-.41564.08496-.31619.12841-.59956.12841-.85011,0-.43495-.13806-.89307-.41516-1.37436l-.1091-.18779c-.12551-.21723-.23075-.41178-.31571-.58315-.08593-.17137-.15834-.35578-.2182-.5537-.07917-.25682-.11875-.51412-.11875-.77094,0-.29013.06662-.59329.19792-.90997.06565-.1511.16027-.27468.28192-.37074.12165-.0951.25875-.14337.41033-.14337.11875,0,.22882.03814.33116.11393s.15351.16655.15351.27178c0,.05938-.02317.10572-.06951.13855s-.10234.04924-.16799.04924c-.07241,0-.14193-.01979-.20758-.05938-.14482.00676-.26068.13517-.34564.38571-.07338.23075-.1091.42191-.1091.5735,0,.19117.02993.38426.08882.57832.05986.19454.13517.37074.22785.52908l.21723.39536.34564.65266c.09269.18441.16703.39874.22303.64253s.084.49095.084.74149c0,.40212-.09269.78445-.27709,1.14699-.09269.18441-.22206.33261-.39005.4446-.16896.112-.3553.16799-.55901.16799v.02993c-.11875-.01979-.21916-.06276-.30123-.12889Z" style="fill:#fff; stroke-width:0px;"/><path d="M64.58063,104.52547c-.06951-.05938-.10717-.13179-.11393-.21772v-.45474c-.00676-.05938-.00965-.12841-.00965-.20758,0-.13855-.00965-.34902-.02993-.63287l-.01931-.63239c0-.32295.00965-.80425.02993-1.44339.02607-.5735.03958-1.05479.03958-1.44339,0-.0922-.01062-.23075-.02993-.41564-.02028-.19068-.02993-.32923-.02993-.41516,0-.46778.13806-.7019.41516-.7019.21723,0,.47019.04296.75694.12841.28578.08593.42964.18827.42964.30654,0,.06614-.028.12696-.084.18296s-.12358.10089-.20275.13372c-.27709-.09896-.52715-.16461-.75114-.19792.00579.09896.00965.24089.00965.42529,0,.26358-.00386.5006-.00965.71156-.02028.31668-.02993.5537-.02993.71204l.02993.15834.15834-.01014c.05214-.00628.11779-.00965.19696-.00965.31668,0,.47502.0922.47502.27661,0,.07241-.02993.13324-.08882.18296-.05986.04924-.13517.07386-.22785.07386-.11875,0-.21047-.00628-.27613-.01931h-.24716c.01255.17137.01931.42143.01931.75114s-.00386.62611-.00965.88969c-.02028.40212-.02993.7019-.02993.89983,0,.3693.00676.5537.02028.5537l.32537-.01014c.112-.00628.24716-.00965.4055-.00965.25102,0,.37557.07917.37557.23703,0,.09269-.04055.16317-.12358.21289-.08207.04924-.18248.07386-.30123.07386h-.83997c-.08593,0-.16317-.02945-.23268-.08882Z" style="fill:#fff; stroke-width:0px;"/><path d="M67.2357,104.45643c-.05986-.03958-.08979-.09558-.08979-.16848,0-.21047.028-.44605.084-.70673.056-.2602.1371-.57156.24234-.9341l.09944-.38571c.09172-.36881.13806-.68887.13806-.9592,0-.19068-.084-.66232-.25199-1.41346-.16799-.75163-.28868-1.17982-.36109-1.28554v-.10862c-.06565-.05938-.09848-.14144-.09848-.24716,0-.05938.02896-.10717.08882-.14337.05889-.03621.12841-.05407.20758-.05407s.14482.056.19792.16799c.09848.18441.19792.52377.2964,1.0181.0531.22399.08882.41226.1091.56336l.06855.36592.03958-.23703.02993-.19792c.02607-.15834.04248-.26358.04924-.31619.02607-.17813.03958-.3495.03958-.51412v-.32633c0-.18441.0309-.32633.09365-.42529.06276-.09848.17958-.17137.35143-.21723l.17765.23703c-.04634.07289-.084.16172-.11393.26696-.02896.10572-.04441.19792-.04441.27709-.00579.04586-.00965.1482-.00965.30654v.10862c-.07917.21096-.16124.57832-.24716,1.1021-.08593.52426-.12841.90466-.12841,1.14216,0,.2042.04441.46295.13324.77576.08882.3133.22303.7468.40067,1.3005.11875.35578.17765.61598.17765.78107,0,.06565-.02607.12358-.07917.17282-.05214.04924-.11489.07434-.1873.07434-.112,0-.21144-.11875-.2964-.35626-.08593-.19744-.15834-.44798-.2182-.75114-.07917-.3693-.12455-.61646-.13806-.74149l-.04924-.22737-.08882.73135c-.03958.36254-.09269.6657-.15834.90948v.1091c0,.24378-.08593.36543-.25682.36543-.07917,0-.14868-.01979-.20758-.05889Z" style="fill:#fff; stroke-width:0px;"/><path d="M70.18139,104.55491c-.08593-.34902-.12841-.83369-.12841-1.45305l.01931-.88004c.01352-.26358.02028-.55708.02028-.88004-.03958-.0922-.05986-.17427-.05986-.24716v-.02945c.06565-.12503.09944-.4084.09944-.85011l.00965-.45474c.00676-.1453.00965-.30654.00965-.48467,0-.38861-.02607-.69515-.07917-.91962.02028-.0922.0531-.17282.09944-.24185.04538-.06951.10138-.10379.16799-.10379h.43447c.18441,0,.34661.04103.48467.12358.13806.08207.24427.19937.31668.35095.13131.27033.19792.58991.19792.95872,0,.26358-.00386.47164-.01062.62273-.01255.19165-.04634.36592-.09848.52426-.02028.08545-.04827.15641-.084.21241-.03669.056-.08786.12358-.15351.20275-.09269.112-.2433.21772-.45474.31619-.08593.04634-.19792.08931-.33599.12889v1.05768l.01931.63287.02028.30654c.02607.36881.03958.68211.03958.93893,0,.07917-.03283.14675-.09944.20275-.06565.056-.14096.084-.22689.084l-.20758-.11875ZM71.22893,99.37463c0-.19117-.00965-.33937-.02896-.44509-.02028-.07917-.04634-.14337-.07917-.19261-.03379-.04972-.08303-.09076-.14868-.12358-.07241-.03958-.15158-.05938-.23751-.05938,0-.00628-.03572-.00965-.10813-.00965v.56336c0,.38909.0029.73473.00965,1.03789,0,.34275.0029.56722.00965.67246v.22737c.38909-.05938.58315-.61646.58315-1.67076Z" style="fill:#fff; stroke-width:0px;"/><path d="M73.16279,104.52547c-.06951-.05938-.10717-.13179-.11393-.21772v-.45474c-.00676-.05938-.00965-.12841-.00965-.20758,0-.13855-.00965-.34902-.02993-.63287l-.01931-.63239c0-.32295.00965-.80425.02993-1.44339.02607-.5735.03958-1.05479.03958-1.44339,0-.0922-.01062-.23075-.02993-.41564-.02028-.19068-.02993-.32923-.02993-.41516,0-.46778.13806-.7019.41516-.7019.21723,0,.47019.04296.75694.12841.28578.08593.42964.18827.42964.30654,0,.06614-.028.12696-.084.18296s-.12358.10089-.20275.13372c-.27709-.09896-.52715-.16461-.75114-.19792.00579.09896.00965.24089.00965.42529,0,.26358-.00386.5006-.00965.71156-.02028.31668-.02993.5537-.02993.71204l.02993.15834.15834-.01014c.05214-.00628.11779-.00965.19696-.00965.31668,0,.47502.0922.47502.27661,0,.07241-.02993.13324-.08882.18296-.05986.04924-.13517.07386-.22785.07386-.11875,0-.21047-.00628-.27613-.01931h-.24716c.01255.17137.01931.42143.01931.75114s-.00386.62611-.00965.88969c-.02028.40212-.02993.7019-.02993.89983,0,.3693.00676.5537.02028.5537l.32537-.01014c.112-.00628.24716-.00965.4055-.00965.25102,0,.37557.07917.37557.23703,0,.09269-.04055.16317-.12358.21289-.08207.04924-.18248.07386-.30123.07386h-.83997c-.08593,0-.16317-.02945-.23268-.08882Z" style="fill:#fff; stroke-width:0px;"/><path d="M77.28056,104.17934c-.13806-.34275-.2404-.69515-.30606-1.05768l-.06951-.33647c-.19117-.94231-.31282-1.4796-.36592-1.61139h-.11875c0,.19117-.0029.36592-.00965.52426v.54357c0,.88341.06276,1.5718.1873,2.06613l-.10813.26696h-.27709l-.12841-.1482.00965-.66232c0-.59329-.02896-1.49312-.08882-2.699-.0531-1.28505-.07917-2.18488-.07917-2.699,0-.31619.1091-.47453.32633-.47453.35626,0,.64784.0922.87473.27661.22785.18489.34178.44171.34178.77142v.69177c0,.09896-.01738.21289-.0502.3413s-.06855.2322-.10813.31137l-.18827.35578-.15834.29689.0502.23703.13806.7019c.09172.50784.18151.91962.26647,1.23581.08593.31668.19117.60343.31668.86024l.05986.11875c.06565.13179.09848.23703.09848.31619,0,.06614-.02028.12358-.05986.1733-.03862.04924-.09172.07386-.15737.07386-.14579,0-.27709-.15834-.39585-.47453ZM76.83065,100.0915c.10234-.32633.15351-.62804.15351-.90466,0-.21096-.02703-.40888-.07917-.59329-.03283-.10524-.08786-.18634-.16317-.24234-.07627-.056-.16992-.084-.28192-.084l-.01931.04924-.02028.08931.02028,1.1663c.01255.34323.01931.71542.01931,1.11754.14482-.07241.2684-.27227.37074-.59812Z" style="fill:#fff; stroke-width:0px;"/><path d="M79.61316,104.32754l-.00965-.38523c-.00676-.112-.00965-.23751-.00965-.37605l.00965-.33599c-.02028-.07241-.06951-.79411-.14868-2.16509s-.12551-2.25053-.13806-2.63962c-.38233-.01303-.6266-.05262-.73183-.11875-.07241-.05262-.1091-.112-.1091-.17813,0-.05262.03476-.10041.10427-.14337.06951-.04248.13999-.0642.21241-.0642.18441,0,.4084.01352.67197.03958.25102.03331.47502.04972.67294.04972h.15834c.20372,0,.30606.07869.30606.23703,0,.07917-.03283.14337-.09848.19261-.06662.04972-.14193.07434-.22785.07434-.05889,0-.14482-.00965-.25682-.02945l-.19792-.03958-.00965.04924-.00965.04972c0,.58653.056,1.52208.16799,2.80762.10524,1.20588.15834,2.14192.15834,2.80762,0,.07917-.03476.1482-.10427.20758s-.14675.08931-.23268.08931l-.17765-.12889Z" style="fill:#fff; stroke-width:0px;"/><path d="M81.66481,104.49554c-.08303-.06565-.13034-.1511-.14386-.25682l.1091-.16799c.03958,0,.10234.01303.1873.03958.09944.01979.17475.02945.22785.02945.11875,0,.22592-.05262.3215-.15786.09558-.10572.16606-.24378.21241-.41564.08496-.31619.12841-.59956.12841-.85011,0-.43495-.13806-.89307-.41516-1.37436l-.1091-.18779c-.12551-.21723-.23075-.41178-.31571-.58315-.08593-.17137-.15834-.35578-.2182-.5537-.07917-.25682-.11875-.51412-.11875-.77094,0-.29013.06662-.59329.19792-.90997.06565-.1511.16027-.27468.28192-.37074.12165-.0951.25875-.14337.41033-.14337.11875,0,.22882.03814.33116.11393s.15351.16655.15351.27178c0,.05938-.02317.10572-.06951.13855s-.10234.04924-.16799.04924c-.07241,0-.14193-.01979-.20758-.05938-.14482.00676-.26068.13517-.34564.38571-.07338.23075-.1091.42191-.1091.5735,0,.19117.02993.38426.08882.57832.05986.19454.13517.37074.22785.52908l.21723.39536.34564.65266c.09269.18441.16703.39874.22303.64253s.084.49095.084.74149c0,.40212-.09269.78445-.27709,1.14699-.09269.18441-.22206.33261-.39005.4446-.16896.112-.3553.16799-.55901.16799v.02993c-.11875-.01979-.21916-.06276-.30123-.12889Z" style="fill:#fff; stroke-width:0px;"/><path d="M86.49414,103.25007l.02028-1.56215c.00579-.46102.00965-.97851.00965-1.55201,0-.21096-.02028-.53729-.05986-.979-.03283-.48081-.04924-.77432-.04924-.87955,0-.08593.03669-.16172.1091-.22737.07241-.06614.15158-.09896.23751-.09896.22978,0,.45281.05117.66715.15303.21434.10234.40357.24571.56867.43012.34854.40212.57929.84383.69128,1.32464.05986.24427.08979.48467.08979.7217,0,.08593-.00386.1651-.01062.23751l-.00965.26696v.54357c0,.42191-.01352.75501-.03958.99879-.03958.32971-.11489.62273-.22689.87955-.13227.27709-.32344.52426-.5735.74149-.11875.09896-.27033.19792-.45474.29689h-.71252c-.17089,0-.25682-.43157-.25682-1.29519ZM87.55231,103.93701c.112-.06903.20758-.16317.28675-.28144.06565-.10572.12648-.23896.18248-.40067.056-.16124.09751-.31764.12358-.46971.05986-.2964.09558-.59956.1091-.90948.00676-.07917.00965-.19406.00965-.34612,0-1.99034-.38523-3.02823-1.15665-3.11416-.04634.29689-.06951.63963-.06951,1.02824,0,.41516.02607,1.14023.07917,2.17523.04634.91624.06951,1.6447.06951,2.18488v.23703c.13131,0,.25392-.03427.36592-.10379Z" style="fill:#fff; stroke-width:0px;"/><path d="M90.27593,104.52547c-.06951-.05938-.10717-.13179-.11393-.21772v-.45474c-.00676-.05938-.00965-.12841-.00965-.20758,0-.13855-.00965-.34902-.02993-.63287l-.01931-.63239c0-.32295.00965-.80425.02993-1.44339.02607-.5735.03958-1.05479.03958-1.44339,0-.0922-.01062-.23075-.02993-.41564-.02028-.19068-.02993-.32923-.02993-.41516,0-.46778.13806-.7019.41516-.7019.21723,0,.47019.04296.75694.12841.28578.08593.42964.18827.42964.30654,0,.06614-.028.12696-.084.18296s-.12358.10089-.20275.13372c-.27709-.09896-.52715-.16461-.75114-.19792.00579.09896.00965.24089.00965.42529,0,.26358-.00386.5006-.00965.71156-.02028.31668-.02993.5537-.02993.71204l.02993.15834.15834-.01014c.05214-.00628.11779-.00965.19696-.00965.31668,0,.47502.0922.47502.27661,0,.07241-.02993.13324-.08882.18296-.05986.04924-.13517.07386-.22785.07386-.11875,0-.21047-.00628-.27613-.01931h-.24716c.01255.17137.01931.42143.01931.75114s-.00386.62611-.00965.88969c-.02028.40212-.02993.7019-.02993.89983,0,.3693.00676.5537.02028.5537l.32537-.01014c.112-.00628.24716-.00965.4055-.00965.25102,0,.37557.07917.37557.23703,0,.09269-.04055.16317-.12358.21289-.08207.04924-.18248.07386-.30123.07386h-.83997c-.08593,0-.16317-.02945-.23268-.08882Z" style="fill:#fff; stroke-width:0px;"/><path d="M95.70772,104.52547c-.10524.06565-.21723.09896-.33599.09896-.07917,0-.14675-.03476-.20275-.10379-.056-.06951-.084-.14337-.084-.22254,0-.5537.02317-1.29181.06951-2.21481.03958-.98189.05889-1.71662.05889-2.20467v-.06903c-.03958-.41516-.05889-.72508-.05889-.92927,0-.62611.11489-.93941.34564-.93941.06565,0,.12358.02462.17282.07434.0502.04924.07434.10717.07434.17282,0,.07917-.00965.20468-.02993.37557-.01931.1651-.02896.29013-.02896.37605,0,.44171.0029.84045.00965,1.19623.00676.3495.00965.74487.00965,1.18609-.03283.09896-.04924.23751-.04924.41564v.11827l-.01931.78107c-.01352.23075-.02028.49433-.02028.79121,0,.45474.1091.68211.32633.68211.01352,0,.03476-.00145.06469-.00483.02896-.00338.07048-.00531.12358-.00531.05889-.00628.1342-.00965.22689-.00965.35626,0,.53391.09896.53391.2964,0,.06614-.02993.12213-.08882.16799-.05986.04634-.13227.07579-.21723.08931-.23751-.07917-.53101-.11875-.88052-.11875Z" style="fill:#fff; stroke-width:0px;"/><path d="M98.25852,99.08788c0-.13855.03572-.37557.1091-.71204.07241-.33599.17089-.65556.2964-.95872.13131-.33647.26647-.50446.4055-.50446.11875,0,.17765.07289.17765.21772,0,.27661-.04827.58508-.14289.92445-.09558.33937-.21627.62756-.36109.86507-.15158.23075-.28675.34612-.4055.34612-.0531-.01352-.07917-.07289-.07917-.17813Z" style="fill:#fff; stroke-width:0px;"/><path d="M102.57904,104.50567c-.07241-.04586-.1091-.13179-.1091-.2573,0-.19744-.03283-.53343-.09848-1.00796l-.03958-.20806-.979-.1482c-.03958.15158-.09558.45812-.16799.91962-.03958.32295-.10234.53729-.18827.64253-.04538.05938-.112.08882-.19696.08882-.07917,0-.15255-.02462-.2182-.07386-.06565-.04972-.09848-.11055-.09848-.18296l.01931-.04924.01062-.03958c.43447-1.69394.76369-3.3647.98865-5.01277,0-.02607.0029-.07048.00965-.13324s.01255-.15351.01931-.27178c.02028-.24378.04152-.43833.06469-.58363.02317-.14482.06083-.25344.11393-.32633h.33599c.09172,0,.17089.02172.23751.06469.06565.04248.09848.10379.09848.18248,0,.50108.06951,1.24595.20758,2.2346.13131,1.0152.19792,1.72676.19792,2.13564,0,.0391.01641.14144.04924.30606.03283.15206.04924.25054.04924.29689s.03283.24378.09944.59329c.05889.31619.08882.52039.08882.6126v.01014c0,.14482-.0531.23703-.15834.27661-.15158,0-.26358-.02317-.33599-.06903ZM102.23244,102.31065c0-.5928-.05214-1.35071-.15737-2.27371l-.09944-1.02824c-.28289,1.54911-.47791,2.71879-.58315,3.50952.09848.06614.38909.11875.8699.15834-.01931-.09896-.02993-.22061-.02993-.36592Z" style="fill:#fff; stroke-width:0px;"/><path d="M107.7994,104.38692v-1.26526c0-.32971-.02317-.76128-.06951-1.29519-.05214-.59956-.07917-1.01182-.07917-1.23581l.02028-.61308c.01255-.17813.01931-.37895.01931-.60294-.02607.08545-.13517.54067-.32633,1.36422-.19117.79749-.38909,1.53608-.5928,2.21481-.19792.65218-.35916.97851-.48467.97851s-.22592-.03765-.30123-.11344c-.07627-.07579-.11393-.17958-.11393-.31185,0-.28964-.11682-.9061-.35047-1.84841-.23461-.94279-.44702-1.71373-.63818-2.31377l-.05889,1.11754c-.0531.94231-.08882,1.72676-.1091,2.35288-.01352.60632-.01931,1.02148-.01931,1.24547,0,.0531.0029.10234.00965.14868v.13806c0,.11248-.02317.19599-.06951.25247-.04634.05552-.13227.084-.25682.084-.06565,0-.12841-.0251-.18827-.07434-.05889-.04924-.08882-.10379-.08882-.16317,0-.67246.04924-1.6809.14868-3.02533.09848-1.34443.14772-2.35288.14772-3.02533-.03958-.05938-.05889-.12165-.05889-.18779,0-.07917.03765-.13999.11393-.18296.07531-.04248.16606-.0642.2713-.0642.08593,0,.24427.30992.47502.92927.23075.61984.4615,1.32174.69225,2.1062.22978.78445.37847,1.35119.44412,1.70021.0531-.17813.09558-.34275.12937-.49433l.05889-.23703c.21047-.923.42191-1.75669.63239-2.50156.12551-.45474.24716-.81052.36592-1.06782.11875-.27661.22785-.41516.32633-.41516.09269,0,.17668.02462.25199.07434.07627.04924.11393.11344.11393.19261,0,.47453.01931,1.18658.05889,2.13564.04634.88341.06951,1.56842.06951,2.05647l-.00965.52377-.02028.52426c0,.07869.01062.19744.02993.35578l.02993.34612c.00676.05889.01159.10524.01448.13806.00386.03331.00483.0531.00483.05938.03283.08593.0502.1482.0502.18779,0,.112-.03379.21096-.09944.29689-.06565.08545-.14482.12841-.23751.12841-.20372,0-.30606-.2042-.30606-.61308Z" style="fill:#fff; stroke-width:0px;"/><path d="M110.08759,104.52547c-.06951-.05938-.10717-.13179-.11393-.21772v-.45474c-.00676-.05938-.00965-.12841-.00965-.20758,0-.13855-.00965-.34902-.02993-.63287l-.01931-.63239c0-.32295.00965-.80425.02993-1.44339.02607-.5735.03958-1.05479.03958-1.44339,0-.0922-.01062-.23075-.02993-.41564-.02028-.19068-.02993-.32923-.02993-.41516,0-.46778.13806-.7019.41516-.7019.21723,0,.47019.04296.75694.12841.28578.08593.42964.18827.42964.30654,0,.06614-.028.12696-.084.18296s-.12358.10089-.20275.13372c-.27709-.09896-.52715-.16461-.75114-.19792.00579.09896.00965.24089.00965.42529,0,.26358-.00386.5006-.00965.71156-.02028.31668-.02993.5537-.02993.71204l.02993.15834.15834-.01014c.05214-.00628.11779-.00965.19696-.00965.31668,0,.47502.0922.47502.27661,0,.07241-.02993.13324-.08882.18296-.05986.04924-.13517.07386-.22785.07386-.11875,0-.21047-.00628-.27613-.01931h-.24716c.01255.17137.01931.42143.01931.75114s-.00386.62611-.00965.88969c-.02028.40212-.02993.7019-.02993.89983,0,.3693.00676.5537.02028.5537l.32537-.01014c.112-.00628.24716-.00965.4055-.00965.25102,0,.37557.07917.37557.23703,0,.09269-.04055.16317-.12358.21289-.08207.04924-.18248.07386-.30123.07386h-.83997c-.08593,0-.16317-.02945-.23268-.08882ZM110.36951,97.58994c-.03283-.02269-.04924-.05407-.04924-.09365,0-.03331.01641-.06614.04924-.09896l.15834-.13855c.03283-.03283.21723-.19406.55322-.48419l.58315-.50446c.02703-.01303.056-.01979.08882-.01979.07917,0,.15158.03958.2182.11875.06565.07917.09848.16172.09848.24716,0,.07917-.02317.13179-.06951.15834-.23654.18441-.71832.46102-1.44339.83031-.01255.01303-.03958.01979-.0782.01979-.03958,0-.07627-.01159-.1091-.03476Z" style="fill:#fff; stroke-width:0px;"/><path d="M115.39193,104.45112c-.03958-.04248-.06951-.11682-.08882-.22206l-.05986-.18827v-.04924c0-.21772-.22592-.9592-.6768-2.22447-.45184-1.26526-.80618-2.2013-1.06299-2.80762v4.97271l.03958.06903c.00676.01352.01931.03669.03958.06951.01931.03283.02993.06565.02993.09896,0,.08545-.02993.15786-.08979.21723-.05889.05938-.13131.08931-.21723.08931-.21047,0-.31571-.2013-.31571-.60343l-.01062-1.69056c-.00676-.50736-.00965-1.0741-.00965-1.70021,0-.21096.00965-.5175.02993-.91962.01931-.41516.02896-.7217.02896-.91962,0-.30944.11875-.5537.35626-.73135v.05938c.03958-.01352.06565-.01979.07917-.01979.15158,0,.34275.26358.5735.79073.18441.42191.35047.867.49915,1.33478.14868.46826.34468,1.13347.58798,1.9971l.09944.35578c.15158.53391.26647.91624.34564,1.14699.13227-1.41733.19792-3.09099.19792-5.02243v-.12841c-.00676-.03958-.00965-.08255-.00965-.12841,0-.19792.07917-.29689.23654-.29689.09269,0,.16317.03621.21337.10862.04924.07289.07338.1651.07338.27709v.74149c-.01255,1.0152-.05214,2.11585-.11779,3.30194-.06662,1.18658-.14579,1.85565-.23751,2.00723-.19117.05262-.30992.07869-.35626.07869-.07917,0-.13806-.02124-.17765-.0642Z" style="fill:#fff; stroke-width:0px;"/><path d="M119.41606,104.50567c-.07241-.04586-.1091-.13179-.1091-.2573,0-.19744-.03283-.53343-.09848-1.00796l-.03958-.20806-.979-.1482c-.03958.15158-.09558.45812-.16799.91962-.03958.32295-.10234.53729-.18827.64253-.04538.05938-.112.08882-.19696.08882-.07917,0-.15255-.02462-.2182-.07386-.06565-.04972-.09848-.11055-.09848-.18296l.01931-.04924.01062-.03958c.43447-1.69394.76369-3.3647.98865-5.01277,0-.02607.0029-.07048.00965-.13324s.01255-.15351.01931-.27178c.02028-.24378.04152-.43833.06469-.58363.02317-.14482.06083-.25344.11393-.32633h.33599c.09172,0,.17089.02172.23751.06469.06565.04248.09848.10379.09848.18248,0,.50108.06951,1.24595.20758,2.2346.13131,1.0152.19792,1.72676.19792,2.13564,0,.0391.01641.14144.04924.30606.03283.15206.04924.25054.04924.29689s.03283.24378.09944.59329c.05889.31619.08882.52039.08882.6126v.01014c0,.14482-.0531.23703-.15834.27661-.15158,0-.26358-.02317-.33599-.06903ZM119.06945,102.31065c0-.5928-.05214-1.35071-.15737-2.27371l-.09944-1.02824c-.28289,1.54911-.47791,2.71879-.58315,3.50952.09848.06614.38909.11875.8699.15834-.01931-.09896-.02993-.22061-.02993-.36592Z" style="fill:#fff; stroke-width:0px;"/><path d="M121.739,104.46126c-.15255-.06951-.28095-.15979-.38619-.27178-.08593-.0922-.16413-.22737-.23751-.4055-.07241-.17813-.12455-.3495-.15737-.51412-.03379-.12503-.05986-.30654-.07917-.54357-.02028-.23751-.03379-.44171-.03958-.61308v-.96886c0-.38233.00579-.69563.01931-.93941.01352-.2964.056-.6097.12841-.93893.05986-.29689.1622-.55708.30702-.78107.13806-.22399.33213-.37895.58315-.46488.11875-.04586.25682-.06903.41516-.06903.28289,0,.42481.08255.42481.24716,0,.07917-.0309.14337-.09365.19261s-.1371.07434-.22206.07434c-.03958,0-.07627-.00338-.1091-.01014-.02607-.00628-.05889-.00965-.09848-.00965-.11296,0-.21144.05938-.29737.17765-.08496.11875-.15737.28385-.21723.49433-.10524.40888-.17765.85397-.21723,1.33478-.02607.44847-.03958.78107-.03958.99879,0,.22399.00965.53053.02993.91914.02607.36254.08207.67922.16799.94907.04538.15834.10041.2853.16317.38088.06179.09558.14289.1762.24234.24234.112.07241.22689.10862.34564.10862.31668,0,.47405-.52715.47405-1.58194v-.45474c-.04538-.01979-.12165-.02945-.22689-.02945h-.19792c-.23075,0-.34564-.07579-.34564-.22737,0-.09269.0309-.16317.09365-.21289.06276-.04924.14386-.07386.24234-.07386v.00965h.13806c.59377,0,.89017.10234.89017.30654,0,.05938-.01641.17813-.04924.35578-.03958.15834-.05986.27709-.05986.35626,0,.112.00965.28626.02993.52377l.01931.52377c0,.31668-.11006.56529-.33116.7468-.22013.18103-.48853.27178-.80521.27178-.18441,0-.3524-.03476-.50398-.10379Z" style="fill:#fff; stroke-width:0px;"/><path d="M124.79861,104.52547c-.06951-.05938-.10717-.13179-.11393-.21772v-.45474c-.00676-.05938-.00965-.12841-.00965-.20758,0-.13855-.00965-.34902-.02993-.63287l-.01931-.63239c0-.32295.00965-.80425.02993-1.44339.02607-.5735.03958-1.05479.03958-1.44339,0-.0922-.01062-.23075-.02993-.41564-.02028-.19068-.02993-.32923-.02993-.41516,0-.46778.13806-.7019.41516-.7019.21723,0,.47019.04296.75694.12841.28578.08593.42964.18827.42964.30654,0,.06614-.028.12696-.084.18296s-.12358.10089-.20275.13372c-.27709-.09896-.52715-.16461-.75114-.19792.00579.09896.00965.24089.00965.42529,0,.26358-.00386.5006-.00965.71156-.02028.31668-.02993.5537-.02993.71204l.02993.15834.15834-.01014c.05214-.00628.11779-.00965.19696-.00965.31668,0,.47502.0922.47502.27661,0,.07241-.02993.13324-.08882.18296-.05986.04924-.13517.07386-.22785.07386-.11875,0-.21047-.00628-.27613-.01931h-.24716c.01255.17137.01931.42143.01931.75114s-.00386.62611-.00965.88969c-.02028.40212-.02993.7019-.02993.89983,0,.3693.00676.5537.02028.5537l.32537-.01014c.112-.00628.24716-.00965.4055-.00965.25102,0,.37557.07917.37557.23703,0,.09269-.04055.16317-.12358.21289-.08207.04924-.18248.07386-.30123.07386h-.83997c-.08593,0-.16317-.02945-.23268-.08882Z" style="fill:#fff; stroke-width:0px;"/><path d="M131.2596,104.38692v-1.26526c0-.32971-.02317-.76128-.06951-1.29519-.05214-.59956-.07917-1.01182-.07917-1.23581l.02028-.61308c.01255-.17813.01931-.37895.01931-.60294-.02607.08545-.13517.54067-.32633,1.36422-.19117.79749-.38909,1.53608-.5928,2.21481-.19792.65218-.35916.97851-.48467.97851s-.22592-.03765-.30123-.11344c-.07627-.07579-.11393-.17958-.11393-.31185,0-.28964-.11682-.9061-.35047-1.84841-.23461-.94279-.44702-1.71373-.63818-2.31377l-.05889,1.11754c-.0531.94231-.08882,1.72676-.1091,2.35288-.01352.60632-.01931,1.02148-.01931,1.24547,0,.0531.0029.10234.00965.14868v.13806c0,.11248-.02317.19599-.06951.25247-.04634.05552-.13227.084-.25682.084-.06565,0-.12841-.0251-.18827-.07434-.05889-.04924-.08882-.10379-.08882-.16317,0-.67246.04924-1.6809.14868-3.02533.09848-1.34443.14772-2.35288.14772-3.02533-.03958-.05938-.05889-.12165-.05889-.18779,0-.07917.03765-.13999.11393-.18296.07531-.04248.16606-.0642.2713-.0642.08593,0,.24427.30992.47502.92927.23075.61984.4615,1.32174.69225,2.1062.22978.78445.37847,1.35119.44412,1.70021.0531-.17813.09558-.34275.12937-.49433l.05889-.23703c.21047-.923.42191-1.75669.63239-2.50156.12551-.45474.24716-.81052.36592-1.06782.11875-.27661.22785-.41516.32633-.41516.09269,0,.17668.02462.25199.07434.07627.04924.11393.11344.11393.19261,0,.47453.01931,1.18658.05889,2.13564.04634.88341.06951,1.56842.06951,2.05647l-.00965.52377-.02028.52426c0,.07869.01062.19744.02993.35578l.02993.34612c.00676.05889.01159.10524.01448.13806.00386.03331.00483.0531.00483.05938.03283.08593.0502.1482.0502.18779,0,.112-.03379.21096-.09944.29689-.06565.08545-.14482.12841-.23751.12841-.20372,0-.30606-.2042-.30606-.61308Z" style="fill:#fff; stroke-width:0px;"/><path d="M133.54779,104.52547c-.06951-.05938-.10717-.13179-.11393-.21772v-.45474c-.00676-.05938-.00965-.12841-.00965-.20758,0-.13855-.00965-.34902-.02993-.63287l-.01931-.63239c0-.32295.00965-.80425.02993-1.44339.02607-.5735.03958-1.05479.03958-1.44339,0-.0922-.01062-.23075-.02993-.41564-.02028-.19068-.02993-.32923-.02993-.41516,0-.46778.13806-.7019.41516-.7019.21723,0,.47019.04296.75694.12841.28578.08593.42964.18827.42964.30654,0,.06614-.028.12696-.084.18296s-.12358.10089-.20275.13372c-.27709-.09896-.52715-.16461-.75114-.19792.00579.09896.00965.24089.00965.42529,0,.26358-.00386.5006-.00965.71156-.02028.31668-.02993.5537-.02993.71204l.02993.15834.15834-.01014c.05214-.00628.11779-.00965.19696-.00965.31668,0,.47502.0922.47502.27661,0,.07241-.02993.13324-.08882.18296-.05986.04924-.13517.07386-.22785.07386-.11875,0-.21047-.00628-.27613-.01931h-.24716c.01255.17137.01931.42143.01931.75114s-.00386.62611-.00965.88969c-.02028.40212-.02993.7019-.02993.89983,0,.3693.00676.5537.02028.5537l.32537-.01014c.112-.00628.24716-.00965.4055-.00965.25102,0,.37557.07917.37557.23703,0,.09269-.04055.16317-.12358.21289-.08207.04924-.18248.07386-.30123.07386h-.83997c-.08593,0-.16317-.02945-.23268-.08882Z" style="fill:#fff; stroke-width:0px;"/><path d="M138.85214,104.45112c-.03958-.04248-.06951-.11682-.08882-.22206l-.05986-.18827v-.04924c0-.21772-.22592-.9592-.6768-2.22447-.45184-1.26526-.80618-2.2013-1.06299-2.80762v4.97271l.03958.06903c.00676.01352.01931.03669.03958.06951.01931.03283.02993.06565.02993.09896,0,.08545-.02993.15786-.08979.21723-.05889.05938-.13131.08931-.21723.08931-.21047,0-.31571-.2013-.31571-.60343l-.01062-1.69056c-.00676-.50736-.00965-1.0741-.00965-1.70021,0-.21096.00965-.5175.02993-.91962.01931-.41516.02896-.7217.02896-.91962,0-.30944.11875-.5537.35626-.73135v.05938c.03958-.01352.06565-.01979.07917-.01979.15158,0,.34275.26358.5735.79073.18441.42191.35047.867.49915,1.33478.14868.46826.34468,1.13347.58798,1.9971l.09944.35578c.15158.53391.26647.91624.34564,1.14699.13227-1.41733.19792-3.09099.19792-5.02243v-.12841c-.00676-.03958-.00965-.08255-.00965-.12841,0-.19792.07917-.29689.23654-.29689.09269,0,.16317.03621.21337.10862.04924.07289.07338.1651.07338.27709v.74149c-.01255,1.0152-.05214,2.11585-.11779,3.30194-.06662,1.18658-.14579,1.85565-.23751,2.00723-.19117.05262-.30992.07869-.35626.07869-.07917,0-.13806-.02124-.17765-.0642Z" style="fill:#fff; stroke-width:0px;"/><path d="M141.8181,104.32754l-.00965-.38523c-.00676-.112-.00965-.23751-.00965-.37605l.00965-.33599c-.02028-.07241-.06951-.79411-.14868-2.16509s-.12551-2.25053-.13806-2.63962c-.38233-.01303-.6266-.05262-.73183-.11875-.07241-.05262-.1091-.112-.1091-.17813,0-.05262.03476-.10041.10427-.14337.06951-.04248.13999-.0642.21241-.0642.18441,0,.4084.01352.67197.03958.25102.03331.47502.04972.67294.04972h.15834c.20372,0,.30606.07869.30606.23703,0,.07917-.03283.14337-.09848.19261-.06662.04972-.14193.07434-.22785.07434-.05889,0-.14482-.00965-.25682-.02945l-.19792-.03958-.00965.04924-.00965.04972c0,.58653.056,1.52208.16799,2.80762.10524,1.20588.15834,2.14192.15834,2.80762,0,.07917-.03476.1482-.10427.20758s-.14675.08931-.23268.08931l-.17765-.12889Z" style="fill:#fff; stroke-width:0px;"/><path d="M146.7517,104.45643c0-.7579-.07048-1.54235-.21241-2.35336-.14193-.81052-.36399-1.80255-.66715-2.97561-.01352-.06565-.04345-.16799-.08882-.30654-.11875-.3693-.17861-.60294-.17861-.7019,0-.05938.0251-.112.07434-.15834.04924-.04586.10427-.06903.16317-.06903.09848,0,.19117.08255.27709.24716.08496.15834.16413.37074.23751.6377.07241.26696.15061.59812.23654.99348.07917.37557.17475.95245.28675,1.73014l.05986.38571.11875.87955c.02607.24427.04924.41902.06855.52426.13903-.72508.31668-1.7731.53391-3.14409.17861-1.17306.30316-1.97392.37557-2.40212h.2182c.05889,0,.112.02124.15737.0642.04634.04296.06951.09365.06951.15303,0,.23751-.028.49288-.084.76611-.056.27371-.13999.60149-.25199.98382-.09269.32971-.15351.57687-.18248.74149-.02993.1651-.05793.42529-.08496.78107-.05214.79749-.13517,1.51291-.24716,2.1453-.07241.38233-.16799.68211-.28578.89983-.11875.21723-.25392.32633-.4055.32633l-.18827-.1482Z" style="fill:#fff; stroke-width:0px;"/><path d="M149.89048,104.52547c-.06951-.05938-.10717-.13179-.11393-.21772v-.45474c-.00676-.05938-.00965-.12841-.00965-.20758,0-.13855-.00965-.34902-.02993-.63287l-.01931-.63239c0-.32295.00965-.80425.02993-1.44339.02607-.5735.03958-1.05479.03958-1.44339,0-.0922-.01062-.23075-.02993-.41564-.02028-.19068-.02993-.32923-.02993-.41516,0-.46778.13806-.7019.41516-.7019.21723,0,.47019.04296.75694.12841.28578.08593.42964.18827.42964.30654,0,.06614-.028.12696-.084.18296s-.12358.10089-.20275.13372c-.27709-.09896-.52715-.16461-.75114-.19792.00579.09896.00965.24089.00965.42529,0,.26358-.00386.5006-.00965.71156-.02028.31668-.02993.5537-.02993.71204l.02993.15834.15834-.01014c.05214-.00628.11779-.00965.19696-.00965.31668,0,.47502.0922.47502.27661,0,.07241-.02993.13324-.08882.18296-.05986.04924-.13517.07386-.22785.07386-.11875,0-.21047-.00628-.27613-.01931h-.24716c.01255.17137.01931.42143.01931.75114s-.00386.62611-.00965.88969c-.02028.40212-.02993.7019-.02993.89983,0,.3693.00676.5537.02028.5537l.32537-.01014c.112-.00628.24716-.00965.4055-.00965.25102,0,.37557.07917.37557.23703,0,.09269-.04055.16317-.12358.21289-.08207.04924-.18248.07386-.30123.07386h-.83997c-.08593,0-.16317-.02945-.23268-.08882ZM150.1724,97.58994c-.03283-.02269-.04924-.05407-.04924-.09365,0-.03331.01641-.06614.04924-.09896l.15834-.13855c.03283-.03283.21723-.19406.55322-.48419l.58315-.50446c.02703-.01303.056-.01979.08882-.01979.07917,0,.15158.03958.2182.11875.06565.07917.09848.16172.09848.24716,0,.07917-.02317.13179-.06951.15834-.23654.18441-.71832.46102-1.44339.83031-.01255.01303-.03958.01979-.0782.01979-.03958,0-.07627-.01159-.1091-.03476Z" style="fill:#fff; stroke-width:0px;"/><path d="M153.44538,104.46126c-.15255-.06951-.28095-.15979-.38619-.27178-.08593-.0922-.16413-.22737-.23751-.4055-.07241-.17813-.12455-.3495-.15737-.51412-.03379-.12503-.05986-.30654-.07917-.54357-.02028-.23751-.03379-.44171-.03958-.61308v-.96886c0-.38233.00579-.69563.01931-.93941.01352-.2964.056-.6097.12841-.93893.05986-.29689.1622-.55708.30702-.78107.13806-.22399.33213-.37895.58315-.46488.11875-.04586.25682-.06903.41516-.06903.28289,0,.42481.08255.42481.24716,0,.07917-.0309.14337-.09365.19261s-.1371.07434-.22206.07434c-.03958,0-.07627-.00338-.1091-.01014-.02607-.00628-.05889-.00965-.09848-.00965-.11296,0-.21144.05938-.29737.17765-.08496.11875-.15737.28385-.21723.49433-.10524.40888-.17765.85397-.21723,1.33478-.02607.44847-.03958.78107-.03958.99879,0,.22399.00965.53053.02993.91914.02607.36254.08207.67922.16799.94907.04538.15834.10041.2853.16317.38088.06179.09558.14289.1762.24234.24234.112.07241.22689.10862.34564.10862.31668,0,.47405-.52715.47405-1.58194v-.45474c-.04538-.01979-.12165-.02945-.22689-.02945h-.19792c-.23075,0-.34564-.07579-.34564-.22737,0-.09269.0309-.16317.09365-.21289.06276-.04924.14386-.07386.24234-.07386v.00965h.13806c.59377,0,.89017.10234.89017.30654,0,.05938-.01641.17813-.04924.35578-.03958.15834-.05986.27709-.05986.35626,0,.112.00965.28626.02993.52377l.01931.52377c0,.31668-.11006.56529-.33116.7468-.22013.18103-.48853.27178-.80521.27178-.18441,0-.3524-.03476-.50398-.10379Z" style="fill:#fff; stroke-width:0px;"/><path d="M156.50402,104.52547c-.06951-.05938-.10717-.13179-.11393-.21772v-.45474c-.00676-.05938-.00965-.12841-.00965-.20758,0-.13855-.00965-.34902-.02993-.63287l-.01931-.63239c0-.32295.00965-.80425.02993-1.44339.02607-.5735.03958-1.05479.03958-1.44339,0-.0922-.01062-.23075-.02993-.41564-.02028-.19068-.02993-.32923-.02993-.41516,0-.46778.13806-.7019.41516-.7019.21723,0,.47019.04296.75694.12841.28578.08593.42964.18827.42964.30654,0,.06614-.028.12696-.084.18296s-.12358.10089-.20275.13372c-.27709-.09896-.52715-.16461-.75114-.19792.00579.09896.00965.24089.00965.42529,0,.26358-.00386.5006-.00965.71156-.02028.31668-.02993.5537-.02993.71204l.02993.15834.15834-.01014c.05214-.00628.11779-.00965.19696-.00965.31668,0,.47502.0922.47502.27661,0,.07241-.02993.13324-.08882.18296-.05986.04924-.13517.07386-.22785.07386-.11875,0-.21047-.00628-.27613-.01931h-.24716c.01255.17137.01931.42143.01931.75114s-.00386.62611-.00965.88969c-.02028.40212-.02993.7019-.02993.89983,0,.3693.00676.5537.02028.5537l.32537-.01014c.112-.00628.24716-.00965.4055-.00965.25102,0,.37557.07917.37557.23703,0,.09269-.04055.16317-.12358.21289-.08207.04924-.18248.07386-.30123.07386h-.83997c-.08593,0-.16317-.02945-.23268-.08882ZM156.78594,97.58994c-.03283-.02269-.04924-.05407-.04924-.09365,0-.03331.01641-.06614.04924-.09896l.15834-.13855c.03283-.03283.21723-.19406.55322-.48419l.58315-.50446c.02703-.01303.056-.01979.08882-.01979.07917,0,.15158.03958.2182.11875.06565.07917.09848.16172.09848.24716,0,.07917-.02317.13179-.06951.15834-.23654.18441-.71832.46102-1.44339.83031-.01255.01303-.03958.01979-.0782.01979-.03958,0-.07627-.01159-.1091-.03476Z" style="fill:#fff; stroke-width:0px;"/><path d="M159.83107,104.32754l-.00965-.38523c-.00676-.112-.00965-.23751-.00965-.37605l.00965-.33599c-.02028-.07241-.06951-.79411-.14868-2.16509s-.12551-2.25053-.13806-2.63962c-.38233-.01303-.6266-.05262-.73183-.11875-.07241-.05262-.1091-.112-.1091-.17813,0-.05262.03476-.10041.10427-.14337.06951-.04248.13999-.0642.21241-.0642.18441,0,.4084.01352.67197.03958.25102.03331.47502.04972.67294.04972h.15834c.20372,0,.30606.07869.30606.23703,0,.07917-.03283.14337-.09848.19261-.06662.04972-.14193.07434-.22785.07434-.05889,0-.14482-.00965-.25682-.02945l-.19792-.03958-.00965.04924-.00965.04972c0,.58653.056,1.52208.16799,2.80762.10524,1.20588.15834,2.14192.15834,2.80762,0,.07917-.03476.1482-.10427.20758s-.14675.08931-.23268.08931l-.17765-.12889Z" style="fill:#fff; stroke-width:0px;"/><path d="M163.61768,104.50567c-.07241-.04586-.1091-.13179-.1091-.2573,0-.19744-.03283-.53343-.09848-1.00796l-.03958-.20806-.979-.1482c-.03958.15158-.09558.45812-.16799.91962-.03958.32295-.10234.53729-.18827.64253-.04538.05938-.112.08882-.19696.08882-.07917,0-.15255-.02462-.2182-.07386-.06565-.04972-.09848-.11055-.09848-.18296l.01931-.04924.01062-.03958c.43447-1.69394.76369-3.3647.98865-5.01277,0-.02607.0029-.07048.00965-.13324s.01255-.15351.01931-.27178c.02028-.24378.04152-.43833.06469-.58363.02317-.14482.06083-.25344.11393-.32633h.33599c.09172,0,.17089.02172.23751.06469.06565.04248.09848.10379.09848.18248,0,.50108.06951,1.24595.20758,2.2346.13131,1.0152.19792,1.72676.19792,2.13564,0,.0391.01641.14144.04924.30606.03283.15206.04924.25054.04924.29689s.03283.24378.09944.59329c.05889.31619.08882.52039.08882.6126v.01014c0,.14482-.0531.23703-.15834.27661-.15158,0-.26358-.02317-.33599-.06903ZM163.27107,102.31065c0-.5928-.05214-1.35071-.15737-2.27371l-.09944-1.02824c-.28289,1.54911-.47791,2.71879-.58315,3.50952.09848.06614.38909.11875.8699.15834-.01931-.09896-.02993-.22061-.02993-.36592Z" style="fill:#fff; stroke-width:0px;"/><path d="M165.80256,104.52547c-.10524.06565-.21723.09896-.33599.09896-.07917,0-.14675-.03476-.20275-.10379-.056-.06951-.084-.14337-.084-.22254,0-.5537.02317-1.29181.06951-2.21481.03958-.98189.05889-1.71662.05889-2.20467v-.06903c-.03958-.41516-.05889-.72508-.05889-.92927,0-.62611.11489-.93941.34564-.93941.06565,0,.12358.02462.17282.07434.0502.04924.07434.10717.07434.17282,0,.07917-.00965.20468-.02993.37557-.01931.1651-.02896.29013-.02896.37605,0,.44171.0029.84045.00965,1.19623.00676.3495.00965.74487.00965,1.18609-.03283.09896-.04924.23751-.04924.41564v.11827l-.01931.78107c-.01352.23075-.02028.49433-.02028.79121,0,.45474.1091.68211.32633.68211.01352,0,.03476-.00145.06469-.00483.02896-.00338.07048-.00531.12358-.00531.05889-.00628.1342-.00965.22689-.00965.35626,0,.53391.09896.53391.2964,0,.06614-.02993.12213-.08882.16799-.05986.04634-.13227.07579-.21723.08931-.23751-.07917-.53101-.11875-.88052-.11875Z" style="fill:#fff; stroke-width:0px;"/><path d="M152.12342,43.16811c-2.17426,11.77141,15.54004,15.34332,15.54004,15.34332,0,0-3.03892-14.6239-15.54004-15.34332M131.53375,54.55065s18.05857.69997,18.71507-11.25558c-12.31926-2.24402-18.71507,11.25558-18.71507,11.25558M130.01257,32.43294s8.32759,12.40161,20.17906,8.35161c-2.42473-11.72451-20.17906-8.35161-20.17906-8.35161M150.72348,34.38073c5.97606-10.16902-6.38095-19.38073-6.38095-19.38073,0,0-6.02524,15.59837,6.38095,19.38073M168.37372,26.50034s-17.81953,3.00461-16.02042,14.84007c12.51942-.31796,16.02042-14.84007,16.02042-14.84007" style="fill:#fff; stroke-width:0px;"/><path d="M51.52055,76.99433c0,1.63784-.366,3.10984-1.09914,4.41714-.73314,1.31187-1.77852,2.35039-3.13729,3.11556-1.36105.76631-2.79874,1.14832-4.31762,1.14832-1.5006,0-2.91083-.3843-4.22385-1.15976-1.31302-.77203-2.36069-1.85172-3.13958-3.24023-.77546-1.38965-1.16433-2.84106-1.16433-4.35881,0-1.5349.3843-2.9886,1.15633-4.36567.77316-1.37364,1.81169-2.43846,3.11784-3.19791,1.3073-.75945,2.73012-1.1426,4.27645-1.1426,2.40186,0,4.42285.83951,6.06756,2.51967,1.63898,1.67901,2.46362,3.7652,2.46362,6.26428M51.34555,87.68604h2.7793v-21.59273h-2.7793v3.97222c-1.08312-1.51088-2.34124-2.64205-3.77436-3.39577-1.43425-.75487-3.03549-1.13116-4.80943-1.13116-3.06523,0-5.68669,1.10371-7.86667,3.31571-2.17883,2.20857-3.26881,4.86777-3.26881,7.97761,0,3.17618,1.0774,5.87198,3.24023,8.08855,2.15709,2.21543,4.76484,3.32486,7.81749,3.32486,1.7179,0,3.30085-.35914,4.74768-1.07512,1.44683-.71484,2.75299-1.77738,3.91389-3.1899v3.70573ZM89.05363,87.68604h2.84792v-11.78513c0-2.70152-.27678-4.72595-.83264-6.07557-.55472-1.35191-1.40452-2.40186-2.54254-3.15559-1.14489-.75487-2.46248-1.13116-3.95392-1.13116-1.59896,0-3.08926.44148-4.47433,1.32102-1.38621.8784-2.5414,2.16511-3.46668,3.86242-.43806-1.27299-.95502-2.24974-1.54863-2.92913-.59817-.68396-1.36677-1.22953-2.30579-1.63784-.93901-.41175-1.93063-.61648-2.97945-.61648-1.54863,0-3.02521.42433-4.42972,1.26956-1.02022.63706-2.01299,1.64241-2.97831,3.01719v-3.73203h-2.77815v21.59273h2.77815v-9.14194c0-2.69809.26535-4.70307.80291-6.01037.53298-1.31073,1.36334-2.35382,2.47849-3.12585,1.11858-.77317,2.31951-1.1609,3.6005-1.1609,1.11287,0,2.07132.28251,2.87881.84294.80748.56272,1.37135,1.30844,1.69732,2.24174.32482.93101.48609,2.70152.48609,5.30583v11.04856h2.77472v-8.44769c0-3.09611.25734-5.30468.77432-6.62799.51239-1.32102,1.32559-2.38013,2.44189-3.17046,1.11401-.79719,2.34239-1.19293,3.68857-1.19293,1.10372,0,2.05646.26535,2.85593.79376.79604.52955,1.36106,1.22609,1.68931,2.09305.33053.86696.49524,2.45562.49524,4.77284v11.77941ZM116.59155,76.87995c0,1.53147-.38201,2.98288-1.15519,4.35538-.77088,1.37249-1.81169,2.44189-3.11784,3.19791-1.3073.76059-2.73126,1.13574-4.27417,1.13574-2.403,0-4.42514-.83608-6.0687-2.51052-1.64013-1.67558-2.46248-3.76406-2.46248-6.25971,0-1.63555.36485-3.10755,1.09914-4.41485.72971-1.30501,1.77966-2.34467,3.14644-3.11556,1.36335-.77546,2.8079-1.16319,4.3222-1.16319,1.49259,0,2.89596.38773,4.20555,1.16319,1.3176.77088,2.36183,1.84829,3.13844,3.23565.77889,1.38507,1.16662,2.84335,1.16662,4.37596M116.12947,84.92962c2.18455-2.20857,3.27797-4.87692,3.27797-7.99591,0-3.16588-1.08427-5.85254-3.24708-8.07025-2.15938-2.21658-4.76941-3.32486-7.8255-3.32486-1.7179,0-3.30084.35341-4.74196,1.06139-1.44341.71027-2.74384,1.77852-3.90817,3.2082v-12.04705h-2.7793v29.9249h2.7793v-3.96765c1.09799,1.51203,2.36183,2.64205,3.79151,3.39463,1.42625.75373,3.02063,1.13231,4.78085,1.13231,3.06752,0,5.69241-1.106,7.87238-3.31571M123.56724,87.68604h2.77929v-21.59273h-2.77929v21.59273ZM149.37009,83.42331c.69654-1.51089,1.0431-3.75262,1.0431-6.72979v-10.60021h-2.84907v10.07752c0,2.69923-.14068,4.46746-.41746,5.29896-.41061,1.21694-1.15518,2.19942-2.2303,2.94628-1.08085.74686-2.39386,1.12087-3.94249,1.12087-1.54977,0-2.88223-.3843-4.00196-1.14946-1.11743-.76631-1.87688-1.81055-2.27262-3.135-.26535-.92529-.39688-2.61803-.39688-5.08165v-10.07752h-2.7793v10.40006c0,3.0721.34999,5.37102,1.04195,6.89677.69425,1.53033,1.7465,2.72325,3.15558,3.57649,1.40909.85095,3.16474,1.27871,5.26923,1.27871,2.09992,0,3.84985-.42776,5.2475-1.27871,1.39193-.85323,2.43617-2.03701,3.13271-3.54332M165.38593,70.25882l1.78424-1.84486c-2.01756-1.91806-4.01453-2.87537-6.00923-2.87537-1.71447,0-3.13271.54213-4.25015,1.62411-1.1243,1.08427-1.68359,2.44761-1.68359,4.08431,0,1.25697.35113,2.37098,1.05796,3.35002.70454.9779,2.03472,1.96953,3.99166,2.97145,1.82084.93101,2.99318,1.6996,3.51244,2.31151.51926.62105.77546,1.33246.77546,2.12508,0,.96875-.38887,1.81055-1.17805,2.52539-.78232.71827-1.73506,1.07626-2.85364,1.07626-1.59666,0-3.10869-.79947-4.53151-2.40072l-1.7465,1.99012c.74343.95159,1.68473,1.69388,2.81819,2.23716,1.13573.54099,2.33094.81206,3.57877.81206,1.87002,0,3.43123-.61419,4.6802-1.84829,1.24782-1.23296,1.8746-2.73583,1.8746-4.51092,0-1.25812-.36485-2.39271-1.09799-3.40035-.74802-.99163-2.15482-2.02557-4.22957-3.09955-1.70189-.87496-2.82047-1.64013-3.3546-2.28634-.53069-.63706-.79833-1.3073-.79833-2.00956,0-.79719.32482-1.49144.96646-2.09076.6485-.59475,1.42167-.89441,2.32294-.89441,1.42396,0,2.88109.71827,4.37024,2.15367" style="fill:#fff; stroke-width:0px;"/></svg>