<?xml version="1.0" encoding="UTF-8"?><svg id="uuid-97653ba5-f22f-4a87-a59d-954fd758af47" xmlns="http://www.w3.org/2000/svg" width="200" height="120" viewBox="0 0 200 120"><path d="M19.26916,49.22768c1.01645-.33752,2.16823-.71982,3.31028-.71982,1.33742,0,2.37918.54068,3.09673,1.60776,1.6282,2.42105-.44332,4.94595-1.439,6.15907-1.20955,1.47405-2.55378,2.86112-3.85355,4.20276-.81329.83925-1.65449,1.70771-2.44831,2.58267-.28202.31091-.63577.57768-.97751.83601-.91455.69126-1.19008.99503-1.01937,1.43381.04187.10775.08957.22977.54879.22977.23691,0,.51147-.03375.80226-.06945.32421-.04024.65914-.08178.98951-.08178.15935,0,.3135.00974.46019.0318.38652.05842.77824.08957,1.16931.12138.5939.04738,1.20793.09671,1.81676.23496.17557.04024.35667.0727.53841.1058.97588.1759,2.30097.41541,2.85236,1.89335.01525-.63674.13371-1.31762.35732-2.0329.73917-2.36113,1.65697-4.28572,2.80725-5.89575v-18.55619h-14.70218v10.23452c1.92678-.99495,3.86159-1.71133,5.56809-2.27687l.12268-.04089ZM44.99327,61.84698l.0675-.10061c2.3305-3.0526,4.91284-6.64003,6.29245-10.81098-.05744-.01103-.10645-.01363-.14702-.01363-.22718,0-.47869.09347-.74481.19278-.27131.10061-.57865.21484-.91714.24989-.14896.01493-.30993.05647-.47447.09606-.11448.02783-.23825.05505-.36275.07996l-3.09584,7.49028c-.01558.18304-.03205.366-.04738.54904l-.11781,1.3663-.11683.15253c-.30896.40372-.48194.83731-.57183,1.32736.07042-.14669.13274-.30961.20186-.49005l.03408-.08892ZM71.86236,54.09444c.20219,0,.65232-.62116.86879-.91974.06446-.08925.12807-.17517.1916-.26024l-.59544-1.45632c-.54319.64477-1.36143,1.82532-.72392,2.4617.13793.13825.22783.1746.25898.1746ZM54.52526,43.10171c.15586-.71889.54364-1.47186,1.19296-1.7908h-2.78319l-2.05651,4.97564c2.18953-.48616,3.2629-1.4194,3.64674-3.18485ZM14.32126,70.79772v.13436c.00032,1.06708.00065,2.2471-.45468,3.57251,1.37442-.30701,2.22633-1.119,3.11848-1.96864l.09509-.09022c.37192-.35375.84964-.65362,1.31145-.94311,1.28647-.80615,1.67299-1.17547,1.42667-1.77132-.09769-.23691-.27326-.49005-1.11965-.49005-.34012,0-.71431.0383-1.11089.07919-.41573.04219-.84574.08633-1.2605.08633-.19407,0-.38263-.00974-.56275-.03245-.13306-.01623-.25736-.02466-.37387-.02466-.56307,0-1.0687.11034-1.06935,1.44809ZM108.18911,60.80002l-11.5016-19.48911h-9.59592c-.00775.01834-.01363.03683-.02142.05517-1.22188,2.8728-1.5633,9.86204-1.05345,13.77336.37776-1.11641.61695-2.28864.86522-3.50435.32454-1.58958.66043-3.23304,1.33904-4.81354l.65362-1.52143.57962,1.55129c1.19462,3.19604-.53549,12.94125-2.72222,15.33438-.7023.76786-1.38967,1.15665-2.04361,1.15665h-.00032c-.61208,0-1.45165-.33103-1.97676-1.90958-.16405-.49326-.29513-.9911-.40794-1.49088v15.91595l-8.13075-19.88646c-1.00006,1.14363-2.16852,2.23225-3.86057,2.23225-.81361,0-1.66228-.24665-2.59468-.75422l-.21549-.11683-.08763-.22912c-.19927-.52186-.06685-1.04566.03959-1.46626.10775-.42579.14312-.60559.05582-.72307-.05614.04414-.11326.08957-.17038.13566-.58222.46409-.93045.72696-1.32411.72696h-.1918l-.22328-.11813c-.51829-.32713-.69159-.73735-.74579-1.02359-.14539-.76786.38782-1.49417.64388-1.84272.50725-.68997,1.00671-1.38707,1.50618-2.08418,1.03665-1.44752,2.10199-2.92651,3.23941-4.34604l-2.06523-5.05126h-11.07568c1.03961.43784.85986,1.46707.77325,1.9258-.03343.1759-.07107.37517-.05614.48356.30993,2.26397-.27521,3.98142-1.31989,6.01887-1.24135,2.4217-1.8953,5.50999-1.94852,9.19414.39366-.34985.70846-.78149,1.0343-1.2274.51017-.69905,1.03722-1.42147,1.89627-1.86155l.85905-.44072.10483.95998c.25509,2.33667-4.19205,8.98514-5.82577,9.34148-.2275.04998-.44429.07529-.64388.07529-.64972,0-1.05312-.26742-1.27738-.492-.41606-.41671-.61792-1.05669-.61695-1.95631l.00097-3.35896c-.34336.43618-.68185.86716-1.01742,1.29425-1.84013,2.34446-3.57835,4.55845-5.39997,6.71273-.12917.15318-.27456.3849-.42839.6309-.47025.75098-1.05572,1.6863-2.04621,1.6863-.42352,0-.84477-.18239-1.25271-.54198-.13237-.11687-.25371-.25148-.3694-.39334h-5.49575c-.58064.52494-1.17949,1.02367-1.8056,1.48703-1.30172.96323-2.3873,1.41174-3.41575,1.41174-.70879,0-1.36695-.22198-1.95631-.66011-.75812-.56469-1.27835-1.28971-1.55291-2.14195-.14831,1.55129-1.29263,2.58591-1.73692,2.98769-1.89238,1.70901-4.04146,3.09219-6.11947,4.42928-.93629.60299-1.90471,1.2261-2.82899,1.86674-.32746.22653-.63934.46733-.94505.7023-.0443.03416-.08925.06811-.13371.10231v1.91177h38.2347l2.04718-5.79948h12.69427l2.16401,5.79948h27.47824l-.56891-18.337,11.15272,18.337h14.73237v-40.14785h-13.89311l.56924,19.48911ZM57.4263,64.84441l2.92246-8.40681,2.87183,8.40681h-5.79429ZM162.29725,51.57733c-1.38642-2.52879-3.2629-4.58571-5.57717-6.11233-2.30649-1.52273-5.00209-2.60863-8.01217-3.22785-2.98996-.61467-6.17108-.92623-9.45474-.92623h-15.77348v40.14785h16.94311c3.09673,0,6.11753-.39788,8.97865-1.18261,2.8728-.78863,5.44833-2.01667,7.65486-3.65104,2.21399-1.63891,4.00803-3.76982,5.33247-6.33237,1.32476-2.56384,1.99655-5.63656,1.99655-9.13118,0-3.82954-.70262-7.05414-2.08807-9.58423ZM147.12222,67.40241c-1.68727,1.3001-4.15765,1.95956-7.34265,1.95956h-2.24125v-16.12171h2.76765c2.83191,0,5.12282.69516,6.80944,2.06535,1.6652,1.35462,2.50932,3.27847,2.50932,5.7177,0,2.95329-.84185,5.09913-2.50251,6.3791ZM20.42548,55.71193l.1243-.19083c.20998-.32064.49784-.75942.44429-.96842-.02759-.10775-.18174-.24275-.4232-.37127-.23821-.12657-.55528-.19407-.91649-.19407-1.59867,0-3.46184,1.17807-3.69258,2.33342-.26223,1.31502-.40308,2.66315-.56632,4.22418-.02109.20381-.04284.41086-.06523.62181.0847-.07724.16908-.15448.25281-.23107,1.93879-1.77068,3.61307-3.29989,4.84242-5.22375Z" style="fill:#fff; stroke-width:0px;"/><polygon points="179.95098 83.30709 179.95098 83.31187 13.40607 83.31187 13.40607 84.30885 179.95098 84.30885 179.95098 95 191.64389 95 191.64389 83.30709 179.95098 83.30709" style="fill:#fff; stroke-width:0px;"/><path d="M17.44303,62.61334c2.06698-2.27866,4.33334-4.38774,6.28032-6.76048,1.22521-1.49311,2.67248-3.4762,1.40099-5.36687-1.40606-2.09079-3.89108-1.20898-5.76881-.58652-4.04763,1.34176-7.94942,3.0872-10.99942,6.24625v1.32533c1.44115.24795,2.31496-1.18351,4.42997-1.26245-2.81633,3.40431-.07963,7.88763-3.33572,10.99289-.41383.39464-.53326.97836.01927,1.42001,2.92315,2.33679.96461,5.45997,1.20643,8.19671.08872,1.0042-1.24663,1.92982-2.31995,2.52109v.6627c2.58924,1.31531,4.00138-.47537,5.9222-1.80633,2.97284-2.05992,6.18118-3.80325,8.88161-6.24284,1.05913-.95686,1.89542-2.17606,1.37506-3.80386-.47058-1.47202-1.82252-1.44618-2.95718-1.7041-.9558-.21724-1.9626-.20004-2.93771-.34701-1.14481-.17257-2.85723.66554-3.32107-.52713-.53536-1.37652,1.28833-2.03611,2.12401-2.95739ZM15.84675,68.71476c1.58934.19781,3.93607-.81021,4.58583.76287.70741,1.71262-1.78049,2.38949-2.89459,3.44955-1.14724,1.09154-2.36287,2.31168-4.73415,2.36868.88173-1.69311.85215-3.10172.85284-4.49817.00069-1.49368.59926-2.28093,2.19006-2.08292ZM14.47124,62.86603c.31967-2.6526.44307-4.69102.83889-6.67537.39403-1.97542,3.85023-3.51234,5.57287-2.59622,1.38427.73617.61045,1.68151.10259,2.47589-1.60573,2.51159-3.90865,4.34588-6.51435,6.79569ZM88.83168,47.0837c-1.43936,3.35154-1.28217,7.04724-3.02903,10.20921-1.12156-3.13349-.8283-12.69683.65569-16.18723,2.20503-5.18619,3.01061-10.52689,2.25221-16.10569h-1.32817c-1.38841,1.73035-2.10767,3.74427-2.77954,5.84301-2.15184,6.72186-.80619,14.44288-5.81968,20.3439-.04978.05858-.01976.1847-.01493.28945,1.55149.17845,1.81185-1.75891,3.42403-2.06085,0,1.18785-.0729,2.26231.01408,3.32371.23314,2.84615.22133,5.73498,1.13556,8.48373.61755,1.85664,1.69344,1.83351,2.89925.51423,1.99144-2.17882,3.7106-11.65628,2.59054-14.65346ZM86.15944,33.01773c.22981-.70457.45959-1.40926.68932-2.11391.60546,1.46715.80355,2.87142-.00832,4.23614.0383,1.21495-.32932,2.29168-1.18695,3.58188-.76542-2.21411-.10109-3.9568.50603-5.70398h.00008c-.00008-.00004-.00008-.00008-.00016-.00012ZM78.73058,51.47445c.00032.01473-.00215.02742-.00199.04203.01412-.00243.02828-.00487.04239-.0073l-.00028-.00024c.00016-.01002-.00199-.02199-.00247-.03258-.0131-.0015-.02458-.00028-.03789-.00211l.00024.0002ZM53.88993,60.11562c-.07306-3.86313.44092-7.60176,2.01895-10.67975,1.01755-1.98475,1.5381-3.53985,1.25259-5.62524-.09452-.69033.57918-1.64301-.44668-1.9469-.94306-.27935-1.39831.7253-1.54025,1.3788-.53261,2.45196-2.24588,3.3332-4.45249,3.76329-.74883.14596-1.45527.50705-2.18211.76696-1.14586.40981-1.52995,1.37129-1.27977,2.38089.31874,1.28614,1.42062.63135,2.21626.54944.83386-.08584,1.59611-.881,2.68425-.11752-1.30436,4.32417-3.84605,7.99404-6.57172,11.56375-.26377.68895-.51922,1.38468-1.57632,1.73924-.03026-1.21677.07302-2.25825.7881-3.193.00016-.00028.00024-.00065.00041-.00093.11578-1.29807.20888-2.59869.35488-3.89339.10767-.95471.55804-2.09517-.63589-2.56689-1.26273-.49889-2.02191.52798-2.6264,1.42715-1.26764,1.8856-2.45431,3.8254-3.67425,5.74293-1.95972,1.91445-3.26472,4.46827-5.71628,5.89526-.91446.53228-1.95181,1.4622-2.94408.31346-.94412-1.09296.28762-1.79712.83305-2.50161,1.21385-1.56784,2.5436-3.04785,3.30663-4.91256.37342-.91264.93653-1.90629-.06113-2.71609-1.12874-.91617-2.09866-.15257-2.90996.5952-2.33484,2.15197-3.68431,4.89422-4.61975,7.88325-.61471,1.9641-.44182,3.89554,1.18444,5.1055,1.50654,1.12087,3.20517.26519,4.57995-.75207,2.96522-2.1942,5.24728-4.99856,7.07114-8.18609.81812-.73045,1.63624-1.4609,2.78944-2.49054-.14827,2.20653.35606,3.77859-1.54784,5.15174-1.47993,1.06736-.92448,3.4805.1929,4.46673,1.39007,1.22691,2.07225-.86826,2.77995-1.70524,2.52149-2.98201,4.89199-6.0912,7.58926-9.49219,0,2.06621.00142,3.66999-.00049,5.27377-.00142,1.15799.36381,2.02203,1.73177,1.72301,1.49186-.32612,5.49478-6.89812,5.30675-8.6202-1.57409.80635-1.92913,2.90112-3.8953,3.67985ZM30.60325,61.01292s.378-.34957.37796-.34961c.27752-.26283,1.55319-.65366.28077,1.41226-.48206.65463-.68275.83954-1.48419,1.20854-.12653-1.20829.82542-2.27119.82546-2.27119ZM77.66237,51.70106c.00032.00008.00069.00012.00101.0002.44433,1.06667-.53382,1.63185-.85925,2.42717,1.22724-.44733,1.93972-1.26671,1.92447-2.61196-.35488.0617-.71009.12324-1.06602.18401-.00008.0002-.00012.00037-.0002.00057ZM78.04861,48.48583c.32263-1.43243,1.20967-3.44354-.57751-4.10759-1.59822-.59386-3.94925-.78704-5.27803.69747-2.25732,2.5219-4.14718,5.37348-6.15899,8.11027-.43439.5909-.92104,1.37924-.07951,1.91063.21217.13399.9926-.62814,1.5119-.97848,1.50869.64396.22933,1.86264.56875,2.74765-.00016-.00012-.00024-.00028-.00041-.00041.00012.00016.00016.00028.00028.00045,3.95538,2.15225,5.34322-1.3734,7.43296-3.34687.27642-.78887.63001-1.52528,1.36695-2.00093.4163-1.00809.97742-1.98369,1.21361-3.03219ZM74.2039,52.54688c-.1258.17136-.3219.29131-.48543.43508h-.00093c-.71869.81471-1.46159,2.5292-2.58364,1.40865-1.01953-1.01811-.04568-2.569.93402-3.64147,1.07499-1.02927,1.47835-3.92272,3.26517-2.71313,1.54683,1.04704-.10166,3.11105-1.12919,4.51086Z" style="fill:#fff; stroke-width:0px;"/></svg>