<?xml version="1.0" encoding="UTF-8"?><svg id="uuid-a15c482a-1bc7-4666-9564-3025993b177f" xmlns="http://www.w3.org/2000/svg" width="200" height="120" viewBox="0 0 200 120"><path d="M107.79678,60.16745c-.09717-.04333-.19385-.07471-.29004-.09338.06592-.01465.13135-.03552.19775-.0658.33057-.02856.65625-.10791.8208-.41711.2876-.53992.2876-1.11719.0332-1.66443-.23926-.51489-.74365-.46729-1.20996-.48706-.25342-.01074-.32861.07886-.32373.32837.01562.73608.00732,1.47278.00879,2.20923.07568.05737.15332.08435.23145.09961-.07812.01941-.15576.05298-.23145.12207-.00146.84546-.00537,1.69067-.00049,2.53589.00098.11255-.06738.25562.09912.33057.28711.12915,1.25537-.02869,1.4541-.28394.43164-.55371.39746-1.198.24072-1.82666-.12646-.50647-.52734-.73291-1.03027-.78735ZM99.8793,16.61472c-23.93018.06946-43.24414,19.38806-43.2583,43.3877-.01416,23.95703,19.4707,43.38354,43.38037,43.38306,24.0127-.09009,43.30811-19.36694,43.37744-43.28711.07031-24.06653-19.41699-43.55347-43.49951-43.48364ZM104.19083,58.97214c-.01074.92944.01953,1.86133-.03711,2.78809-.0708,1.15674-.75293,1.6665-2.04785,1.61548-1.18262-.04651-1.80957-.65283-1.81885-1.7793-.00879-1.09021-.00195-2.18042-.00244-3.27075,0-.76221-.01025-.77661-.79102-1.03125h2.37646c-.61377.07495-.64502.49023-.63574.979.02148,1.15393-.00635,2.30884.01807,3.46265.01758.81946.47168,1.29541,1.21045,1.34619.86475.05957,1.43262-.38306,1.46973-1.26929.04883-1.1842.02393-2.37207.00879-3.55798-.00684-.55188-.41064-.77722-.97852-.9093.14258-.04932.18115-.07422.21973-.07434.59229-.00256,1.18457-.00171,1.8252.03345-.93018.26135-.80908.99451-.81689,1.66736ZM108.8754,63.05869c-.29932.11951-.61572.18787-.93652.19128-.86426.00928-1.72803.00317-2.59131.00317-.01758-.13306.08643-.13062.15186-.13647.47705-.04199.58643-.32886.58154-.76196-.0166-1.39392-.02002-2.78833.00146-4.18213.00732-.47998-.13623-.77295-.65723-.86169.0918-.01428.18359-.04163.2749-.04089.83301.00586,1.66895-.02209,2.49854.0354,1.11719.07727,1.74365.89294,1.43018,1.79199-.1875.53662-.60156.80518-1.14062.90918-.02588.01941-.05371.03198-.08398.03564-.05762.00684-.11328-.00488-.15283-.01343.13281.04004.27246.11133.42627.13867.79102.19336,1.18701.60132,1.23096,1.26794.04785.72961-.34131,1.34729-1.0332,1.62329ZM120.67569,81.93259c-2.29395-.01831-4.58838-.02295-6.88184.00305-.44043.005-.51709-.12366-.5166-.53284.01172-10.61987.01025-21.23987.0083-31.85974-.00049-1.99817-1.22217-3.56848-3.13721-3.92749-1.00928-.18909-2.05615-.18213-3.06543-.00525-1.45752.25537-2.41699,1.17529-2.96631,2.53467-.09521.21814-.0249.47473-.15967.68359v.00037c-.00391,1.33105-.01758,2.66223-.00488,3.99304.00293.31396-.0459.44263-.40674.44006-2.37354-.01746-4.74756-.01599-7.12109-.0011-.33203.0022-.39307-.11035-.38916-.40991.01611-1.10645.01074-2.21338.00537-3.31995-.01123-2.24695-1.66309-3.92456-3.90869-3.94397-.86182-.00757-1.73193-.08765-2.58301.15015-1.64062.4585-2.82568,1.9436-2.82861,3.64722-.01221,7.08911-.01611,14.17822,0,21.26733.00488,2.06042,1.6665,3.72461,3.71875,3.78894.80078.02515,1.61035.08679,2.40234-.0415,1.77148-.28687,3.12744-1.77063,3.22461-3.56555.06494-1.19946.0376-2.40491.02441-3.60742-.00342-.35815.06494-.49487.46729-.49097,2.30957.02136,4.61914.01807,6.92871.0022.35205-.00244.46924.07568.45752.44702-.05713,1.77661.0874,3.55774-.18457,5.33008-.72119,4.69202-4.68604,8.77417-9.37695,9.50024-2.77979.43018-5.55713.41797-8.23779-.65112-4.34766-1.73364-7.30664-6.021-7.31738-10.69897-.01709-7.2334-.06543-14.46777.01758-21.7002.05469-4.75354,3.33838-9.48914,8.64844-10.77625,3.82764-.92786,7.63818-.75574,11.10938,1.47693.45898.29517.89648.61743,1.2998.98511.32617.05273.51025.30591.72705.51294.1792.18384.29883.41772.49463.58789.25488.26904.47021.57031.70508.85632.15381.24158.32227.47412.46582.7229.23438.36646.41895.7594.62207,1.14294.2334.46655.41357.95361.57275,1.44897-.00195-.02417-.00488-.04871.00049-.07153-.00781-.03967-.01465-.07935-.02441-.11865-.26807-1.24097-.41748-2.50342-.67773-3.74585-.14746-.76282-.26123-1.53149-.40039-2.2959-.03516-.19238-.11719-.4043.01074-.60168,1.33008-.75781,2.7749-1.16809,4.28809-1.26941,2.22754-.14893,4.4458-.16064,6.60791.58887,4.67529,1.62048,7.87549,6.03564,7.87988,10.98682.00879,10.68408,0,21.36816.01318,32.05225,0,.41943-.12939.4884-.51172.48535ZM95.9335,58.23361c-.00098-.65491-.05957-.72729-.68457-.92285h2.30908c-.20947.15259-.57227.06616-.63184.37695-.04785.24878-.04053.50977-.04102.7655-.00342,1.41113.00879,2.82239-.00928,4.23328-.00439.3241.10205.3811.40381.39563.86719.04187,1.43896-.33362,1.7666-1.12085.09131-.21936.19141-.43469.3501-.64587,0,.60254.00977,1.20557-.00586,1.80786-.00488.18811-.19092.13257-.30713.13281-1.28174.00378-2.56396.00244-3.84619.00244q.69727-.36035.69678-1.17627c0-1.28284.00146-2.56567-.00049-3.84863ZM91.89151,62.64792c.58057.58557,1.40918.56445,2.00537-.04468.30225-.30859.45508-.71045.67871-1.1499.07715.86316-.82715,1.8269-1.70557,1.91296-1.10107.10779-2.01123-.38062-2.43848-1.40222-.5625-1.34558-.50195-2.66626.39648-3.8656.70361-.93909,1.85938-1.24243,2.91406-.73621.38135.18286.41113-.15674.66016-.26562v2.02368c-.02393.00793-.04736.01587-.07129.02393-.09131-.19312-.18652-.38452-.27393-.57959-.15088-.33887-.33008-.6604-.59912-.92041-.49805-.48218-1.14502-.46509-1.6167.0354-.94189.99927-.91162,3.99731.05029,4.96826Z" style="fill:#fff; stroke-width:0px;"/></svg>