<?xml version="1.0" encoding="UTF-8"?><svg id="uuid-b7a8f30f-899e-4ff3-aaaf-d2fe4f39f6e3" xmlns="http://www.w3.org/2000/svg" width="250" height="120" viewBox="0 0 250 120"><path d="M92.57485,60.91018c.37257.57618.57016,1.24799.56886,1.93413.01304.95664-.45765,1.85523-1.2515,2.38922-1.09522.66071-2.36342.97776-3.64072.91018h-6.25749v-12.17365h5.91617c1.19273-.09421,2.38531.18405,3.41317.79641.7422.51507,1.17099,1.37265,1.13772,2.27545.02316.56602-.1364,1.12447-.45509,1.59281-.28904.45983-.67789.84869-1.13772,1.13772.69701.13847,1.31069.54759,1.70659,1.13772ZM84.9521,56.01796v2.84431h2.73054c.55238.03693,1.10407-.08129,1.59282-.34132.56551-.35188.7387-1.09557.38682-1.66108-.09884-.15589-.23094-.28799-.38682-.38683-.48874-.26003-1.04044-.37825-1.59282-.34132h-2.73054v-.11377ZM89.84432,63.52695c.38449-.24571.60299-.68271.56886-1.13772,0-1.02395-.7964-1.47904-2.27545-1.47904h-3.29941v3.07185h3.2994c.60636.07544,1.2183-.08775,1.7066-.45509Z" style="fill:#fff; stroke-width:0px;"/><path d="M96.67066,64.77844c-1.0245-1.11036-1.55776-2.58706-1.47905-4.09581v-6.71258h2.84431v6.5988c0,2.16168.91018,3.2994,2.73054,3.2994.7712.08086,1.53396-.21577,2.04791-.79641.4149-.76663.61166-1.63234.56886-2.50299v-6.71257h2.73054v6.71257c.13314,1.51632-.40784,3.01439-1.47905,4.09581-1.08657.98869-2.5135,1.51869-3.98204,1.47904-1.46926.20752-2.94919-.29988-3.98204-1.36527Z" style="fill:#fff; stroke-width:0px;"/><path d="M110.09581,65.91617c-.787-.17845-1.52504-.52805-2.16168-1.02395l.91018-2.16168c.57085.37049,1.18146.67579,1.82036.91018.69815.22663,1.42766.34182,2.16168.34132.58959.04806,1.18084-.07019,1.70659-.34132.32981-.18926.54326-.53078.56886-.91018.03278-.2753-.10141-.54369-.34132-.68264-.26515-.21846-.57633-.37405-.91018-.45509-.48435-.14851-.9786-.26257-1.47905-.34132-.77171-.18087-1.53161-.40884-2.27545-.68264-.57571-.20292-1.08646-.55652-1.47905-1.02395-.47453-.52897-.72-1.22449-.68263-1.93413.00974-.68452.20646-1.35334.56886-1.93413.41055-.62378,1.00791-1.10167,1.7066-1.36527.90738-.34322,1.87515-.49806,2.84431-.45509.76311.01886,1.52372.09492,2.27545.22754.67105.19633,1.31939.46329,1.93413.79641l-.91018,2.16168c-.9936-.60468-2.13631-.91991-3.2994-.91018-.58959-.04805-1.18084.0702-1.70659.34132-.35543.21855-.57108.60671-.56886,1.02395,0,.45509.22754.68264.68263.91018.61264.28526,1.2646.47701,1.93413.56886.77171.18087,1.53161.40884,2.27545.68264.57571.20292,1.08646.55652,1.47905,1.02395.47453.52897.72,1.22449.68263,1.93413-.00974.68452-.20646,1.35334-.56886,1.93413-.41055.62377-1.00791,1.10167-1.70659,1.36527-.90738.34322-1.87515.49806-2.84431.45509-.87952-.10645-1.75294-.25835-2.61675-.45509Z" style="fill:#fff; stroke-width:0px;"/><path d="M119.99401,53.97006h2.73054v12.05988h-2.84431v-12.05988h.11377Z" style="fill:#fff; stroke-width:0px;"/><path d="M136.71857,53.97006v12.05988h-2.27545l-6.02994-7.28144v7.28144h-2.73054v-12.05988h2.27545l6.02994,7.28144v-7.28144h2.73054Z" style="fill:#fff; stroke-width:0px;"/><path d="M148.89222,63.75449v2.27545h-9.32934v-12.05988h9.1018v2.27545h-6.37126v2.61677h5.57485v2.16168h-5.57485v2.84431h6.5988v-.11377Z" style="fill:#fff; stroke-width:0px;"/><path d="M152.30539,65.91617c-.787-.17845-1.52504-.52805-2.16168-1.02395l.91018-2.16168c.57085.37049,1.18146.67579,1.82036.91018.69815.22663,1.42766.34182,2.16168.34132.58959.04806,1.18084-.07019,1.70659-.34132.3298-.18927.54325-.53079.56885-.91018.03279-.2753-.10142-.54369-.34132-.68264-.26515-.21846-.57633-.37405-.91018-.45509-.48435-.14851-.9786-.26257-1.47905-.34132-.77171-.18087-1.53161-.40884-2.27545-.68264-.57571-.20292-1.08646-.55652-1.47905-1.02395-.43156-.55346-.67118-1.23239-.68263-1.93413.00974-.68452.20646-1.35334.56886-1.93413.41055-.62377,1.00791-1.10167,1.70659-1.36527.90738-.34322,1.87515-.49806,2.84431-.45509.7631.01886,1.52371.09492,2.27544.22754.67106.19633,1.3194.46329,1.93413.79641l-.91018,2.16168c-.9936-.60468-2.13631-.91991-3.2994-.91018-.58959-.04805-1.18084.0702-1.70659.34132-.35543.21855-.57108.60671-.56886,1.02395,0,.45509.22754.68264.68263.91018.61264.28526,1.2646.47701,1.93413.56886.77171.18087,1.53161.40884,2.27545.68264.5757.20292,1.08646.55652,1.47905,1.02395.47453.52897.72,1.22449.68264,1.93413-.00974.68452-.20645,1.35334-.56886,1.93413-.41054.62377-1.0079,1.10167-1.70659,1.36527-.90737.34322-1.87515.49806-2.84431.45509-.87951-.10646-1.75292-.25836-2.61674-.45509Z" style="fill:#fff; stroke-width:0px;"/><path d="M163.34131,65.91617c-.78699-.17846-1.52503-.52805-2.16167-1.02395l.91018-2.16168c.57086.37049,1.18146.6758,1.82037.91018.69814.22663,1.42766.34182,2.16167.34132.58959.04806,1.18083-.07019,1.70659-.34132.32981-.18926.54326-.53078.56886-.91018.03279-.2753-.10142-.54369-.34132-.68264-.26514-.21846-.57633-.37405-.91018-.45509-.48435-.14851-.9786-.26257-1.47905-.34132-.77172-.18087-1.53161-.40884-2.27545-.68264-.5757-.20292-1.08646-.55652-1.47905-1.02395-.43156-.55346-.67118-1.23239-.68264-1.93413.00974-.68452.20645-1.35334.56886-1.93413.41054-.62377,1.0079-1.10167,1.70659-1.36527.90737-.34322,1.87514-.49806,2.84431-.45509.76311.01886,1.52371.09492,2.27545.22754.67106.19633,1.3194.46329,1.93413.79641l-.91018,2.16168c-.9936-.60468-2.13631-.91991-3.29939-.91018-.58959-.04805-1.18083.0702-1.70659.34132-.35543.21855-.57107.60671-.56886,1.02395,0,.45509.22754.68264.68264.91018.61264.28526,1.26461.47701,1.93413.56886.77172.18087,1.53161.40884,2.27545.68264.5757.20292,1.08646.55652,1.47905,1.02395.47453.52897.72,1.22449.68264,1.93413-.00974.68452-.20645,1.35334-.56886,1.93413-.41054.62377-1.0079,1.10167-1.70659,1.36527-.90737.34322-1.87514.49806-2.84431.45509-.87952-.10646-1.75296-.25836-2.61677-.45509Z" style="fill:#fff; stroke-width:0px;"/><path d="M173.69461,53.97006h4.89222c1.18765-.0361,2.36414.23841,3.41317.79641.9386.50348,1.72454,1.25011,2.27545,2.16168.56666.96304.84321,2.06922.7964,3.18563.03554,1.11523-.24023,2.21832-.7964,3.18563-.55091.91157-1.33685,1.6582-2.27545,2.16168-1.04903.55799-2.22552.83251-3.41317.79641h-4.89222v-12.28742ZM178.58683,64.89221c.95494.02149,1.89805-.21429,2.73053-.68264.7355-.41377,1.36004-.99928,1.82037-1.70659.4672-.7915.70365-1.69791.68264-2.61677.00457-.91686-.23077-1.81898-.68264-2.61677-.39375-.76032-1.03625-1.36267-1.82037-1.70659-.83248-.46834-1.77559-.70412-2.73053-.68264h-3.52695v9.8982h3.52695v.11377Z" style="fill:#fff; stroke-width:0px;"/><path d="M196.4491,64.89221v1.13772h-8.53293v-12.05988h8.30539v1.13772h-7.05389v4.32335h6.25748v1.13772h-6.25748v4.43713h7.28143v-.11377Z" style="fill:#fff; stroke-width:0px;"/><path d="M200.2036,65.68862c-.70695-.26183-1.36181-.64704-1.93413-1.13772l.45508-1.02395c.48251.46807,1.06653.81848,1.70659,1.02395.72997.26995,1.49781.42352,2.27545.45509.83585.05925,1.66977-.1393,2.38923-.56886.54543-.33752.85364-.95397.7964-1.59281.04423-.43095-.12586-.85616-.45508-1.13772-.31485-.26494-.65829-.4939-1.02395-.68264-.59608-.1917-1.2042-.34373-1.82037-.45509-.73443-.18104-1.45646-.40905-2.16167-.68264-.54327-.20441-1.01691-.55964-1.36527-1.02395-.38854-.52575-.58891-1.16693-.56886-1.82036-.01156-.60031.14614-1.19174.45508-1.70659.3868-.52854.89376-.95751,1.47905-1.2515.78798-.34298,1.64471-.49875,2.50299-.45509.69683-.00042,1.38888.11492,2.04791.34132.60733.17374,1.18333.44253,1.70659.79641l-.45508,1.02395c-.49459-.33266-1.02992-.60032-1.59281-.79641-.55977-.13304-1.13153-.20927-1.70659-.22754-.83321-.03003-1.65895.16658-2.38923.56886-.52136.35896-.82206.96034-.7964,1.59281-.04423.43095.12586.85616.45508,1.13772.30757.32991.70188.56649,1.13772.68264.59608.1917,1.2042.34373,1.82037.45509.73443.18104,1.45646.40905,2.16167.68264.51168.20847.97603.51804,1.36527.91018.37226.49076.5722,1.09062.56886,1.70659.01156.60031-.14614,1.19175-.45508,1.70659-.36257.52396-.87961.92169-1.47905,1.13772-.78798.34298-1.64471.49875-2.50299.45509-.85364.30537-1.79288.26454-2.61679-.11377Z" style="fill:#fff; stroke-width:0px;"/><path d="M210.1018,53.97006h1.2515v12.05988h-1.2515v-12.05988Z" style="fill:#fff; stroke-width:0px;"/><path d="M224.13556,60h.9842v4.66467c-.47223.5112-1.01968.89794-1.6105,1.13772-.61033.227-1.24302.34194-1.87891.34132-.90534.03436-1.80135-.24066-2.59468-.79641-.71923-.53604-1.33158-1.27577-1.78944-2.16168-.44563-.96304-.66311-2.06922-.6263-3.18563-.02795-1.11523.18892-2.21832.6263-3.18563.43079-.91407,1.04947-1.66145,1.78944-2.16168.78981-.56717,1.68837-.84297,2.59468-.79641.67436-.03234,1.34613.12298,1.96838.45509.56882.28089,1.08644.70679,1.52102,1.2515l-.6263.79641c-1.36297-1.52441-3.33156-1.7975-4.92095-.68264-.60203.42402-1.0981,1.05483-1.43155,1.82036-.36741.7915-.55336,1.69791-.53684,2.61677-.01584.88289.17069,1.75257.53684,2.50299.33346.76553.82953,1.39634,1.43155,1.82036.62739.45188,1.33682.68721,2.05785.68264.88654.00939,1.7564-.30663,2.50521-.91018v-4.20958Z" style="fill:#fff; stroke-width:0px;"/><path d="M238.77245,53.97006v12.05988h-1.02395l-7.73653-9.78443v9.78443h-1.2515v-12.05988h1.02395l7.73653,9.78443v-9.78443h1.2515Z" style="fill:#fff; stroke-width:0px;"/><path d="M52.86826,46.00599c3.64072,3.2994,5.46108,7.96407,5.46108,13.76647s-1.82036,10.58084-5.34731,13.99401-8.87425,5.11976-16.15569,5.11976h-12.97005v-37.88622h13.42515c6.71257,0,11.94611,1.70659,15.58682,5.00599ZM46.61078,68.53293c2.0479-1.93413,3.07185-4.77844,3.07185-8.53293s-1.02395-6.5988-3.07186-8.64671-5.23353-2.95808-9.55689-2.95808h-4.77844v23.09581h5.34731c3.98204,0,6.94012-1.02395,8.98802-2.95808Z" style="fill:#fff; stroke-width:0px;"/><rect x="68.68264" y="42.82036" width="1.47904" height="34.35928" style="fill:#fff; stroke-width:0px;"/><rect x="11.22755" y="71.49102" width="7.50898" height="7.50898" style="fill:#fff; stroke-width:0px;"/></svg>