<?xml version="1.0" encoding="UTF-8"?><svg id="uuid-3604eb99-6902-4bfc-bf57-b471c257dd11" xmlns="http://www.w3.org/2000/svg" width="200" height="120" viewBox="0 0 200 120"><path d="M38.61147,43.39911c-.07497-.55875,1.23826-.83206,1.23826-.83206,19.5885-4.85001,36.335,2.21123,38.46379,1.19802,46.1603-21.94807,97.62663-5.19705,101.12696-3.94733.30003.1088.49836.36041.53966.56464.1029.43207-.22765.35868-.22765.35868l-.10187-.025s-64.01267-14.59567-101.08409,9.70332c-1.19558.78364-16.22662-10.18814-38.6125-6.73934-1.13502.17786-1.31723-.12667-1.34257-.28094Z" style="fill:#fff; stroke-width:0px;"/><path d="M146.55585,75.10341c-3.4049.10741-5.42021-1.65265-4.50607-3.92981.91135-2.27872,4.41063-4.21073,7.81832-4.31504l11.64556.07514c3.40038-.10741,5.42021,1.65681,4.51009,3.92981-.91881,2.27872-4.42227,4.21057-7.82406,4.31347l-11.64384-.07358Z" style="fill:#fff; stroke-width:0px;"/><path d="M140.35461,67.55406c-.58511,1.19524-2.28444,2.31986-4.76619,2.29034l-4.97791-.02029c-2.25702-.02498-3.11094-1.11455-2.44479-2.50986l.03367-.07635c3.79741-7.73728,16.29967-13.63885,28.10368-13.55938l12.44067.06925c3.49166.02186,5.25883,1.95232,4.18106,4.13994-1.17927,2.40957-4.67942,3.9444-8.1992,3.92096l-12.51702-.07792c-4.94857-.0295-10.23672,2.52565-11.82882,5.76884l-.02516.05448Z" style="fill:#fff; stroke-width:0px;"/><path d="M125.10181,74.18583l.06299-.12634c.65852-1.34221,2.79322-2.24505,4.83403-2.23309l5.12054.02049c1.85968.02498,3.06965.95559,2.40818,2.3509l-.0486.09128-.78206,1.63339-3.66814,7.47422c-1.06283,2.1949-4.64577,4.09744-8.03574,4.074-3.47848-.02099-5.51184-1.89054-4.41222-4.13161l3.46234-7.01405,1.05867-2.1392Z" style="fill:#fff; stroke-width:0px;"/><path d="M60.13476,65.22102l-12.1684-.07825c-3.32282.06471-6.8249,1.99675-7.73903,4.27529-.9129,2.27733,1.10553,4.03427,4.51026,3.92999l18.52114.12772c4.41081.03088,8.43623-1.95511,9.29326-4.44415l.03975-.08677c3.41513-8.78571-4.31799-15.79384-17.92421-15.88235-12.41899-.08207-25.40469,5.39853-31.56759,13.05963l-.09144.10603c-1.28478,1.38768-.29969,2.58118,1.59538,2.56834l6.09522.03973c1.57907-.01788,3.23293-.77201,4.00598-1.69082l.28997-.33942c3.21939-3.82552,9.51486-6.27619,15.76729-6.23212,4.94875.02793,8.38158,1.84942,9.32834,4.51181l.04407.13535Z" style="fill:#fff; stroke-width:0px;"/><path d="M113.10067,82.941c2.00682-.9471,3.30946-1.81732,4.15176-3.09463,1.59364-2.44079-.31165-4.19911-3.59143-4.35026-1.9952-.08989-4.31365.86121-5.68554,1.62436l-.6351.31147c-4.02665,1.87458-6.07753,2.43924-10.75714,2.52166-6.32012.10446-10.08229-2.75678-9.54419-6.59514l-.00174-.07946c.16468-1.10866-.98475-1.8012-2.58864-1.81421l-5.35445-.03229c-2.42432-.0177-4.24597,1.27767-4.49601,2.24038l-.04686.09128-.00416.0852c-1.37501,7.69477,6.15092,13.53284,18.57093,13.61386,6.49086.04129,13.19915-1.4982,18.99903-4.07382l.98353-.4484Z" style="fill:#fff; stroke-width:0px;"/><path d="M42.19441,79.21837c-6.24966-.03973-10.08247-2.81248-9.54142-6.65847v-.06004c.19851-.89834-.73817-1.75711-2.30075-1.76596l-6.0909-.04112c-1.7453-.00869-3.81232,1.06024-4.04451,2.19213l-.02811.09092-.02793.13847c-1.37311,7.69339,6.153,13.53438,18.56833,13.61663l11.53781.07358c3.17568.01908,6.5044-1.70402,7.55822-3.84599,1.0349-2.11267-.89365-3.65044-4.34297-3.67404l-11.28777-.06612Z" style="fill:#fff; stroke-width:0px;"/><path d="M124.5736,58.35085c1.07186.96601,1.51002,1.84647,1.09268,3.12829-.79699,2.44376-4.41481,4.17102-7.82283,4.27392-2.07013.0661-3.51942-.97747-4.13422-1.75399l-.24848-.25145c-2.16715-1.91552-3.65027-2.50327-8.2242-2.64156-6.17331-.19123-12.59023,2.54456-15.81154,6.36713l-.11921.12044c-1.03057,1.2367-3.02558,1.73801-4.54861,1.77028l-5.32355-.03522c-2.58744-.01493-2.8885-1.44824-1.99225-2.49788l.10446-.13067.10482-.13117c6.16133-7.6625,19.0738-13.05199,31.49088-12.97287,6.48912.04129,11.64661,1.6601,14.89136,4.29611l.54069.45863Z" style="fill:#fff; stroke-width:0px;"/><path d="M38.61147,43.39911c-.07497-.55875,1.23826-.83206,1.23826-.83206,19.5885-4.85001,36.335,2.21123,38.46379,1.19802,46.1603-21.94807,97.62663-5.19705,101.12696-3.94733.30003.1088.49836.36041.53966.56464.1029.43207-.22765.35868-.22765.35868l-.10187-.025s-64.01267-14.59567-101.08409,9.70332c-1.19558.78364-16.22662-10.18814-38.6125-6.73934-1.13502.17786-1.31723-.12667-1.34257-.28094Z" style="fill:#fff; stroke-width:0px;"/><path d="M107.30236,45.87183c10.22492-6.01713,29.92794-6.27169,29.92794-6.27169,20.86354-.75276,40.89729,4.26627,40.89729,4.26627.78954,1.02813-17.49196-.32449-17.49196-.32449-35.05038-2.78454-53.01278,2.60929-53.01278,2.60929-.49263.16347-.48968-.17925-.3205-.27938Z" style="fill:#fff; stroke-width:0px;"/><path d="M107.30236,45.87183c10.22492-6.01713,29.92794-6.27169,29.92794-6.27169,20.86354-.75276,40.89729,4.26627,40.89729,4.26627.78954,1.02813-17.49196-.32449-17.49196-.32449-35.05038-2.78454-53.01278,2.60929-53.01278,2.60929-.49263.16347-.48968-.17925-.3205-.27938Z" style="fill:#fff; stroke-width:0px;"/></svg>