<?xml version="1.0" encoding="UTF-8"?><svg id="uuid-85c8a82b-e293-4c20-82d3-51f564be7af0" xmlns="http://www.w3.org/2000/svg" width="200" height="120" viewBox="0 0 200 120"><path d="M185.20828,32.5H14.79075c-2.43259,0-4.41202,1.97919-4.41202,4.4119v31.18086c0,2.43259,1.97943,4.41202,4.41202,4.41202h170.41754c2.43356,0,4.41299-1.97943,4.41299-4.41202v-31.18086c0-2.43271-1.97943-4.4119-4.41299-4.4119ZM34.51452,55.97453h-9.92194v3.22465h9.92194v5.2916h-16.61922v-14.63469h16.61922v6.11843ZM34.51452,46.7141h-16.61922v-6.03577h16.61922v6.03577ZM52.29097,64.69792h-8.59892l-7.73003-23.93693h7.15142l4.96097,17.15699,4.87831-17.11542h6.78043l-7.44218,23.89536ZM77.46875,64.49079h-16.61922v-14.55215h16.61922v5.95324h-9.83977l.04133,3.30731h9.83879l-.04036,5.2916ZM77.50911,46.63144h-16.7014v-5.95311h16.7014v5.95311ZM96.6922,57.95882l-.08266,6.61487-6.69777-.0829v-6.28399c.16532-1.40544-.90924-2.39758-2.23227-2.31492-1.32254.08266-7.68919,0-7.68919,0v-5.95324h9.75614c1.571-.41341,1.90163-3.14187-.33112-3.38985h-9.42502v-5.87046h9.17753s8.2148-.58019,8.18562,6.36641c.02917,4.79444-4.46502,6.69728-4.46502,6.69728,4.21656.49619,3.80375,4.2168,3.80375,4.2168ZM188.29825,68.09275c0,1.70325-1.38623,3.089-3.08997,3.089h-85.04394v-37.35873h85.04394c1.70374,0,3.08997,1.3855,3.08997,3.08888v31.18086ZM72.7081,87.35705h1.46549v-8.33878h-1.46549v8.33878ZM64.74469,79.01826h-3.28689v8.33878h1.46451v-2.68032h1.65609c1.83502,0,3.33551-.97683,3.33551-2.8471v-.02383c0-1.67967-1.22724-2.78754-3.16922-2.78754ZM66.42509,81.86536c0,.86962-.69141,1.48907-1.79904,1.48907h-1.70374v-3.00196h1.70374c1.09595,0,1.79904.51224,1.79904,1.48907v.02383ZM123.52461,83.80711h4.18155v-1.31038h-4.18155v-2.16808h4.71737v-1.31038h-6.18286v8.33878h6.24315v-1.31038h-4.77766v-2.23956ZM82.83037,82.52055c-1.59677-.3812-1.97797-.6671-1.97797-1.31038v-.02383c0-.54798.50081-.98874,1.35852-.98874.7624,0,1.51314.29781,2.2629.8577l.78671-1.10787c-.84603-.67902-1.81071-1.0483-3.0253-1.0483-1.65609,0-2.84734.98874-2.84734,2.41825v.02383c0,1.53672,1.00065,2.06087,2.77538,2.48972,1.54815.35738,1.88267.67902,1.88267,1.27464v.02383c0,.63137-.5718,1.0483-1.47813,1.0483-1.03566,0-1.83405-.39311-2.63243-1.08404l-.88104,1.0483c1.00065.89344,2.20358,1.33421,3.47846,1.33421,1.75042,0,2.97765-.92918,2.97765-2.48972v-.02383c0-1.38186-.91702-2.01322-2.68008-2.44207ZM102.53324,87.35705h1.46549v-8.33878h-1.46549v8.33878ZM94.36852,86.15388c-1.59677,0-2.75204-1.33421-2.75204-2.96622v-.02383c0-1.63202,1.15527-2.9424,2.75204-2.9424.953,0,1.66776.41694,2.33486,1.03639l.94133-1.08404c-.79838-.7624-1.72805-1.29847-3.26452-1.29847-2.52546,0-4.30019,1.94175-4.30019,4.31234v.02383c0,2.39442,1.81071,4.28852,4.24087,4.28852,1.55981,0,2.51282-.5718,3.38316-1.47716l-.94133-.953c-.71475.6671-1.37019,1.08404-2.39418,1.08404ZM115.2646,84.78394l-4.46745-5.76567h-1.35852v8.33878h1.44215v-5.93245l4.59776,5.93245h1.22724v-8.33878h-1.44118v5.76567ZM136.46796,82.52055c-1.5958-.3812-1.977-.6671-1.977-1.31038v-.02383c0-.54798.49984-.98874,1.35754-.98874.7624,0,1.51314.29781,2.26387.8577l.78574-1.10787c-.84603-.67902-1.81071-1.0483-3.02627-1.0483-1.65512,0-2.84637.98874-2.84637,2.41825v.02383c0,1.53672,1.00065,2.06087,2.77538,2.48972,1.54912.35738,1.8817.67902,1.8817,1.27464v.02383c0,.63137-.5718,1.0483-1.47618,1.0483-1.03663,0-1.83502-.39311-2.6334-1.08404l-.88104,1.0483c1.00065.89344,2.20358,1.33421,3.47846,1.33421,1.75139,0,2.97765-.92918,2.97765-2.48972v-.02383c0-1.38186-.91702-2.01322-2.68008-2.44207ZM174.70822,63.46339c.1799.18647.39384.33307.64036.43906.24652.10648.51443.15948.80325.15948s.55576-.05397.80033-.16216c.24457-.10843.45754-.25576.63744-.44222.18088-.18671.32237-.40405.42399-.653.10259-.24846.15365-.51516.15365-.80009,0-.28882-.05105-.55746-.15365-.80641-.10162-.24846-.24214-.46386-.42107-.64668-.17845-.18233-.39093-.32674-.63744-.43323-.24652-.106-.51443-.15924-.80325-.15924s-.5577.05203-.80616.15632c-.24895.10454-.46337.24895-.64376.43323-.18039.18452-.32188.40211-.42399.65276-.10259.25065-.15365.52051-.15365.80908,0,.28493.05203.55162.15608.80057.10502.24846.247.46605.42788.65252ZM175.32767,60.68072h.99871c.30049,0,.52026.06224.65835.18671.13906.12423.2081.30681.2081.54749,0,.10819-.01799.20349-.05446.28566-.03598.08217-.08509.15146-.14733.20762s-.1342.10211-.21637.13833c-.08266.03598-.17164.06005-.26791.0722l.79401,1.22116h-.25235l-.80033-1.22724h-.6919v1.22724h-.22853v-2.65917ZM176.42265,61.8992c.10016-.00997.1906-.03209.27083-.06637.08023-.03379.14538-.08412.19498-.15024.05057-.06637.07537-.15729.07537-.27375,0-.10016-.01994-.18452-.05981-.25259-.04036-.06831-.09238-.1235-.15656-.16556s-.13614-.07123-.21686-.08728c-.07974-.01605-.15997-.02407-.24068-.02407h-.73372v1.03469h.56548c.10016,0,.20081-.00462.30097-.01483ZM161.51495,65.06964h17.69427v-6.36641h-10.58321v-3.55553h10.58321v-6.44931h-17.69427v16.37125ZM174.07321,61.13218c.11815-.27302.27861-.51054.48136-.71305.20227-.20251.44004-.36321.71281-.48136s.56597-.17747.87813-.17747c.31313,0,.60584.05932.8791.17747.27229.11815.51005.27885.71281.48136.20227.20251.36272.44004.48136.71305.11767.27277.17747.56548.17747.87813,0,.31289-.05981.60584-.17747.87861-.11864.27277-.27909.51029-.48136.71281-.20276.20251-.44052.36321-.71281.48136-.27326.1184-.56597.17747-.8791.17747-.31216,0-.60535-.05908-.87813-.17747-.27277-.11815-.51054-.27885-.71281-.48136-.20276-.20251-.36321-.44004-.48136-.71281s-.17796-.56572-.17796-.87861c0-.31264.05981-.60535.17796-.87813ZM114.05535,40.09948h-12.07203v6.36653h9.59179c1.73631,0,1.73631,2.81124-.08266,2.8939h-9.59179v6.36665h9.50865c1.7368.24798,1.32302,2.81112-.24798,2.89402-1.571.08266-9.17801,0-9.17801,0v6.53172h8.02079c15.04822,1.07505,11.74091-12.40242,8.35045-12.81584,5.37426-3.55529,2.81136-11.74091-4.29921-12.23698ZM152.91652,58.53767h-3.96858c-1.48883,0-1.98478-.74417-2.15009-3.47263-.00681-.11645,0-14.96557,0-14.96557h-7.11058v20.25717c0,.82683.49546,1.81922.49546,1.81922,0,0,1.48883,2.89378,5.37475,2.89378-.15511,0,14.55227,0,14.55227,0v-24.97016h-7.19324v18.4382ZM179.12656,40.18214h-17.61161v5.62248h17.61161v-5.62248ZM129.60001,40.09948h-7.0284v24.97016h15.62732v-6.53197h-8.59892v-18.4382Z" style="fill:#fff; stroke-width:0px;"/></svg>