<?xml version="1.0" encoding="UTF-8"?><svg id="uuid-f0977c38-75b3-4aa1-893f-de814159ac00" xmlns="http://www.w3.org/2000/svg" width="200" height="120" xmlns:xlink="http://www.w3.org/1999/xlink" viewBox="0 0 200 120"><defs><linearGradient id="uuid-d5af9c1b-c9b7-4fd2-bf70-75c2be77b90b" x1="3926.46946" y1="4029.07911" x2="229937.68288" y2="238437.87813" gradientUnits="userSpaceOnUse"><stop offset="0" stop-color="#fff"/><stop offset=".11091" stop-color="#707072"/><stop offset="1" stop-color="#57575a"/></linearGradient></defs><path d="M180.98446,48.1413c-.1947.21574-.40641.43953-.31018.34241l-22.92204,22.2981-1.36605,1.41125c-.33256.34644-.73763.67631-1.1888.9847-.427.32406-.89115.60693-1.3929.85221-.03044.01477-.06042.02865-.08952.04207-.02999.01455-.06266.02551-.09265.03961h22.62305c4.21228,0,6.23763-3.01609,6.25464-5.98317v-22.4618c-.03581.09523-.06803.1928-.10742.28568-.34509.82111-.82491,1.5462-1.40812,2.18894ZM153.27767,73.01976c.03178-.01567.06042-.03446.0922-.05035-.31689.15957-.64632.30548-.9941.43215.01432-.00537.03044-.00895.04476-.01432.01343-.00515.0282-.01119.04342-.01701.24931-.09399.48966-.19537.7242-.30839.02909-.01343.05908-.0273.08952-.04207ZM182.5,41.90792v-.22782c0,.23062-.01164.45363-.0273.6743.01522-.14826.0273-.29675.0273-.44647ZM63.08805,59.52041c0,1.69727,1.42692,2.43266,3.27771,2.43266,1.58223,0,2.81624-.69802,3.62683-1.77559.84863-1.12077,1.07959-2.54747,1.07959-4.09031h-2.23796c-2.3127,0-5.74618.3856-5.74618,3.43325ZM166.75106,51.81602c-.69556.03223-1.36739.04744-2.00163.04744-3.30233,0-4.96021.85356-5.32275,3.54873-.05192.38515-.07743.80768-.07743,1.27071,0,.7712-.01567,1.51532-.04118,2.24243-.00313.09153-.00492.1853-.0085.27594-.02775.6781-.06982,1.33181-.12309,1.9694-.01029.126-.02059.25244-.03223.37665-.05684.61074-.12712,1.20066-.21082,1.77179-.0188.12846-.03939.2549-.05998.38135-.08907.55725-.19112,1.09705-.30973,1.61401-.0009.00425-.00224.0085-.00313.01276-.02507.10832-.05371.21216-.08012.31868-.12309.49929-.25916.98201-.41357,1.44057-.01522.04498-.02954.09041-.04476.13472-.01522.04386-.03312.08459-.04879.12801-.15352.43125-.3245.8408-.50936,1.23378-.04252.09064-.08191.18575-.12622.2746-.19918.39836-.42118.76941-.65617,1.12524-.0649.09847-.12891.19806-.19694.29317-.23991.33659-.49996.65035-.77702.94464-.33435.35539-.69108.68549-1.08228.97754.01477-.01074.03088-.01969.04521-.03066.45117-.30861.85624-.63849,1.1888-.9847l1.35575-1.40074,22.93233-22.30861c-.00448.00448-.00985.00828-.01432.01276.00403-.00425.00806-.00918.01746-.01947-3.12821,3.11479-8.79964,4.13462-13.39954,4.34924ZM182.47001,34.33087c-.29854-2.91628-2.78044-5.21198-5.77079-5.21198H23.30123c-3.18998,0-5.80123,2.61214-5.80123,5.80302v33.20656c.01701,2.96708,2.04281,5.98317,6.25419,5.98317h125.22616c.78866,0,1.68518-.16606,2.58215-.44961.18306-.04968.35583-.1119.53174-.17031-.97038.32115-2.07011.50936-3.29159.57583,8.86007-.82424,7.63814-13.46265,7.63814-17.2759,0-4.10508,2.32524-7.43292,7.05672-7.43292,4.87427,0,19.00248.43483,19.00248-7.67865v-6.75818c0-.1994-.01029-.39657-.02999-.59104ZM113.63631,37.57031c1.40365,0,2.54187,1.13867,2.54187,2.54265,0,1.40443-1.13822,2.54243-2.54187,2.54243-1.40499,0-2.54232-1.138-2.54232-2.54243,0-1.40398,1.13733-2.54265,2.54232-2.54265ZM46.5236,43.85695c-1.78231-.63133-4.89754-1.73162-8.09916-1.73162-6.2891,0-9.76107,4.24059-9.76107,9.75872,0,5.48008,3.39408,9.60374,9.14115,9.60374,1.46765,0,2.62467-.1533,3.5494-.38493v-7.02091h-5.70768v-4.24428h10.87736v14.50553c-2.85474.77075-5.82406,1.38865-8.71908,1.38865-8.71549,0-14.77096-4.35931-14.77096-13.46175,0-9.21926,5.6298-14.75081,14.77096-14.75081,3.75216,0,6.40413.78619,8.71908,1.48041v4.85726ZM55.68713,65.26815h-5.16923v-24.61002l5.16923-1.65844v26.26845ZM71.53499,65.26815c-.19336-1.04177-.19336-2.35321-.23096-2.96977h-.07788c-1.19462,2.19991-3.78035,3.43347-6.13289,3.43347-3.50956,0-6.94303-2.12046-6.94303-5.90216,0-2.97111,1.42737-4.70664,3.39408-5.66919,1.96761-.96478,4.51261-1.15792,6.67224-1.15792h2.85563c0-3.20117-1.42737-4.28255-4.47502-4.28255-2.19857,0-4.54976.84863-6.28507,2.1594v-4.43518c2.00342-.92584,4.70284-1.50626,6.90365-1.50626,6.05457,0,8.56376,2.50998,8.56376,8.3723v2.54679c0,2.00454.03625,3.50755.0743,4.97542.03939,1.50323.11503,2.89122.23275,4.43563h-4.55155ZM84.63241,65.73185c-1.96806,0-3.98848-.4637-5.86479-.4637l-.24304-3.89852c1.62341,0,3.86898.58344,5.64412.58344,1.31189,0,3.39498-.50555,3.39498-2.43266,0-3.89471-8.98808-1.23513-8.98808-8.40912,0-4.28121,3.74231-6.17329,7.79211-6.17329,2.42952,0,4.04354.46404,5.63114.46404l-.04431,3.78035c-1.49137,0-3.04093-.46236-4.92977-.46236-1.39156,0-3.04854.50041-3.04854,2.19946,0,3.16246,8.98853,1.15568,8.98853,8.33191,0,4.62742-4.13082,6.48045-8.33236,6.48045ZM108.19629,65.26815c-1.08183.30861-2.27869.4637-3.82019.4637-4.05025,0-6.28866-2.50852-6.28866-6.44151v-10.10795h-3.8193v-3.78035h3.8193v-3.97349l5.16878-1.65765v5.63114h4.59049v3.78035h-4.59049v9.25887c0,1.6957.46594,3.27749,2.43176,3.27749.92428,0,1.96672-.1909,2.5083-.54002v4.08942ZM116.24666,65.26815h-5.16878v-18.20711l5.16878-1.659v19.86611ZM138.35319,65.26815h-5.16968v-10.60791c0-2.42975-.04028-5.70701-3.3547-5.70701-3.7432,0-4.55155,4.04936-4.55155,6.59526v9.71967h-5.16968v-19.86611h4.89889v2.70121h.07833c1.61759-2.27622,3.81616-3.16525,6.51693-3.16525,4.70642,0,6.75146,3.31878,6.75146,7.79424v12.53591ZM154.24984,65.26815c-1.07869.30861-2.27645.4637-3.8175.4637-4.0507,0-6.28955-2.50852-6.28955-6.44151v-10.10795h-3.81661v-3.78035h3.81661v-3.97349l5.16968-1.65765v5.63114h4.59049v3.78035h-4.59049v9.25887c0,1.6957.46236,3.27749,2.43176,3.27749.92517,0,1.96582-.1909,2.50562-.54002v4.08942ZM68.41797,87.47493c-.55367,0-.68392-.44513-.68392-.92271v-2.60565h1.29175v-1.06213h-1.29175v-1.58425l-1.45243.46639v1.11786h-1.07467v1.06213h1.07467v2.84467c0,1.10645.62842,1.81095,1.76709,1.81095.43416,0,.77075-.04319,1.07467-.13025l-.04342-1.14919c-.15173.09802-.40149.15218-.66199.15218ZM62.92692,84.15291h-.02148v-1.26847h-1.29041v5.5875h1.45288v-2.05109c0-.80298,0-2.27891,1.18298-2.27891.2605,0,.52055.04342.6508.11951v-1.46407c-.15129-.04319-.30347-.04319-.44491-.04319-.86833,0-1.46497.87817-1.52987,1.39872ZM81.53955,83.53591h-.02148c-.43461-.53263-.94486-.78172-1.6722-.78172-1.71427,0-2.34359,1.36605-2.34359,2.90778,0,1.53054.62931,2.94023,2.34359,2.94023.68392,0,1.28101-.21663,1.71517-.75867h.02148v.62842h1.40991v-8.13788h-1.45288v3.20184ZM80.2478,87.47493c-.95605,0-1.22729-1.04222-1.22729-1.81297,0-.74927.2605-1.78052,1.20536-1.78052.93368,0,1.30249.99902,1.30249,1.78052,0,.79268-.31466,1.81297-1.28056,1.81297ZM71.18542,84.43534c0-.4778.46684-.61902.85803-.61902.53174,0,.85758.08706,1.3016.23879l.09802-1.09593c-.45565-.09668-.90011-.205-1.58403-.205-1.14001,0-2.19185.53107-2.19185,1.73553,0,2.01908,2.52844,1.26982,2.52844,2.36619,0,.54293-.58634.68414-.95605.68414-.49862,0-.9762-.14122-1.4314-.36882l-.08683,1.19238c.53129.14122,1.09526.23857,1.64848.23857,1.18388,0,2.34403-.5201,2.34403-1.82192,0-2.01931-2.52844-1.4549-2.52844-2.34493ZM39.08508,82.75419c-1.73621,0-2.5929,1.3336-2.5929,2.95119,0,1.83468,1.07332,2.89681,2.91874,2.89681.78194,0,1.38932-.15151,1.92017-.44446v-1.18254c-.54203.30436-1.14897.56486-1.85527.56486-.90055,0-1.53076-.5107-1.59611-1.41215h3.86361c0-1.95306-.58545-3.37372-2.65824-3.37372ZM37.87972,85.1309c.06535-.74972.47803-1.31458,1.29264-1.31458.81417,0,1.14001.6085,1.18343,1.31458h-2.47607ZM25.21602,82.75419c-1.73621,0-2.5929,1.3336-2.5929,2.95119,0,1.83468,1.07332,2.89681,2.91874,2.89681.78194,0,1.38932-.15151,1.92061-.44446v-1.18254c-.54248.30436-1.14941.56486-1.85571.56486-.90055,0-1.53076-.5107-1.59566-1.41215h3.86316c0-1.95306-.58545-3.37372-2.65824-3.37372ZM24.01111,85.1309c.0649-.74972.47758-1.31458,1.2922-1.31458.81417,0,1.14001.6085,1.18343,1.31458h-2.47563ZM30.17533,84.43534c0-.4778.46684-.61902.85803-.61902.53174,0,.85714.08706,1.3016.23879l.09757-1.09593c-.45565-.09668-.90011-.205-1.58358-.205-1.14001,0-2.19185.53107-2.19185,1.73553,0,2.01908,2.52844,1.26982,2.52844,2.36619,0,.54293-.58679.68414-.95605.68414-.49906,0-.9762-.14122-1.4314-.36882l-.08683,1.19238c.53174.14122,1.09481.23857,1.64848.23857,1.18388,0,2.34403-.5201,2.34403-1.82192,0-2.01931-2.52844-1.4549-2.52844-2.34493ZM57.7832,82.75419c-1.73621,0-2.59245,1.3336-2.59245,2.95119,0,1.83468,1.07288,2.89681,2.91874,2.89681.78149,0,1.38888-.15151,1.92061-.44446v-1.18254c-.54248.30436-1.14986.56486-1.85571.56486-.901,0-1.53121-.5107-1.59611-1.41215h3.86316c0-1.95306-.585-3.37372-2.65824-3.37372ZM56.57829,85.1309c.0649-.74972.47758-1.31458,1.2922-1.31458.81417,0,1.14001.6085,1.18388,1.31458h-2.47607ZM19.20353,80.89848h-1.51823v7.57347h4.4589v-1.19238h-2.94067v-6.38108ZM52.06478,82.75419c-.85803,0-1.4117.37933-1.73755.92137h-.02148v-.79112h-1.38753v7.86641h1.45288v-2.91919h.02148c.51025.61902,1.02051.77053,1.63953.77053,1.74695,0,2.37581-1.40969,2.37581-2.94023,0-1.54173-.62887-2.90778-2.34314-2.90778ZM51.66284,87.47493c-.9659,0-1.28101-1.02028-1.28101-1.81297,0-.78149.36926-1.78052,1.30294-1.78052.94486,0,1.20536,1.03125,1.20536,1.78052,0,.77075-.27169,1.81297-1.22729,1.81297ZM47.85384,82.88444h-1.54061l-1.07467,1.82192-1.09615-1.82192h-1.71472l1.72591,2.65824-1.92061,2.92926h1.59477l1.25863-2.08197,1.24788,2.08197h1.73665l-1.88839-2.92881,1.67131-2.65869ZM88.17017,85.61922c0,.71615-.22782,1.85571-1.28145,1.85571-.93368,0-.94486-.92226-.94486-1.60618v-2.98431h-1.45243v3.52679c0,1.25863.57426,2.19096,1.89823,2.19096.75956,0,1.38977-.34688,1.83468-.88847h.02193v.75822h1.37679v-5.5875h-1.45288v2.73478ZM101.40946,88.47194h1.45333v-8.13788h-1.45333v8.13788ZM158.27368,87.47493c-.55322,0-.68347-.44513-.68347-.92271v-2.60565h1.2913v-1.06213h-1.2913v-1.58425l-1.45288.46639v1.11786h-1.07422v1.06213h1.07422v2.84467c0,1.10645.62887,1.81095,1.76754,1.81095.43416,0,.7703-.04319,1.07467-.13025l-.04386-1.14919c-.15173.09802-.40104.15218-.66199.15218ZM148.96334,86.95394h-.02148l-1.38932-4.0695h-1.56299l2.07279,5.5875h1.63863l2.0616-5.5875h-1.45378l-1.34546,4.0695ZM152.67521,81.86326h1.45333v-1.38798h-1.45333v1.38798ZM152.67521,88.47194h1.45333v-5.5875h-1.45333v5.5875ZM161.22555,84.15291h-.02148v-1.26847h-1.29041v5.5875h1.45288v-2.05109c0-.80298,0-2.27891,1.18298-2.27891.2605,0,.52055.04342.65125.11951v-1.46407c-.15173-.04319-.30391-.04319-.44535-.04319-.86788,0-1.46497.87817-1.52987,1.39872ZM168.70256,85.82467v-.71637c0-1.64937-.70451-2.35411-2.40804-2.35411-.61902,0-1.37903.1627-1.94299.42275l.04342,1.24788c.48832-.36926,1.10689-.6085,1.72546-.6085.85803,0,1.25997.30436,1.25997,1.20626h-.80387c-.60783,0-1.32487.05416-1.87764.32473-.55322.27102-.95426.75934-.95426,1.59566,0,1.06303.96501,1.65922,1.95239,1.65922.66243,0,1.38977-.34688,1.72636-.96456h.02193c.01029.17344.01029.54203.06535.83431h1.27877c-.03223-.43349-.05416-.82357-.0649-1.24654-.01119-.41268-.02193-.83588-.02193-1.40074ZM167.07601,87.04032c-.22782.30436-.57515.49974-1.02096.49974-.521,0-.92293-.20634-.92293-.68414,0-.85826.9668-.96657,1.61804-.96657h.63021c0,.43416-.06535.83632-.30436,1.15098ZM179.00208,82.75419c-1.73665,0-2.5929,1.3336-2.5929,2.95119,0,1.83468,1.07288,2.89681,2.91874,2.89681.78149,0,1.38932-.15151,1.92017-.44446v-1.18254c-.54203.30436-1.14941.56486-1.85527.56486-.901,0-1.53076-.5107-1.59566-1.41215h3.86271c0-1.95306-.585-3.37372-2.6578-3.37372ZM177.79716,85.1309c.0649-.74972.47713-1.31458,1.29175-1.31458.81417,0,1.14001.6085,1.18388,1.31458h-2.47563ZM173.88074,83.64423h-.02193c-.40194-.64095-.97709-.89003-1.71562-.89003-1.67086,0-2.36462,1.5509-2.36462,2.89703,0,1.49809.62887,2.82072,2.27779,2.82072.81462,0,1.46586-.41178,1.7371-.88847h.02193c0,.96456-.07609,2.17037-1.68294,2.17037-.4561,0-1.18298-.24976-1.62744-.48877l-.11951,1.23669c.69421.29272,1.3562.37933,1.93136.37933,2.34448,0,2.95186-1.43117,2.95186-2.95119v-5.04547h-1.38798v.75979ZM172.53394,87.34469c-.83565,0-1.23714-.9339-1.23714-1.69346,0-.85826.31466-1.76978,1.30249-1.76978.84684,0,1.21611.78127,1.21611,1.73643,0,.93435-.36926,1.72681-1.28145,1.72681ZM140.64038,85.61922c0,.71615-.22782,1.85571-1.28145,1.85571-.93368,0-.94486-.92226-.94486-1.60618v-2.98431h-1.45243v3.52679c0,1.25863.57426,2.19096,1.89823,2.19096.75956,0,1.38932-.34688,1.83468-.88847h.02193v.75822h1.37679v-5.5875h-1.45288v2.73478ZM110.80754,82.75419c-.68437,0-1.4117.31421-1.74829.98649-.31421-.69354-.86743-.98649-1.64848-.98649-.54293,0-1.20536.2276-1.66101.91062h-.02193v-.78038h-1.35531v5.5875h1.45243v-2.71285c0-.72734.11951-1.87764,1.0863-1.87764.8361,0,.8361.73808.8361,1.25907v3.33142h1.45288v-2.71285c0-.72734.11951-1.87764,1.0863-1.87764.8361,0,.8361.73808.8361,1.25907v3.33142h1.45243v-3.52679c0-1.24811-.3903-2.19096-1.76754-2.19096ZM98.3927,81.86326h1.45333v-1.38798h-1.45333v1.38798ZM98.3927,88.47194h1.45333v-5.5875h-1.45333v5.5875ZM119.29342,82.75419c-1.73665,0-2.5929,1.3336-2.5929,2.95119,0,1.83468,1.07332,2.89681,2.91874,2.89681.78194,0,1.38888-.15151,1.92061-.44446v-1.18254c-.54248.30436-1.14986.56486-1.85527.56486-.90145,0-1.53121-.5107-1.59656-1.41215h3.86361c0-1.95306-.58545-3.37372-2.65824-3.37372ZM118.08805,85.1309c.06535-.74972.47803-1.31458,1.2922-1.31458.81462,0,1.14001.6085,1.18343,1.31458h-2.47563ZM96.76347,81.33108c.31466,0,.49906.11951.62976.1956l.11906-1.20357c-.28198-.06512-.69421-.11928-1.06303-.11928-1.14986,0-1.77873.78082-1.77873,1.89846v.78217h-1.07422v1.06213h1.07422v4.52537h1.45288v-4.52537h1.27071v-1.06213h-1.27071v-.69511c0-.43439.15173-.85826.64006-.85826ZM134.00977,83.53591h-.02148c-.43461-.53263-.94486-.78172-1.6722-.78172-1.71472,0-2.34314,1.36605-2.34314,2.90778,0,1.53054.62842,2.94023,2.34314,2.94023.68347,0,1.28101-.21663,1.71517-.75867h.02193v.62842h1.40946v-8.13788h-1.45288v3.20184ZM132.71757,87.47493c-.95561,0-1.22685-1.04222-1.22685-1.81297,0-.74927.2605-1.78052,1.20492-1.78052.93412,0,1.30339.99902,1.30339,1.78052,0,.79268-.3151,1.81297-1.28145,1.81297ZM125.70695,87.47493c-.55412,0-.68392-.44513-.68392-.92271v-2.60565h1.2913v-1.06213h-1.2913v-1.58425l-1.45288.46639v1.11786h-1.07467v1.06213h1.07467v2.84467c0,1.10645.62887,1.81095,1.76709,1.81095.43416,0,.77075-.04319,1.07467-.13025l-.04342-1.14919c-.15218.09802-.40149.15218-.66154.15218Z" style="fill:url(#uuid-d5af9c1b-c9b7-4fd2-bf70-75c2be77b90b); stroke-width:0px;"/></svg>