<?xml version="1.0" encoding="UTF-8"?><svg id="uuid-d3a2f055-6c3f-4a7c-b3bf-186103bd5559" xmlns="http://www.w3.org/2000/svg" width="200" height="120" viewBox="0 0 200 120"><path d="M88.78206,64.26611l-2.46941-2.66959c-1.43074,1.72388-4.37071,4.02005-8.7691,4.02005-5.48629,0-28.02449.01352-28.02449.01352v3.11881h28.02449c6.40966,0,10.03215-3.18975,11.23852-4.48279Z" style="fill:#fff; stroke-width:0px;"/><path d="M92.22454,67.98658l-2.26237-2.44528c-1.45942,1.79123-6.06903,5.00596-11.88068,5.00596h-28.56244v3.11332s20.98112-.01009,28.56244-.01009c7.82001,0,12.80014-4.33712,14.14305-5.66392Z" style="fill:#fff; stroke-width:0px;"/><path d="M93.33457,69.18661c-1.2837,1.76123-8.40064,6.21148-14.50734,6.21148h-29.30818v3.11839h29.30818c8.45816,0,15.59154-5.82607,16.79199-6.86046l-2.28466-2.46941Z" style="fill:#fff; stroke-width:0px;"/><path d="M150.07699,65.63009s-22.53857-.01352-28.02491-.01352c-4.39527,0-7.33366-2.29358-8.76615-4.01673l-2.47697,2.66035c1.20167,1.29046,4.82543,4.48871,11.24311,4.48871h28.02491v-3.11881Z" style="fill:#fff; stroke-width:0px;"/><path d="M150.07699,70.54726h-28.56234c-5.82443,0-10.43948-3.22831-11.88882-5.0161l-2.27161,2.43857c1.31829,1.30815,6.30782,5.68077,14.16043,5.68077,7.58038,0,28.56234.01009,28.56234.01009v-3.11332Z" style="fill:#fff; stroke-width:0px;"/><path d="M150.07699,75.39809h-29.30861c-6.13115,0-13.28443-4.48749-14.52545-6.23509l-2.29654,2.46767c1.11425.9651,8.2967,6.88581,16.82199,6.88581h29.30861v-3.11839Z" style="fill:#fff; stroke-width:0px;"/><path d="M54.98601,97.22171c-.14039-.06417-.34195-.15201-.60472-.26193-1.32125-.56114-1.98174-1.18144-1.98174-1.8592,0-.43269.16648-.78425.49987-1.05637.33297-.27212.77157-.40728,1.31491-.40728.45012,0,.83458.09116,1.15318.27545.31855.18423.57419.46311.76692.83664l1.62216-1.55164c-.43269-.57799-.93092-1.00392-1.49497-1.27435-.5641-.27217-1.23468-.40908-2.01217-.40908-1.33863,0-2.42711.34147-3.26581,1.02261-.83881.68114-1.25845,1.5499-1.25845,2.6079,0,.77078.21634,1.43671.64903,1.99442.43237.55781,1.2098,1.12904,2.33209,1.7139.23367.12338.55264.28052.9558.47325,1.24519.60334,1.86771,1.20679,1.86771,1.81521,0,.51387-.18719.92458-.56125,1.22713-.37432.30423-.88265.4563-1.52581.4563-.53193,0-1.0111-.13516-1.43793-.40733-.42672-.27207-.73639-.64391-.92913-1.11885l-1.52581,1.72737c.34517.6372.86828,1.12561,1.56976,1.46534.70137.33804,1.54314.5088,2.52508.5088,1.38511,0,2.48838-.35827,3.30991-1.07501.82095-.71484,1.23167-1.67666,1.23167-2.88002,0-.8012-.26161-1.51441-.78462-2.13983-.52317-.62532-1.32854-1.1864-2.4157-1.68342Z" style="fill:#fff; stroke-width:0px;"/><polygon points="69.43197 96.96824 63.8645 96.96824 63.8645 91.82163 61.12001 91.82163 61.12001 104.65684 63.8645 104.65684 63.8645 99.29224 69.43197 99.29224 69.43197 104.65684 72.17598 104.65684 72.17598 91.82163 69.43197 91.82163 69.43197 96.96824" style="fill:#fff; stroke-width:0px;"/><rect x="75.77566" y="91.82163" width="2.74444" height="12.83521" style="fill:#fff; stroke-width:0px;"/><path d="M85.29436,91.82163h-3.15647v12.83521h2.76176v-4.90148h.7543c1.43201,0,2.55255-.35325,3.3622-1.05975.8096-.70819,1.2144-1.68348,1.2144-2.92909,0-1.3437-.40189-2.33758-1.20552-2.98149-.80368-.64227-2.04724-.96341-3.73066-.96341ZM86.92496,97.15252c-.33888.30925-.88275.46475-1.63061.46475h-.39471v-3.77086h.39471c.74785,0,1.29172.14541,1.63061.43443s.5088.7487.5088,1.38088c0,.68453-.16992,1.18139-.5088,1.4908Z" style="fill:#fff; stroke-width:0px;"/><path d="M99.33219,91.82163l-1.88963,3.49868c-.12893.25009-.24428.50875-.34649.77072-.10226.26367-.19437.54424-.27598.84166-.10511-.34976-.20784-.66081-.30709-.9296-.09935-.26869-.19569-.49015-.28907-.66588l-1.90278-3.51559h-3.21764l4.34885,6.97883v5.85639h2.74402v-5.85639l4.3489-6.97883h-3.2131Z" style="fill:#fff; stroke-width:0px;"/><path d="M106.75887,91.82163l-4.88342,12.83521h2.94557l.89453-2.72627h4.97179l1.04274,2.72627h3.12188l-4.95404-12.83521h-3.13904ZM106.48712,99.774l1.38511-4.09542c.03507-.10981.08794-.33128.15803-.66081.0702-.33133.14377-.70312.21893-1.1189.07009.43269.1377.79777.20198,1.09693.06423.29742.11657.50875.15719.63044l1.43835,4.14777h-3.55958Z" style="fill:#fff; stroke-width:0px;"/><path d="M124.69384,97.72206c.53162-.62537.79777-1.37919.79777-2.26147,0-1.21699-.38869-2.12631-1.16623-2.73139-.77749-.60503-1.94709-.90758-3.50713-.90758h-3.92799v12.83521h2.74486v-5.99678l3.3753,5.99678h3.16487l-3.54184-5.83954c.84177-.10479,1.52798-.46987,2.06039-1.09524ZM122.24725,96.92931c-.35663.2417-1.09012.36344-2.20057.36344h-.41156v-3.3753h.41156c1.05721,0,1.77807.13178,2.16095.39888.38272.26541.57461.71321.57461,1.34539,0,.60171-.17826,1.02425-.535,1.26759Z" style="fill:#fff; stroke-width:0px;"/><path d="M137.31536,93.07569c-.6026-.45128-1.3007-.77241-2.09504-.96504-.79523-.19273-1.88287-.28902-3.26211-.28902h-3.49863v12.83521h3.71835c1.37924,0,2.42711-.09122,3.14295-.27545.71579-.18423,1.36651-.48677,1.95047-.90768.78932-.57297,1.38849-1.2997,1.79746-2.1786.40908-.88059.61359-1.88963.61359-3.02881,0-1.12228-.20029-2.12456-.59996-3.00346-.40063-.88059-.98966-1.60906-1.76709-2.18715ZM135.87273,101.36098c-.65748.65415-1.7054.98205-3.14295.98205h-1.52539v-8.18895h1.52539c1.43756,0,2.48547.32784,3.14295.98538.65743.65743.98707,1.69357.98707,3.10825,0,1.42145-.32964,2.45922-.98707,3.11327Z" style="fill:#fff; stroke-width:0px;"/><path d="M149.69591,98.90514c-.52311-.62532-1.32854-1.1864-2.41612-1.68342-.14029-.06417-.34142-.15201-.60424-.26193-1.32088-.56114-1.9818-1.18144-1.9818-1.8592,0-.43269.16654-.78425.5004-1.05637.33291-.27212.77067-.40728,1.31491-.40728.44959,0,.83405.09116,1.15271.27545.3186.18423.57466.46311.76729.83664l1.62184-1.55164c-.43269-.57799-.9305-1.00392-1.49502-1.27435-.56452-.27217-1.23468-.40908-2.01222-.40908-1.33863,0-2.42711.34147-3.26623,1.02261-.83828.68114-1.2575,1.5499-1.2575,2.6079,0,.77078.21634,1.43671.64903,1.99442.43184.55781,1.20927,1.12904,2.33161,1.7139.23404.12338.55269.28052.9558.47325,1.24567.60334,1.86765,1.20679,1.86765,1.81521,0,.51387-.18761.92458-.56114,1.22713-.37438.30423-.88233.4563-1.52624.4563-.53162,0-1.01078-.13516-1.4375-.40733-.42677-.27207-.73608-.64391-.92881-1.11885l-1.52613,1.72737c.34474.6372.8687,1.12561,1.57013,1.46534.70148.33804,1.54314.5088,2.52514.5088,1.38426,0,2.48795-.35827,3.30938-1.07501.82143-.71484,1.23209-1.67666,1.23209-2.88002,0-.8012-.26193-1.51441-.78504-2.13983Z" style="fill:#fff; stroke-width:0px;"/><path d="M49.51905,63.83765c3.43192-.00338,20.70646-.01526,26.30013-.01526,5.44234,0,7.64809-1.69013,9.16249-3.7099l-2.9612-3.15563s-.56959-.57123-.77918-.79777c-.34401-.37179.78678-.66255.78678-.66255l14.3108-4.2102h-10.16055c-.30513,0-.17921-.2231-.17921-.2231l4.30411-5.32752s.35489-.48503.75213-.48503h17.553c.37696,0,.75044.48503.75044.48503l4.30828,5.33591s.13521.21471-.18423.21471h-10.12801l14.24699,4.2102s1.10036.27719.75382.66255c-.34485.38542-.74706.79777-.74706.79777l-2.95022,3.1691c1.51948,2.01977,3.69052,3.69644,9.12278,3.69644,5.59108,0,22.85632.01188,26.29585.01526-14.45605-25.3832-62.24646-49.75906-71.91348-48.81086-2.73652.26869,2.11685,21.47549.79264,22.62815-11.83468,10.29666-29.34251,26.09651-29.43711,26.18271ZM100.40884,34.96759h.87636c.92622,0,2.65697,3.28065,2.65697,3.28065h-3.53333v-3.28065ZM98.4355,34.96759h.87562v3.28065h-3.53344s1.72996-3.28065,2.65782-3.28065ZM92.38812,42.55827l2.0831-2.57251s.35489-.48514.75298-.48514h9.2132c.37686,0,.7496.48514.7496.48514l2.0916,2.58086s.13352.21471-.18508.21471h-14.52714c-.30508,0-.17826-.22305-.17826-.22305Z" style="fill:#fff; stroke-width:0px;"/><polygon points="50.98275 82.08278 50.98275 88.17928 54.1894 88.17928 54.1894 87.29188 51.97405 87.29188 51.97405 82.08278 50.98275 82.08278" style="fill:#fff; stroke-width:0px;"/><path d="M66.6504,88.17928v-3.94827h-.90393v.64565c-.10553-.25184-.27249-.44621-.50156-.57973-.22897-.13527-.50494-.20282-.82682-.20282-.52739,0-.95506.19432-1.28253.58142-.3279.38711-.49179.89575-.49179,1.52624,0,.66255.16057,1.18656.48123,1.56849.32071.38029.76016.57128,1.31797.57128.27761,0,.5239-.05578.73946-.16564.21508-.11155.40311-.28057.56405-.5088v.51218h.90393ZM65.46553,87.16685c-.20409.24846-.4686.37184-.79359.37184-.34385,0-.61047-.11493-.7994-.34147-.18893-.22812-.28316-.551-.28316-.97006,0-.41758.09761-.7421.29372-.97703.19564-.23488.46433-.35151.80585-.35151.34136,0,.60715.11324.79724.34136.1902.22648.28522.54424.28522.95332,0,.40221-.10173.72673-.30587.97355Z" style="fill:#fff; stroke-width:0px;"/><path d="M88.82346,81.93737c-.45556,0-.8789.07611-1.27023.22987-.39165.1555-.73861.38209-1.0411.6812-.30254.29747-.53368.64222-.69345,1.03603-.15967.39212-.23953.81303-.23953,1.25924,0,.44616.07986.86876.23953,1.26421.15978.39556.38795.73872.68495,1.03101.30001.29578.64782.52232,1.04332.67438.39545.15212.8265.22823,1.29304.22823.36672,0,.70644-.04738,1.02045-.14029.31385-.0947.60377-.23832.87039-.42931v-1.12059c-.30006.25855-.61311.45128-.93932.57804-.32621.12845-.66979.19268-1.03064.19268-.61898,0-1.132-.21465-1.53891-.64232-.40644-.42756-.61016-.97017-.61016-1.6276,0-.68114.20916-1.23384.62716-1.6615.4179-.42756.95992-.64222,1.62596-.64222.34432,0,.67264.06085.98485.17916.31274.12.60894.29916.88951.53748l.05409-.9989c-.30545-.21133-.62072-.36846-.94524-.47325-.32494-.10484-.66636-.15555-1.02467-.15555Z" style="fill:#fff; stroke-width:0px;"/><path d="M100.8035,82.12165c-.10696-.10648-.24122-.16057-.40226-.16057-.15555,0-.2895.05572-.40184.16728-.1124.11155-.16865.24344-.16865.39556,0,.15544.05625.28897.16865.40226.11234.11155.24629.16902.40184.16902.1584,0,.2915-.05578.4001-.16564.10817-.10981.16226-.24508.16226-.40564s-.05361-.29409-.16009-.40226Z" style="fill:#fff; stroke-width:0px;"/><rect x="99.95164" y="84.231" width=".90377" height="3.94827" style="fill:#fff; stroke-width:0px;"/><path d="M112.87776,84.25298c-.26282-.10648-.5426-.15888-.84002-.15888-.28902,0-.56447.0524-.82819.15888-.26367.10479-.49697.25691-.69974.45292-.2062.20118-.36334.42931-.47325.68627-.10991.25691-.164.52898-.164.818,0,.28907.05409.56119.16226.81641s.26705.48503.47499.69129c.20536.20282.43945.35658.70312.46311.26367.10817.53917.16057.82481.16057.2924,0,.56959-.0524.83326-.16057.26367-.10653.50368-.26367.72002-.47161.2062-.19775.3617-.42418.46903-.6794.10727-.25522.15972-.52903.15972-.81979,0-.28052-.05409-.54926-.16226-.80453-.10817-.25517-.2662-.48339-.47489-.68616-.20795-.2062-.44293-.3617-.70486-.46649ZM112.90987,87.14826c-.23663.25517-.5248.38198-.86368.38198-.33809,0-.62701-.12682-.86368-.38198-.23837-.25358-.35663-.56288-.35663-.9296,0-.36677.11826-.67776.35663-.93134.23668-.25353.52559-.38024.86368-.38024.34142,0,.63044.12671.86617.38024.23583.25358.35415.56457.35415.93134,0,.36672-.11831.67602-.35663.9296Z" style="fill:#fff; stroke-width:0px;"/><polygon points="124.31186 88.17928 124.31186 85.02365 125.00315 85.02365 125.00315 84.231 124.31186 84.231 124.31186 82.73693 123.40841 82.73693 123.40841 84.231 122.71717 84.231 122.71717 85.02365 123.40841 85.02365 123.40841 88.17928 124.31186 88.17928" style="fill:#fff; stroke-width:0px;"/><path d="M137.51469,88.17928v-3.94827h-.90335v.64565c-.10653-.25184-.27291-.44621-.50199-.57973-.22897-.13527-.50537-.20282-.82655-.20282-.52723,0-.9549.19432-1.2828.58142s-.4919.89575-.4919,1.52624c0,.66255.16062,1.18656.48176,1.56849.32029.38029.75974.57128,1.31745.57128.27804,0,.52401-.05578.73946-.16564.21471-.11155.40321-.28057.56457-.5088v.51218h.90335ZM136.32993,87.16685c-.20372.24846-.46903.37184-.79354.37184-.34401,0-.61016-.11493-.79946-.34147-.1893-.22812-.28311-.551-.28311-.97006,0-.41758.09713-.7421.29325-.97703.19601-.23488.4648-.35151.80617-.35151.34152,0,.60683.11324.79782.34136.18935.22648.2848.54424.2848.95332,0,.40221-.10231.72673-.30592.97355Z" style="fill:#fff; stroke-width:0px;"/><polygon points="147.89755 88.17928 147.89755 85.02365 148.58884 85.02365 148.58884 84.231 147.89755 84.231 147.89755 82.73693 146.9941 82.73693 146.9941 84.231 146.30286 84.231 146.30286 85.02365 146.9941 85.02365 146.9941 88.17928 147.89755 88.17928" style="fill:#fff; stroke-width:0px;"/></svg>