<?xml version="1.0" encoding="UTF-8"?><svg id="uuid-69980a50-5909-424b-b4a5-12be9bfcf8ae" xmlns="http://www.w3.org/2000/svg" width="200" height="120" viewBox="0 0 200 120"><path d="M88.361,57.07113c-.11525,1.98425,1.38302,3.45662,3.85512,3.44842,1.61214-.08752,2.77303-1.22765,2.97448-3.20818.19162-1.88341-1.47176-3.48755-3.45442-3.42984-2.03562.05924-3.25426,1.10826-3.37518,3.1896ZM170.74595,63.07014c-3.04511,2.46124-5.86775,5.0214-8.97902,7.16207-2.17292,1.49506-4.71185,2.48298-7.15505,3.54095-.53799.23295-1.6233.02777-1.97774-.38588-.3204-.37398-.2024-1.42826.09972-1.97333.87745-1.58315,1.94441-3.06125,2.92358-4.56-3.62569-3.37663-3.45652-3.12592-7.39919-.46577-4.02374,2.71484-8.31943,5.09366-12.70738,7.17373-2.2187,1.05174-4.90021,1.10362-6.74727-1.67433.88131-.63124,1.73808-1.1618,2.50034-1.80444,4.58408-3.86464,9.44573-7.4649,13.59911-11.75012,2.33334-2.40736,3.88109-5.81607,5.05591-9.03866,1.16445-3.19424-1.06676-5.65464-4.42725-5.04055-2.65971.48601-5.4402,1.39062-7.68934,2.84702-7.59525,4.91831-12.56246,11.85825-14.72721,20.72903-.22512.92244-.5544,2.22873-1.23003,2.56575-4.48537,2.23741-9.1236,4.22282-14.30464,3.50918-1.38631-.19097-2.66564-1.15879-4.62596-2.06068,2.08208-1.46956,3.42065-2.41075,4.75559-3.35714,6.98666-4.95287,13.38552-10.54803,18.34913-17.58026,1.52507-2.16061,2.84173-4.59164,3.66689-7.09252,1.09714-3.32506-.72381-5.5643-4.22584-5.30897-2.05912.15011-4.29643.66074-6.05347,1.69135-10.79631,6.3328-18.48236,15.18477-21.53703,27.60685-.14604.59401-.2969,1.49204-.70038,1.66975-3.60402,1.58729-7.17065,3.3906-10.94198,4.42217-2.66286.72839-3.58955-.93143-2.13769-3.42075,1.09856-1.88361,2.51336-3.5828,3.91012-5.53555-1.32134-.99111-2.55012-1.91281-3.87722-2.90826-1.47854,1.37621-2.8025,2.6534-4.1744,3.87678-3.74705,3.34137-7.63421,6.50245-12.6495,7.72817-3.89289.9514-7.58277.40897-10.74609-1.66209,4.32105-5.06083,8.47365-9.99349,12.73197-14.83314.60164-.6838,1.67365-1.09951,2.60423-1.32589,10.65023-2.59091,19.69744-8.03663,27.08432-15.97788,2.95478-3.17657,5.36058-7.07998,7.18123-11.03678,1.9675-4.27606.91682-6.32629-2.86109-8.79995h-3.33333c-8.41078,2.32513-14.45214,8.02751-19.93588,14.34709-4.35798,5.02218-8.40868,10.31769-12.45324,15.60099-1.21334,1.58498-2.42154,2.76025-4.50253,2.54055-4.00937-.42335-8.20119-.29256-11.98022-1.4719-7.16522-2.23606-8.4179-8.61026-3.12842-13.98902,4.32227-4.39521,9.85945-6.36247,15.72805-7.60128.53331-.11258,1.07164-.20125,1.6001-.29961-.43742-3.95877-1.29903-4.66285-4.83839-3.86017-6.04248,1.37037-11.60292,3.77035-16.16675,8.07614-9.02144,8.51139-6.55518,19.23845,5.33613,22.61163,3.66601,1.03994,7.58033,1.20449,12.24358,1.89819-3.57032,3.57222-6.85903,6.94841-10.29565,10.16666-.33875.31721-1.6707-.17198-2.3937-.56152-3.96508-2.13626-8.10323-3.53166-12.66869-3.52091-4.92564.0116-9.03904,1.48444-11.54439,6.06316v2.77778c1.99002,4.53681,5.93753,6.21935,10.36285,5.87538,4.53349-.35238,8.98095-1.769,13.4785-2.65683,1.08327-.21383,2.47545-.64158,3.28512-.1868,7.91117,4.4437,15.58689,3.59019,23.2058-.66701.64345-.35956,1.30849-.68064,1.96747-1.01169.06927-.03479.16541-.01604.24909-.02214,1.92112,4.0214,4.4066,5.50201,8.88523,4.46577,4.1018-.94903,8.06464-2.49861,12.42201-3.89001,3.66387,4.96914,9.15314,4.53128,14.76566,3.40013,1.71187-.34505,3.4712-.75138,5.02814-1.50353,2.80473-1.35501,4.93974-1.65894,7.71898.74914,2.98509,2.5864,7.05539,1.70288,10.63205.52029,2.95726-.97775,5.79563-2.31489,8.68683-3.49284,1.71828,4.43464,1.93661,4.544,8.77811,4.18206-5.37377,6.08565-10.53663,12.07926-13.63807,19.6347,1.73645.67054,3.23212,1.24807,4.72778,1.8256h.55556c4.70408-10.70994,12.76662-18.81026,20.9314-26.8102,2.53282-2.48169,5.29846-4.72582,7.95749-7.07869v-.55556c-1.45487-.85002-2.90975-1.70003-4.25405-2.48542ZM123.19038,43.08736c.29392.18565.58787.3713.88179.55698-.3283.96181-.46963,2.04807-1.01407,2.86604-4.98257,7.48576-11.72,13.20075-19.01204,18.35063,4.17453-9.30695,10.5328-16.5781,19.14432-21.77365ZM96.40757,27.02566c.53246-.356,1.1244-.72645,1.73425-.83561.67674-.12112,1.64561-.20437,2.04169.1688.36353.34254.34193,1.39014.12207,1.9929-.43888,1.20334-1.00996,2.39729-1.7357,3.451-5.44481,7.90541-12.67517,13.6303-21.4938,17.36854-.55532.23543-1.18703.2906-2.4724.59035,6.72869-8.72945,13.05091-16.88358,21.80389-22.73597ZM33.62393,73.88143c-1.12054-.20511-2.03756-1.52218-3.04793-2.329.89806-.91793,1.64225-2.333,2.72112-2.66697,4.45835-1.38004,8.38572.2851,12.70376,2.74841-4.32953,2.30676-8.29268,2.9951-12.37695,2.24755ZM144.64498,49.42695c-3.31916,7.81891-9.63813,12.35484-16.05052,17.46802,1.30063-6.78735,10.85127-17.28926,16.05052-17.46802Z" style="fill:#fff; stroke-width:0px;"/></svg>