<?xml version="1.0" encoding="UTF-8"?><svg id="uuid-ca3a02ae-992c-42c4-aedc-7a394beeab09" xmlns="http://www.w3.org/2000/svg" width="230" height="120" viewBox="0 0 230 120"><path d="M11.55092,50.12407c0-1.43676-.21132-4.47796-.21132-5.49207h2.53492c.0421,1.43625.08415,3.04177.16876,3.42185h.12671c1.01406-2.15437,3.50647-3.9286,6.67489-3.9286,2.57702,0,4.94271,1.26697,5.87216,4.22454,1.22492-2.915,3.9286-4.22454,6.63233-4.22454,6.08348,0,7.43507,4.13993,7.43507,8.40656v11.61761h-2.53446v-11.49089c0-3.16843-.8874-6.25225-4.90061-6.25225-4.68934,0-5.91421,3.97116-5.91421,6.75951v10.98363h-2.53497v-11.74432c0-3.59056-1.30953-5.99882-4.05531-5.99882-3.75984,0-6.75951,2.61907-6.75951,7.98443v9.75871h-2.53445v-14.02535Z" style="fill:#fff; stroke-width:0px;"/><path d="M61.01695,55.95367c0,3.8024.0841,5.95677.38008,8.19575h-2.36569c-.16927-.9715-.25337-2.07022-.25337-3.16843h-.08466c-1.43625,2.49235-3.54851,3.67523-6.84365,3.67523-3.33771,0-6.88622-1.64757-6.88622-5.78755,0-5.95677,6.97088-6.54818,10.81487-6.54818h2.9571v-1.18282c0-3.37929-2.36569-4.73139-5.49156-4.73139-2.28154,0-4.22459.71812-5.95677,2.19693l-1.47881-1.73218c1.85889-1.77428,4.90061-2.74578,7.43558-2.74578,4.73134,0,7.77311,2.11227,7.77311,7.05498v4.77344ZM55.94753,54.34866c-4.22453,0-8.44913,1.05616-8.44913,4.39335,0,2.40774,2.32359,3.63313,4.43591,3.63313,5.40741,0,6.80109-3.46436,6.80109-6.71694v-1.30953h-2.78788Z" style="fill:#fff; stroke-width:0px;"/><path d="M72.42072,70.19034c-.97155,2.49287-2.57656,4.09788-5.3649,4.09788-.84478,0-1.69013-.16876-2.49235-.38009l.25337-2.36569c.71812.21132,1.52091.4647,2.28108.4647,1.85889,0,2.66163-1.73218,3.25304-3.25304l1.77428-4.52006-7.94238-19.60203h2.83039l6.46357,16.4336,6.29481-16.4336h2.70373l-10.05465,25.55834Z" style="fill:#fff; stroke-width:0px;"/><path d="M97.09064,46.91308h-5.57622v12.71628c0,1.73172,1.0136,2.74578,2.70373,2.74578.9715,0,1.98509-.29594,2.87249-.67602l.21132,2.28154c-.92945.33752-2.32364.67556-3.29514.67556-3.63318,0-5.02733-2.23898-5.02733-5.02686v-12.71628h-4.22459v-2.28108h4.22459v-5.61873h2.53492v5.61873h5.57622v2.28108Z" style="fill:#fff; stroke-width:0px;"/><path d="M102.45446,50.12407c0-1.43676-.21132-4.47796-.21132-5.49207h2.53497c.04205,1.43625.0841,3.04177.16877,3.42185,1.26743-2.28103,3.29514-3.9286,6.21014-3.9286.5068,0,.97155.0841,1.4783.21081l-.29542,2.49287c-.38009-.12666-.71813-.16927-.97155-.16927-4.39381,0-6.37942,3.04177-6.37942,6.84366v10.64611h-2.53446v-14.02535Z" style="fill:#fff; stroke-width:0px;"/><path d="M155.3824,50.12407c0-1.43676-.21132-4.47796-.21132-5.49207h2.53492c.0421,1.43625.08415,3.04177.16876,3.42185h.12671c1.01406-2.15437,3.50647-3.9286,6.67489-3.9286,6.08348,0,7.43507,4.13993,7.43507,8.40656v11.61761h-2.53492v-11.49089c0-3.16843-.88689-6.25225-4.90015-6.25225-3.75984,0-6.75951,2.61907-6.75951,7.98443v9.75871h-2.53446v-14.02535Z" style="fill:#fff; stroke-width:0px;"/><path d="M178.02415,35c1.05616,0,1.90094.84484,1.90094,1.901s-.84478,1.90094-1.90094,1.90094-1.90094-.84484-1.90094-1.90094.84478-1.901,1.90094-1.901ZM176.75666,44.632h2.53497v19.51742h-2.53497v-19.51742Z" style="fill:#fff; stroke-width:0px;"/><path d="M201.13116,61.27693c-1.901,2.28108-4.39386,3.37929-7.18169,3.37929-5.99887,0-10.26602-4.30874-10.26602-10.26551s4.26715-10.26546,10.26602-10.26546c2.8304,0,5.36485,1.22487,7.2663,3.37924l-2.02817,1.52086c-1.4783-1.60501-3.21048-2.61907-5.23813-2.61907-4.77395,0-7.73105,3.59108-7.73105,7.98443s2.9571,7.98443,7.73105,7.98443c2.11227,0,3.9286-1.09821,5.23813-2.70368l1.94356,1.60547Z" style="fill:#fff; stroke-width:0px;"/><path d="M205.98669,59.16466c1.05616,2.06971,3.37975,3.21048,5.66083,3.21048,2.19688,0,4.47796-1.3521,4.47796-3.59108,0-5.36485-11.57504-1.60501-11.57504-9.04059,0-3.80189,3.4639-5.61822,6.67489-5.61822,3.16843,0,5.61828,1.18282,6.88576,3.67523l-2.28108,1.35158c-.9715-1.77428-2.32359-2.74578-4.60467-2.74578-1.81679,0-4.14044,1.09821-4.14044,3.12638,0,5.2807,11.5755,1.18282,11.5755,9.08264,0,4.01326-3.33719,6.04092-7.05498,6.04092-3.33719,0-6.33686-1.26697-7.85771-3.9707l2.23898-1.52086Z" style="fill:#fff; stroke-width:0px;"/><path d="M131.71957,43.93244h-.00051c-10.62406.03554-19.23549,9.38309-19.31959,20.94259,1.02406.35357,2.03315.76622,3.0152,1.24497,1.22887.57085,2.37969,1.23892,3.26355,1.77274-.16676-.92145-.25937-1.87295-.25937-2.84742,0-8.0015,5.96174-14.51512,13.30072-14.55117,7.3384.03605,13.3002,6.54967,13.3002,14.55117,0,.97447-.20481,2.8529-.37157,3.77435,2.75675-.60644,5.55412-2.80188,6.39096-3.94465-.08415-11.55951-8.69506-20.90705-19.31958-20.94259Z" style="fill:#fff; stroke-width:0px;"/><path d="M149.60239,69.63744c-3.56857,3.32319-9.77671,6.65941-17.56438,6.09451-3.83194-.2424-7.59332-1.44425-10.88795-3.20099-.75217-.41962-1.76926-.98652-2.28252-1.30902-.5048-.30947-1.00206-.67305-1.51537-.9655-1.01811-.60495-2.05473-1.18287-3.11484-1.66562-4.20459-2.00709-8.94095-2.74424-13.4725-2.20042-8.82675,1.06765-15.36042,5.77401-15.75856,6.02441,0,.004-.006.008-.00749.01.3425-.12523,6.89171-3.06777,14.86316-2.34964,4.07782.37157,8.12462,1.90694,11.49135,4.46294.85232.62197,1.66911,1.32507,2.46784,2.04919.40116.35152.78022.7672,1.17133,1.13175.39962.38157,1.2019,1.07165,1.79182,1.57947,2.60901,2.16437,5.72088,3.92609,9.0531,4.85856,6.757,1.95802,12.76935.1863,16.45509-2.06724,3.80091-2.30457,5.90718-5.01579,7.19872-7.23723,2.52343-4.53006,2.01264-7.22328,2.05068-7.19021,0-.002-.00749-.002-.01149-.002-.57644.657-1.21544,1.31805-1.92802,1.97704Z" style="fill:#fff; stroke-width:0px;"/><path d="M131.71952,43.90518h-.00051c-10.62401.03584-19.23543,9.38288-19.31958,20.94264,1.02411.35352,2.0332.76617,3.0152,1.24492,1.22892.5709,2.37969,1.23892,3.26361,1.7728-.16677-.92145-.25943-1.87295-.25943-2.84747,0-8.00145,5.9618-14.51508,13.30071-14.55092,7.33846.03584,13.3002,6.54946,13.3002,14.55092,0,.97451-.20481,2.85295-.37157,3.77439,2.75681-.60643,5.55417-2.80187,6.39096-3.94464-.0841-11.55976-8.69501-20.9068-19.31958-20.94264Z" style="fill:#fff; stroke-width:0px;"/><path d="M149.60239,69.61023c-3.56857,3.32319-9.77676,6.65935-17.56438,6.09451-3.83194-.2424-7.59332-1.44425-10.88794-3.20099-.75217-.41967-1.76926-.98657-2.28257-1.30907-.5048-.30948-1.00206-.67306-1.51537-.9655-1.01806-.60496-2.05469-1.18282-3.11484-1.66557-4.20454-2.00714-8.9409-2.74429-13.47245-2.20042-8.82675,1.06765-15.36042,5.77396-15.75856,6.02436,0,.004-.006.008-.00754.01.34255-.12517,6.89176-3.06777,14.86316-2.34964,4.07788.37157,8.12468,1.90699,11.49141,4.46294.85232.62197,1.66911,1.32507,2.46784,2.04919.40111.35157.78022.7672,1.17133,1.1318.39962.38157,1.20185,1.07165,1.79177,1.57942,2.60907,2.16437,5.72093,3.92614,9.0531,4.85856,6.75704,1.95807,12.7694.1863,16.45514-2.06719,3.80091-2.30457,5.90718-5.01584,7.19872-7.23728,2.52343-4.53006,2.01263-7.22323,2.05068-7.1902,0-.002-.00754-.002-.01154-.002-.57639.65705-1.21538,1.31805-1.92797,1.97709Z" style="fill:#fff; stroke-width:0px;"/></svg>