<?xml version="1.0" encoding="UTF-8"?><svg id="uuid-1d6342c7-8933-43c9-af31-0223fa8eae94" xmlns="http://www.w3.org/2000/svg" width="230" height="120" viewBox="0 0 230 120"><path d="M107.86936,37.49435c-6.88912,0-11.7351,5.00431-11.7351,12.32417s4.846,12.32416,11.7351,12.32416,11.76873-5.00432,11.76873-12.32417-4.846-12.32417-11.76873-12.32417h0ZM107.86936,57.88574c-4.088,0-7.02179-3.0293-7.02179-8.06722s2.93378-8.06811,7.02179-8.06811,7.0554,3.0293,7.0554,8.06811-2.93554,8.06722-7.0554,8.06722Z" style="fill:#fff;"/><path d="M133.96998,41.7504c2.96739,0,5.17502,1.87242,6.19746,4.90172l4.11984-1.56639c-1.48325-4.86722-5.34041-7.59227-10.3182-7.59227-6.75733,0-11.57148,5.00432-11.57148,12.32417s4.81416,12.32417,11.57148,12.32417c4.97778,0,8.83494-2.72327,10.3182-7.59227l-4.11984-1.56639c-1.02245,3.0293-3.23008,4.90172-6.19746,4.90172-3.98894,0-6.85639-3.0293-6.85639-8.06722s2.86833-8.06811,6.85639-8.06811h0v.00088Z" style="fill:#fff;"/><polygon points="163.23435 57.61421 151.56469 57.61421 151.56469 51.58833 161.81743 51.58833 161.81743 47.53747 151.56469 47.53747 151.56469 42.02282 163.23435 42.02282 163.23435 37.90386 147.0486 37.90386 147.0486 61.73317 163.23435 61.73317 163.23435 57.61421" style="fill:#fff;"/><path d="M172.88565,55.57109h8.63594l2.2094,6.16208h4.81238l-9.09764-23.8302h-4.3843l-9.06579,23.8302h4.68149l2.2094-6.16208h-.00087ZM177.20451,43.453l2.96561,8.30603h-5.933l2.96739-8.30603Z" style="fill:#fff;"/><polygon points="206.76516 37.90297 206.76516 54.04008 195.45815 37.90297 191.30381 37.90297 191.30381 61.73317 195.78716 61.73317 195.78716 45.59695 207.0942 61.73317 211.24765 61.73317 211.24765 37.90297 206.76516 37.90297" style="fill:#fff;"/><path d="M126.13979,76.24639l-1.07552-.28037c-.86058-.22023-2.00598-.62355-2.00066-1.67695,0-.93577.8544-1.63007,2.2094-1.63007,1.26391,0,2.16252.59171,2.28016,1.60796h1.60265c-.04954-1.76363-1.60797-3.04345-3.84566-3.04345s-3.90404,1.26302-3.90404,3.16108c0,1.53278,1.09763,2.4314,2.86568,2.9099l1.30193.35467c1.17723.31222,2.08557.69961,2.08557,1.67783,0,1.07551-1.02687,1.78485-2.44113,1.78574-1.27894,0-2.34472-.5696-2.44201-1.76893h-1.66722c.10879,1.99536,1.6513,3.22653,4.11984,3.22653s4.07651-1.36031,4.07651-3.22653c0-1.98386-1.76893-2.75335-3.16728-3.09741h.00178Z" style="fill:#fff;"/><polygon points="111.2038 76.37995 111.08528 76.37995 108.20899 71.37298 106.32066 71.37298 110.31668 78.06309 110.31668 82.38725 111.97329 82.38725 111.97329 78.06309 115.96842 71.37298 114.08097 71.37298 111.2038 76.37995" style="fill:#fff;"/><polygon points="138.44362 76.15883 132.95373 76.15883 132.95373 71.37298 131.29181 71.37298 131.29181 82.38725 132.95373 82.38725 132.95373 77.58459 138.44362 77.58459 138.44362 82.38725 140.11084 82.38725 140.11084 71.37298 138.44362 71.37298 138.44362 76.15883" style="fill:#fff;"/><rect x="142.52986" y="71.37298" width="1.66192" height="11.01427" style="fill:#fff;"/><polygon points="146.61256 82.38725 148.27358 82.38725 148.27358 77.58459 152.95242 77.58459 152.95242 76.15883 148.27358 76.15883 148.27358 72.80405 153.44064 72.80405 153.44064 71.37298 146.61256 71.37298 146.61256 82.38725" style="fill:#fff;"/><polygon points="154.94247 72.80493 158.37332 72.80493 158.37332 82.38725 160.02904 82.38725 160.02904 72.80493 163.46519 72.80493 163.46519 71.37298 154.94247 71.37298 154.94247 72.80493" style="fill:#fff;"/><polygon points="171.00086 79.93462 170.8726 79.93462 167.3657 71.37298 165.34911 71.37298 165.34911 82.38725 166.92965 82.38725 166.92965 74.41201 167.03314 74.41201 170.2809 82.37133 171.59256 82.37133 174.84121 74.41643 174.94292 74.41643 174.94292 82.38725 176.52435 82.38725 176.52435 71.37298 174.50689 71.37298 171.00086 79.93462" style="fill:#fff;"/><polygon points="194.18187 80.34324 194.05891 80.34324 190.99336 71.37298 189.197 71.37298 193.1603 82.38725 195.08048 82.38725 199.04378 71.37298 197.24742 71.37298 194.18187 80.34324" style="fill:#fff;"/><polygon points="202.29772 77.58459 207.17999 77.58459 207.17999 76.1606 202.29772 76.1606 202.29772 72.80405 207.53995 72.80405 207.53995 71.37298 200.63493 71.37298 200.63493 82.38725 207.60452 82.38725 207.60452 80.95706 202.29772 80.95706 202.29772 77.58459" style="fill:#fff;"/><path d="M183.5479,71.2235c-2.86037,0-4.96275,2.13511-4.96275,5.65705s2.10238,5.65794,4.96275,5.65794,4.95833-2.13511,4.95833-5.65793-2.10681-5.65705-4.95833-5.65705h0ZM183.5479,81.02163c-1.89718,0-3.31144-1.4576-3.31144-4.14108s1.41426-4.14108,3.31144-4.14108,3.31321,1.4576,3.31321,4.14108-1.41957,4.14108-3.31321,4.14108Z" style="fill:#fff;"/><path d="M102.91457,76.69747v-.1079c1.01095-.25826,1.85561-.94638,1.85561-2.32261,0-1.62919-1.12947-2.89397-3.4733-2.89397h-4.03317v11.01427h4.22067c2.55964,0,3.71565-1.27451,3.71565-2.96296s-1.19403-2.66755-2.28635-2.72681h.00089ZM98.92386,72.78724h2.27043c1.31697,0,1.94583.6943,1.94583,1.60796,0,1.0649-.8712,1.7424-1.98917,1.7424h-2.22709v-3.35036ZM101.32342,80.96149h-2.39867v-3.52726h2.45705c1.33377,0,2.16783.86058,2.16783,1.90957,0,.92515-.62885,1.61857-2.22621,1.61857h0v-.00089Z" style="fill:#fff;"/><path d="M54.98088,35.00988c-8.33964-.35379-15.81781,3.38132-20.61162,9.36209h9.14716c3.38751-2.25362,7.54627-3.43792,11.99868-3.06291,9.12859.7686,16.45109,8.2052,17.08879,17.34352.76595,10.96916-7.90625,20.10659-18.71267,20.10659-3.83682,0-7.40299-1.15423-10.3748-3.13102h-9.14804c4.58419,5.71896,11.62367,9.38508,19.52284,9.38508,13.82953,0,25.03926-11.22477,25.01362-25.06049-.02388-13.27762-10.65871-24.37945-23.92484-24.94197h0l.00088-.00088Z" style="fill:#fff;"/><path d="M24.35974,66.76844h27.67763c.68812,0,1.24622.5581,1.24622,1.24622v3.32559c0,.3414-.27684.61824-.61824.61824h-25.99361c-.48822,0-.93311-.27949-1.14539-.71996-.5749-1.19492-1.14981-2.38983-1.72471-3.58386-.19724-.41039.10171-.88712.55721-.88712h.00089v.00089Z" style="fill:#fff;"/><path d="M21.862,57.38778h27.67763c.68812,0,1.24622.5581,1.24622,1.24622v3.32559c0,.3414-.27684.61824-.61824.61824h-25.99361c-.48822,0-.93311-.27949-1.14539-.71996-.5749-1.19492-1.14981-2.38983-1.72471-3.58386-.19724-.41039.10171-.88712.55721-.88712h0l.00088.00089Z" style="fill:#fff;"/><path d="M19.37223,48.00801h27.67763c.68812,0,1.24622.5581,1.24622,1.24621v3.3256c0,.3414-.27684.61824-.61824.61824h-25.99361c-.48822,0-.93311-.27949-1.14539-.71996-.5749-1.19492-1.14981-2.38983-1.72471-3.58386-.19724-.41039.10171-.88712.55721-.88712h.00089v.00089Z" style="fill:#fff;"/></svg>