<?xml version="1.0" encoding="UTF-8"?><svg id="uuid-0b741985-b7aa-4805-8b51-47d0bf183d39" xmlns="http://www.w3.org/2000/svg" width="230" height="120" viewBox="0 0 230 120"><path d="M86.58613,100.81845c-6.28553,0-12.07442-2.1502-15.48578-5.75123-.47347-.50099-1.32632-.50244-1.79979-.0029-3.41715,3.60249-9.27265,5.75413-15.66242,5.75413-8.75718,0-15.9969-3.86746-18.01244-9.62304-.16942-.48506-.09556-1.00632.20417-1.43057.32867-.46189.87021-.73701,1.44938-.73701,1.09031,0,2.10387.75148,2.58169,1.91708,1.77807,4.33804,7.37003,7.25275,13.91765,7.25275,6.50272,0,12.04256-2.87851,13.78444-7.16009.49519-1.22062,1.54061-2.00975,2.66276-2.00975,1.12796,0,2.16613.7761,2.70478,2.02712,1.84323,4.27144,7.41637,7.14271,13.8655,7.14271,4.36122,0,8.3474-1.32197,11.8471-3.92538l.12596-.09411,2.82062,1.65934-.2809.21285c-4.35833,3.29842-8.89909,4.76808-14.7227,4.76808" style="fill:#fff; stroke-width:0px;"/><path d="M97.7466,79.698c.28525-.31276.40832-.74279.32869-1.14822-.0724-.37502-.30841-.68488-.64868-.8485-3.2159-1.55654-6.7619-2.31237-10.84076-2.31237-6.20301,0-11.96148,2.1502-15.40613,5.75269-.47639.49809-1.32778.49809-1.79546-.0029-3.37226-3.59959-9.20604-5.74979-15.60595-5.74979-8.61673,0-16.06785,3.96013-18.12103,9.62884-.1752.48216-.10426,1.00342.19403,1.42912.32144.459.85428.73266,1.42623.73266,1.08885,0,2.08213-.74569,2.53245-1.8997,1.69266-4.34818,7.24987-7.27013,13.82788-7.27013,6.46942,0,12.044,2.87127,13.87132,7.14271.53573,1.25102,1.56957,2.02713,2.7004,2.02713,1.11492,0,2.16469-.79637,2.67292-2.03002,1.75781-4.26999,7.23683-7.13982,13.63385-7.13982,3.27524,0,6.10887.68053,8.91354,2.14151.26499.13755.55023.2085.84995.2085.55166,0,1.08596-.24181,1.46677-.66171M126.2233,86.23836c.02899.15059-.03182.26208-.08687.32869-.09266.11149-.2418.17955-.39526.17955h-24.35299c-.14189,0-.27365-.06371-.36199-.17375s-.12163-.25484-.09123-.39384c1.08596-4.83614,6.35215-8.21564,12.80564-8.21564,8.06215,0,11.73557,4.27578,12.48269,8.27501M129.8649,88.33354c.44307-.50823.6371-1.14967.54731-1.80414-.91221-6.66344-7.55682-11.14049-16.53263-11.14049-9.64473,0-17.20011,5.56445-17.20011,12.66807v.09412c0,7.2209,7.63501,12.66807,17.76192,12.66807,4.86074,0,8.78179-.91655,12.34085-2.88575.6979-.38515.97301-1.28143.63856-2.08214-.19982-.48072-.67042-.80216-1.17283-.80216-.2201,0-.43587.06226-.62552.18099-3.19416,1.99672-6.80536,2.96684-11.04204,2.96684-7.03991,0-12.65938-3.449-13.66279-8.38794-.02607-.12742.00579-.25339.08977-.35619.09266-.11439.23168-.17955.38081-.17955h26.34245c.82242,0,1.62023-.3504,2.13427-.93972M156.74746,90.90799c0,3.98185-5.83959,7.10217-13.29358,7.10217-5.03886,0-10.13999-1.7969-10.13999-5.23287v-.09267c0-3.28684,4.42351-5.32699,11.54158-5.32699,4.91289,0,8.75426.5285,11.21578.92668.39093.06226.67621.37502.67621.7399v1.88377ZM160.51354,98.33739v-13.36598c0-6.09006-5.52824-9.5825-15.16723-9.5825-3.9355,0-7.52783.53429-11.65161,1.73464-.32867.09556-.58783.33592-.71094.65881-.12739.33592-.08833.72108.1057,1.02804.41121.65737,1.25829.97591,1.99092.74859,3.40268-1.057,6.5983-1.5493,10.05453-1.5493,7.44392,0,11.54304,2.50639,11.54304,7.05583v.19982c0,.28235-.25342.49809-.5314.45755-2.63381-.44162-6.00896-.89338-11.08114-.89338-9.78808,0-15.86801,3.06385-15.86801,7.9941v.09267c0,5.06491,7.06598,7.71465,14.0465,7.71465,7.23539,0,11.41414-2.51218,13.43406-4.24248v1.94893c0,1.057.86007,1.91708,1.91709,1.91708,1.05843,0,1.9185-.86008,1.9185-1.91708M194.46353,98.30409v-12.86354c0-6.10599-5.70636-10.05164-14.53738-10.05164-5.40518,0-9.60421,1.48849-12.47695,4.42637-.03765.0391-.08108.04344-.10424.04344-.0304,0-.08108-.00724-.08108-.06081v-1.89391c0-1.07727-.87602-1.95328-1.95328-1.95328s-1.95328.87601-1.95328,1.95328v20.40009c0,1.07727.87598,1.95328,1.95328,1.95328s1.95328-.87601,1.95328-1.95328v-12.07007c0-4.71451,5.23285-8.27066,12.17285-8.27066,6.85891,0,11.12166,3.02621,11.12166,7.89709v12.44364c0,1.07727.87456,1.95328,1.95182,1.95328s1.95332-.87601,1.95332-1.95328" style="fill:#fff; stroke-width:0px;"/><path d="M87.05362,43.83939c0,.6173-.10488,1.12673-.31464,1.52527-.20976.39855-.49145.71319-.84505.94393-.3536.23374-.76414.39855-1.22861.49743-.46447.10189-.94993.14983-1.45935.14983h-5.57369v-6.50264h5.67258c1.12672,0,2.03469.2607,2.72091.77912.68622.52141,1.02784,1.39042,1.02784,2.60705M86.09172,34.08244c0,.99488-.29667,1.71406-.89598,2.15755-.59633.4405-1.36047.66225-2.28941.66225h-5.27403v-5.54072h4.87548c.46448,0,.91397.03895,1.34548.11687.42852.07791.81208.21576,1.1447.41353.33262.20077.59633.47646.79709.83006.19778.3536.29667.80609.29667,1.36046M91.56652,47.23755c.46447-.87201.6982-1.90584.6982-3.10149,0-1.48332-.35959-2.74789-1.07878-3.7997-.71918-1.05181-1.80995-1.78598-3.2693-2.2055,1.0608-.50942,1.86389-1.16268,2.40628-1.95978.54239-.7941.81208-1.78897.81208-2.98462,0-1.10575-.1828-2.0347-.54837-2.78684-.3626-.75215-.87801-1.35447-1.54026-1.80995-.66525-.45248-1.46235-.77912-2.39129-.97689-.92895-.20077-1.95678-.29966-3.08351-.29966h-11.15037v23.69117h11.483c1.06079,0,2.09462-.13185,3.10149-.39855,1.00386-.2637,1.89985-.67424,2.68795-1.22561.78211-.55437,1.4084-1.26757,1.87288-2.14257M106.30083,51.00428h4.47693v-17.15257h-4.71067v8.98982c0,1.74702-.28768,3.0026-.86302,3.76673-.57535.76413-1.50429,1.1447-2.78684,1.1447-1.12972,0-1.91184-.3476-2.35533-1.04582-.44349-.69521-.66525-1.75301-.66525-3.16741v-9.68803h-4.71066v10.55105c0,1.0608.09289,2.0287.28167,2.90371.18879.87201.51242,1.61217.97989,2.22048.46448.60831,1.09976,1.07878,1.90585,1.4114.80909.33262,1.84291.49743,3.10448.49743.99488,0,1.96877-.22175,2.92169-.66225.94693-.4435,1.72305-1.16268,2.31938-2.15756h.10189v2.3883ZM128.29591,48.3343c.4495-.76413.67724-1.71106.67724-2.83778,0-.7971-.15282-1.46534-.46447-2.00773-.30865-.54239-.71919-.99487-1.22561-1.36046-.50943-.36559-1.09077-.65626-1.74403-.878-.65026-.22175-1.32151-.41054-2.00473-.56336-.66525-.15582-1.31851-.29966-1.95979-.43451-.64126-.13185-1.21063-.28168-1.70806-.44649-.49743-.16781-.90197-.38057-1.21063-.64727-.31165-.2637-.46447-.60831-.46447-1.02783,0-.3536.0869-.63528.26371-.84504.17679-.21276.39255-.37158.64727-.48245.25471-.11087.53638-.18279.84803-.21575.30865-.03296.59633-.05094.86003-.05094.84204,0,1.57321.16182,2.19052.48245.6203.32064.96191.93494,1.03084,1.84291h4.47693c-.0869-1.06379-.35659-1.9418-.81208-2.64001-.45249-.69521-1.02485-1.25558-1.70806-1.6751-.68622-.41953-1.46834-.71918-2.34036-.89598s-1.77399-.2667-2.70294-.2667c-.93195,0-1.83692.0839-2.72092.24872-.88399.16781-1.68109.45549-2.38829.86302-.71019.41053-1.27956.9679-1.71106,1.6751-.43151.71019-.64427,1.61517-.64427,2.72391,0,.75215.15282,1.38743.46447,1.90584.30865.52141.71618.95292,1.22561,1.29453.50942.34161,1.09076.6203,1.74403.83006.65026.20976,1.3185.39256,2.00473.54838,1.6811.3536,2.99361.7072,3.93155,1.0608.94093.3536,1.4114.884,1.4114,1.59419,0,.41953-.09889.76713-.29967,1.04282-.19777.27868-.44649.49743-.74315.66524-.29967.16481-.63229.28768-.99787.36259-.36559.07791-.7132.11687-1.04582.11687-.46148,0-.91096-.05394-1.34247-.16481s-.81208-.28168-1.1447-.51542c-.33262-.23074-.60531-.5304-.81208-.89598-.21276-.36559-.31464-.80009-.31464-1.30952h-4.48293c.04495,1.1507.30566,2.10661.78212,2.87075.47347.76114,1.08178,1.37544,1.82494,1.83991.74016.46448,1.5852.7971,2.53811.99488.94993.20077,1.92383.29966,2.9187.29966.9739,0,1.92981-.0929,2.87075-.28168.94093-.18879,1.77399-.51542,2.50516-.97989.72818-.46448,1.32151-1.07878,1.77698-1.83992M131.37943,31.19671h4.71066v-3.88361h-4.71066v3.88361ZM131.37943,51.00428h4.71066v-17.15557h-4.71066v17.15557ZM150.66558,51.00428h4.71066v-10.55105c0-1.0608-.09289-2.0287-.28169-2.90371-.18877-.87201-.51541-1.61517-.97988-2.22348-.46447-.60831-1.09977-1.08478-1.90884-1.42638-.80608-.34161-1.83991-.51542-3.10149-.51542-.99486,0-1.96876.22774-2.91869.68023-.95292.45549-1.72605,1.17767-2.32537,2.17554h-.09588v-2.38829h-4.48293v17.15257h4.71367v-8.99281c0-1.74702.28768-3.0026.86302-3.76374.57535-.76413,1.5043-1.1447,2.78684-1.1447,1.12672,0,1.91184.34761,2.35533,1.04282.44351.69821.66525,1.75301.66525,3.17041v9.68803ZM162.33735,40.58508c.02099-.33262.09291-.7072.21577-1.12673.11984-.41953.33262-.81807.63228-1.19565.29666-.37458.6952-.68922,1.19263-.94393s1.12373-.38357,1.87288-.38357c1.1507,0,2.01074.31165,2.57409.92895.56337.6203.95592,1.52827,1.17768,2.72092h-7.66534ZM162.33735,43.5727h12.376c.0869-1.3275-.02099-2.59806-.32963-3.81468-.31166-1.21662-.81509-2.3014-1.5133-3.25431-.6952-.94992-1.5852-1.70806-2.66997-2.27143-1.08178-.56636-2.35532-.84804-3.81466-.84804-1.30653,0-2.49318.23373-3.56896.69821-1.07279.46448-1.99574,1.09976-2.76888,1.90884-.77311.80608-1.37245,1.765-1.79197,2.87074-.41952,1.10575-.63228,2.2984-.63228,3.58095,0,1.3275.20677,2.54412.61431,3.64987.41054,1.10874.99188,2.05867,1.74403,2.85577.75215.7941,1.66911,1.40841,2.75388,1.83992,1.08178.43151,2.30139.64727,3.64987.64727,1.94478,0,3.6049-.4405,4.97735-1.3275,1.37245-.884,2.38831-2.35533,3.05056-4.414h-4.14432c-.15583.53339-.57535,1.03682-1.26156,1.51029-.68623.47646-1.50432.71619-2.45722.71619-1.3245,0-2.34336-.34461-3.05056-1.03084-.71019-.68622-1.09675-1.79197-1.16268-3.31724M191.28757,48.3343c.45249-.76413.68022-1.71106.68022-2.83778,0-.7971-.15583-1.46534-.46447-2.00773-.31164-.54239-.71918-.99487-1.2286-1.36046-.50944-.36559-1.08779-.65626-1.74103-.878-.65327-.22175-1.3245-.41054-2.00774-.56336-.66223-.15582-1.3155-.29966-1.95678-.43451-.64426-.13185-1.21362-.28168-1.70806-.44649-.49744-.16781-.90496-.38057-1.21362-.64727-.30864-.2637-.46447-.60831-.46447-1.02783,0-.3536.08989-.63528.26671-.84504.17679-.21276.39255-.37158.64725-.48245.25171-.11087.5334-.18279.84504-.21575.31166-.03296.59634-.05094.86303-.05094.83905,0,1.57023.16182,2.19053.48245.6173.32064.96191.93494,1.02782,1.84291h4.47993c-.08989-1.06379-.3596-1.9418-.81207-2.64001-.45549-.69521-1.02485-1.25558-1.70806-1.6751-.68623-.41953-1.46835-.71918-2.34037-.89598-.87501-.1768-1.77697-.2667-2.70294-.2667-.93194,0-1.83692.0839-2.72391.24872-.88399.16781-1.68109.45549-2.38829.86302-.7072.41053-1.27656.9679-1.71108,1.6751-.42851.71019-.64426,1.61517-.64426,2.72391,0,.75215.15283,1.38743.46447,1.90584.30866.52141.71918.95292,1.22862,1.29453.50642.34161,1.08777.6203,1.74101.83006.65327.20976,1.32151.39256,2.00774.54838,1.67809.3536,2.99062.7072,3.93154,1.0608.93795.3536,1.4114.884,1.4114,1.59419,0,.41953-.10187.76713-.29966,1.04282-.20078.27868-.4495.49743-.74616.66524-.29966.16481-.63228.28768-.99488.36259-.36859.07791-.71618.11687-1.04581.11687-.46447,0-.91397-.05394-1.34547-.16481-.43153-.11087-.81209-.28168-1.14471-.51542-.33262-.23074-.60231-.5304-.81207-.89598-.20976-.36559-.31465-.80009-.31465-1.30952h-4.47993c.04195,1.1507.30267,2.10661.77912,2.87075.47647.76114,1.08477,1.37544,1.82494,1.83991.74017.46448,1.5882.7971,2.53813.99488.94993.20077,1.92681.29966,2.92169.29966.97089,0,1.92981-.0929,2.86775-.28168.94094-.18879,1.77699-.51542,2.50516-.97989.73118-.46448,1.3245-1.07878,1.77699-1.83992M199.05479,39.15869c-.30866-.2637-.46449-.60831-.46449-1.02783,0-.3536.0869-.63528.26671-.84504.1738-.21276.39255-.37158.64725-.48245.25171-.11087.5334-.18279.84506-.21575.30864-.03296.59632-.05094.86301-.05094.83907,0,1.57023.16182,2.19053.48245.6173.32064.96191.93494,1.02784,1.84291h4.47991c-.08989-1.06379-.35958-1.9418-.81506-2.64001-.45249-.69521-1.02185-1.25558-1.70806-1.6751-.68623-.41953-1.46536-.71918-2.33735-.89598-.87501-.1768-1.77699-.2667-2.70594-.2667s-1.83694.0839-2.72093.24872c-.88399.16781-1.68109.45549-2.38829.86302-.71019.41053-1.27656.9679-1.71106,1.6751-.42853.71019-.64428,1.61517-.64428,2.72391,0,.75215.15283,1.38743.46447,1.90584.30866.52141.71621.95292,1.22862,1.29453.50642.34161,1.08777.6203,1.74103.83006.65324.20976,1.32149.39256,2.00772.54838,1.67809.3536,2.99062.7072,3.93154,1.0608.93795.3536,1.40841.884,1.40841,1.59419,0,.41953-.09888.76713-.29666,1.04282-.20078.27868-.4495.49743-.74616.66524-.29966.16481-.63228.28768-.99787.36259-.36559.07791-.71319.11687-1.04282.11687-.46447,0-.91397-.05394-1.34547-.16481-.43153-.11087-.81209-.28168-1.14471-.51542-.33262-.23074-.60231-.5304-.81207-.89598-.21276-.36559-.31465-.80009-.31465-1.30952h-4.47991c.04195,1.1507.30265,2.10661.7791,2.87075.47647.76114,1.08178,1.37544,1.82494,1.83991.74017.46448,1.5882.7971,2.53813.99488.94993.20077,1.92382.29966,2.92169.29966.97092,0,1.92983-.0929,2.86775-.28168.94094-.18879,1.774-.51542,2.50516-.97989.73118-.46448,1.32151-1.07878,1.77699-1.83992.45249-.76413.68022-1.71106.68022-2.83778,0-.7971-.15581-1.46534-.46447-2.00773-.31164-.54239-.71918-.99487-1.2286-1.36046-.50942-.36559-1.09076-.65626-1.74103-.878-.65327-.22175-1.3245-.41054-2.00772-.56336-.66225-.15582-1.31552-.29966-1.95978-.43451-.64129-.13185-1.21063-.28168-1.70806-.44649-.49744-.16781-.90199-.38057-1.21063-.64727" style="fill:#fff; stroke-width:0px;"/><path d="M48.56878,50.66323c-.00256-.00666-.01075-.01587-.01331-.02253l-.00358.01843.0169.0041ZM53.35665,50.87725c-.65538,0-1.06653.42446-1.1249,1.17508h2.23956c0-.74012-.4219-1.17508-1.11466-1.17508ZM20.62492,19.18083v39.73177h39.73202V19.18083H20.62492ZM25.51571,55.7089c-1.43928,0-2.73622-.916-2.73622-2.91747s1.29694-2.91875,2.73622-2.91875c1.43826,0,2.7352.91728,2.7352,2.91875s-1.29694,2.91747-2.7352,2.91747ZM32.345,51.28047h-.07015c-.63337,0-1.32612.09652-1.54834.58959v3.67756h-1.47768v-5.52953h1.38398v.65026c.26318-.35022.91497-.76393,1.52428-.76393.05837,0,.128,0,.18791.0105v1.36555ZM36.34078,55.55146l-.128-.48642c-.56322.37147-1.17252.54991-1.82944.54991-1.03274,0-1.64204-.6861-1.64204-1.60594,0-1.23729,1.13719-1.89446,3.48223-2.15892v-.30772c0-.40193-.30414-.63465-.86736-.63465s-1.02045.22196-1.34814.63465l-.98512-.56066c.51714-.71913,1.30206-1.07882,2.35682-1.07882,1.44235,0,2.25134.62415,2.25134,1.63948,0,0-.00256,3.9986.00154,4.00909h-1.29182ZM43.7425,55.54378h-1.45566v-3.59692c0-.67689-.17409-.98359-.703-.98359-.43368,0-.86736.20071-1.36043.6134v3.96711h-1.44235v-5.37772l1.20478-.16513.13312.65564c.67945-.49845,1.21911-.76291,1.89958-.76291,1.13719,0,1.72396.60418,1.72396,1.79923v3.85088ZM49.90002,55.23426c0,.92419-.07015,2.44565-2.70601,2.46152-1.0865.00794-2.09415-.42702-2.2964-1.3763l1.43723-.23118c.05939.27111.2258.54325,1.04042.54325.75471,0,1.11671-.36225,1.11671-1.22654v-.64258l-.01997-.01997c-.23092.41115-.58421.80387-1.42853.80387-1.28772,0-2.30305-.89501-2.30305-2.76412,0-1.84813,1.04554-2.88317,2.22215-2.88445,1.07626-.00256,1.48741.4731,1.59289.74294l.11623-.64258h1.22833v5.23614ZM55.8896,52.99368h-3.6814c.01178,1.04836.44545,1.57573,1.30206,1.57573.54991,0,.91446-.22222,1.25444-.7071l1.06653.59087c-.46901.7839-1.31384,1.19633-2.45051,1.19633-1.63026,0-2.6031-1.04708-2.6031-2.8673,0-1.84147.98512-2.88855,2.57903-2.88855,1.59442,0,2.54473,1.01661,2.54473,2.81456,0,.09524-.01178.19021-.01178.28545ZM56.47278,48.16459h-.57244v1.58367h-.30158v-1.58367h-.57244v-.24321h1.44645v.24321ZM58.85469,49.74826h-.30158v-1.5253h-.00922l-.59855,1.5253h-.19047l-.59906-1.5253h-.00922v1.5253h-.30107v-1.82688h.46491l.54632,1.38808.53659-1.38808h.46133v1.82688ZM34.17188,53.90328c0,.37019.23502.71785.65692.71785.45723,0,.90269-.19047,1.34814-.58165v-1.31025c-1.35992.16922-2.00506.51816-2.00506,1.17406ZM25.51571,51.10331c-1.0865,0-1.28772.97949-1.28772,1.68812s.20122,1.68812,1.28772,1.68812,1.28772-.97949,1.28772-1.68812-.20122-1.68812-1.28772-1.68812ZM47.29436,50.92743c-.52328,0-1.10647.38196-1.10647,1.62745,0,.68329.04915,1.81356,1.11722,1.80563,1.10493-.00922,1.19761-1.13156,1.19761-1.86528,0-.86326-.42293-1.5678-1.20836-1.5678Z" style="fill:#fff; stroke-width:0px;"/></svg>