<?xml version="1.0" encoding="UTF-8"?><svg id="uuid-a0dc8880-bcb0-4b4a-b31a-1118a452bac7" xmlns="http://www.w3.org/2000/svg" width="200" height="120" viewBox="0 0 200 120"><path d="M21.27741,37.98251h2.00965c5.544,0,6.37442,3.60151,6.37442,5.75415,0,4.54562-1.9868,6.66413-6.24439,6.66413h-2.13969v-12.41828ZM26.92787,35.76877h-11.57751v28.91623h5.92705v-11.61198h3.36506c7.66601,0,10.94228-2.55932,10.94228-8.55725,0-5.74192-4.35476-8.747-8.65688-8.747" style="fill:#fff; stroke-width:0px;"/><path d="M51.93182,62.7837c-6.88885,0-7.63399-8.78447-7.63399-12.5556,0-3.77574.74514-12.56182,7.63399-12.56182,6.93309,0,7.68096,8.78608,7.68096,12.56182,0,3.77112-.74787,12.5556-7.68096,12.5556M51.93182,35c-7.94348,0-13.93569,6.54515-13.93569,15.22811,0,8.68128,5.99221,15.22349,13.93569,15.22349,7.97005,0,13.981-6.54221,13.981-15.22349,0-8.68295-6.01094-15.22811-13.981-15.22811" style="fill:#fff; stroke-width:0px;"/><path d="M89.23156,44.46417c0-5.12164-3.34738-8.69485-8.13406-8.69485h-12.17716v28.91679h5.92844v-26.7036h2.37391c5.29321,0,6.08155,3.67912,6.08155,5.87446,0,4.63813-3.85285,5.60999-7.0941,5.60999h-1.00221l7.8805,15.21916h6.5536s-6.82101-12.39709-7.30364-13.27878c4.46879-.7427,6.89318-3.10549,6.89318-6.94316" style="fill:#fff; stroke-width:0px;"/><path d="M114.88375,56.50429c-1.54026,3.6343-4.87163,5.89719-8.69757,5.89719-6.18523,0-9.00218-6.24577-9.00218-12.04523,0-8.17993,3.42365-12.69052,9.63519-12.69052,3.55614,0,5.7691,2.55065,7.56888,4.9444l.23617.31595,2.15759-1.59725-.2335-.33446c-2.56149-3.75484-6.62143-5.99437-10.86706-5.99437-8.43672,0-14.80058,6.69148-14.80058,15.57235,0,8.20461,6.41351,14.87925,14.29239,14.87925,5.7224,0,9.84639-2.58756,12.25589-7.69102l.17373-.37243-2.54681-1.27585" style="fill:#fff; stroke-width:0px;"/><path d="M177.35112,51.40733c4.47096-.7427,6.88912-3.1066,6.88912-6.94316,0-5.12242-3.34438-8.69541-8.13673-8.69541h-12.17177v28.91734h5.92599v-26.7036h2.37474c5.29132,0,6.08288,3.67912,6.08288,5.87307,0,4.63952-3.86069,5.61138-7.08943,5.61138h-1.00933l7.87832,15.21916h6.55472s-6.81746-12.39709-7.29852-13.27878" style="fill:#fff; stroke-width:0px;"/><polygon points="15.86828 76.9952 15.86828 84.86212 19.64325 84.86212 19.64325 84.08574 16.72667 84.08574 16.72667 76.9952 15.86828 76.9952" style="fill:#fff; stroke-width:0px;"/><path d="M25.41991,77.9844l1.53159,3.94375h-3.05234l1.52075-3.94375ZM25.03686,76.9952l-3.19561,7.86693h.9216l.87951-2.21185h3.56698l.88908,2.21185h.93055l-3.16442-7.86693h-.8277Z" style="fill:#fff; stroke-width:0px;"/><path d="M44.16074,82.74578c-.49597,1.21292-1.8313,2.25422-3.51761,2.25422-2.26422,0-3.991-1.79594-3.991-4.07078,0-2.24337,1.68442-4.07195,3.9815-4.07195,1.89263,0,3.08275,1.29653,3.52712,2.29658h-.92138c-.25729-.468-1.12736-1.52019-2.60574-1.52019-1.78944,0-3.13428,1.45615-3.13428,3.28467,0,1.86004,1.35435,3.30529,3.13428,3.30529,1.60247,0,2.42061-1.18028,2.60574-1.47783h.92138Z" style="fill:#fff; stroke-width:0px;"/><path d="M47.85964,80.92922c0,1.84915,1.35485,3.2944,3.14379,3.2944,1.8109,0,3.13456-1.49845,3.13456-3.2944,0-1.79711-1.32366-3.29557-3.14407-3.29557-1.80062,0-3.13429,1.46699-3.13429,3.28467M47.00126,80.94984c0-2.42361,1.82969-4.09258,3.99267-4.09258,2.24332,0,3.99128,1.76453,3.99128,4.07195,0,2.30631-1.73657,4.07078-3.99128,4.07078-2.26645,0-3.99267-1.79594-3.99267-4.03932v-.01084Z" style="fill:#fff; stroke-width:0px;"/><polygon points="63.58805 76.9952 63.59973 83.56453 59.10948 76.9952 58.24164 76.9952 58.24164 84.86212 59.06878 84.86212 59.04816 78.23958 63.58805 84.86212 64.41653 84.86212 64.41653 76.9952 63.58805 76.9952" style="fill:#fff; stroke-width:0px;"/><polygon points="68.0202 76.9952 68.0202 84.86212 68.86853 84.86212 68.86853 81.32116 71.88823 81.32116 71.88823 80.53505 68.86853 80.53505 68.86853 77.77158 71.90941 77.77158 71.90941 76.9952 68.0202 76.9952" style="fill:#fff; stroke-width:0px;"/><path d="M82.48794,77.9844l1.53159,3.94375h-3.05256l1.52097-3.94375ZM82.10439,76.9952l-3.19511,7.86693h.92132l.87901-2.21185h3.56698l.8893,2.21185h.93138l-3.16442-7.86693h-.82848Z" style="fill:#fff; stroke-width:0px;"/><polygon points="94.36866 76.9952 94.37761 83.56453 89.88931 76.9952 89.0198 76.9952 89.0198 84.86212 89.84778 84.86212 89.82604 78.23958 94.36866 84.86212 95.19475 84.86212 95.19475 76.9952 94.36866 76.9952" style="fill:#fff; stroke-width:0px;"/><path d="M105.95813,82.74578c-.49624,1.21292-1.82963,2.25422-3.5165,2.25422-2.26395,0-3.99234-1.79594-3.99234-4.07078,0-2.24337,1.68631-4.07195,3.98339-4.07195,1.89129,0,3.0808,1.29653,3.52545,2.29658h-.92027c-.25952-.468-1.12736-1.52019-2.60519-1.52019-1.79,0-3.13428,1.45615-3.13428,3.28467,0,1.86004,1.35435,3.30529,3.13428,3.30529,1.60242,0,2.41845-1.18028,2.60519-1.47783h.92027Z" style="fill:#fff; stroke-width:0px;"/><polygon points="109.16085 76.9952 109.16085 84.86212 113.40159 84.86212 113.40159 84.08574 110.00995 84.08574 110.00995 81.27885 113.38152 81.27885 113.38152 80.50352 110.00995 80.50352 110.00995 77.77158 113.40159 77.77158 113.40159 76.9952 109.16085 76.9952" style="fill:#fff; stroke-width:0px;"/><rect x="121.88089" y="76.9952" width=".8486" height="7.86693" style="fill:#fff; stroke-width:0px;"/><rect x="74.90304" y="76.9952" width=".8486" height="7.86693" style="fill:#fff; stroke-width:0px;"/><polygon points="131.69042 76.9952 131.6991 83.56453 127.21024 76.9952 126.34101 76.9952 126.34101 84.86212 127.16899 84.86212 127.14836 78.23958 131.69042 84.86212 132.51568 84.86212 132.51568 76.9952 131.69042 76.9952" style="fill:#fff; stroke-width:0px;"/><path d="M136.60764,82.67196c.12431,1.30737,1.05542,1.58424,1.53265,1.58424.79484,0,1.52998-.62761,1.52998-1.49951,0-1.1054-.91971-1.34974-1.81062-1.64723-.62061-.19114-1.95344-.59503-1.95344-2.08265-.02063-1.39316,1.1059-2.16954,2.27428-2.16954.95118,0,2.0479.54189,2.17277,2.03056h-.84966c-.09067-.51036-.33935-1.28675-1.35407-1.28675-.76493,0-1.39694.5321-1.39694,1.35079-.00867.95662.74597,1.19012,1.90352,1.59402.72424.28665,1.86277.70145,1.86277,2.14781,0,1.28564-.94306,2.30631-2.36935,2.30631-1.2818,0-2.34811-.82959-2.40021-2.32804h.85833Z" style="fill:#fff; stroke-width:0px;"/><polygon points="143.04617 76.9952 143.04617 77.77158 144.929 77.77158 144.929 84.86212 145.78789 84.86212 145.78789 77.77158 147.68052 77.77158 147.68052 76.9952 143.04617 76.9952" style="fill:#fff; stroke-width:0px;"/><path d="M152.68952,77.9844l1.53209,3.94375h-3.05173l1.51964-3.94375ZM152.30675,76.9952l-3.19455,7.86693h.92027l.87951-2.21185h3.56698l.88986,2.21185h.93l-3.16414-7.86693h-.82792Z" style="fill:#fff; stroke-width:0px;"/><polygon points="159.23334 76.9952 159.23334 84.86212 163.00825 84.86212 163.00825 84.08574 160.09223 84.08574 160.09223 76.9952 159.23334 76.9952" style="fill:#fff; stroke-width:0px;"/><polygon points="165.89819 76.9952 165.89819 84.86212 169.67316 84.86212 169.67316 84.08574 166.75658 84.08574 166.75658 76.9952 165.89819 76.9952" style="fill:#fff; stroke-width:0px;"/><path d="M172.55281,76.9952v7.86582h4.24074v-.77527h-3.39269v-2.80688h3.37368v-.77533h-3.37368v-2.73194h3.39269v-.77639h-4.24074ZM173.3406,76.0071l.24701.51031,2.49144-1.37142-.27798-.57441-2.46047,1.43552Z" style="fill:#fff; stroke-width:0px;"/><polygon points="180.22155 76.9952 180.22155 84.86212 184.46234 84.86212 184.46234 84.08574 181.06959 84.08574 181.06959 81.27885 184.44277 81.27885 184.44277 80.50352 181.06959 80.50352 181.06959 77.77158 184.46234 77.77158 184.46234 76.9952 180.22155 76.9952" style="fill:#fff; stroke-width:0px;"/><path d="M149.74471,62.0106v-10.95073h10.37738v-2.67335h-10.37738v-9.94496h11.0061v-2.67168h-16.92993v5.99899l2.20045,3.79581s.08256.12815.1982.35131c.50219.67915.73347,1.69849.73347,2.61714,0,1.97407-1.32472,3.48009-3.13212,3.80643v12.34222h17.10038v-2.67118h-11.17655Z" style="fill:#fff; stroke-width:0px;"/><path d="M139.15718,48.7416c-.01518-.16289-.02168-.35075-.0119-.56245.00217-.01523.00267-.02935.00378-.04564.00272-.0358.00434-.07272.00812-.11075.00439-.04236.00761-.0825.0125-.12375,0-.00328.00161-.00545.00161-.00873.01412-.13571.03692-.26925.06627-.40173.13465-.64068.42836-1.41706,1.012-2.30608l1.93499-3.38702v-6.03184h-5.92599v12.39493h-10.41541v-12.39493h-5.92544v28.92251h5.92544v-13.47097h10.41541v13.47097h5.92599v-12.36991c-1.63094-.39094-2.87371-1.81991-3.02737-3.5746" style="fill:#fff; stroke-width:0px;"/></svg>