<?xml version="1.0" encoding="UTF-8"?><svg id="uuid-ab11f839-18c2-444f-be25-3d312afebd20" xmlns="http://www.w3.org/2000/svg" width="200" height="120" viewBox="0 0 200 120"><path d="M18.67628,54.48708l3.18195-.27393,8.81406,11.69459,7.64844.00459-9.29923-12.33755c6.85261-1.37336,6.94853-7.5229,6.94853-7.58827v-6.83381c0-.08001-.10849-8.0795-9.86114-8.0795l-14.38224-.00175-.01011,34.83629h6.95974v-11.42066ZM18.67628,36.66963l7.43032.00394c3.25633,0,3.3875,2.17766,3.39778,2.43585v6.8771c-.01028.22146-.14145,2.23888-3.33624,2.27429l-7.49186.48905v-12.08023ZM110.75671,60.19916h-3.38062c-3.14314,0-3.31241-2.46034-3.32142-2.73383l.00902-13.46234h6.69302v-5.70049l-6.69302-.00568v-7.22361h-6.87584v7.22361h-4.48235l-.00355,5.70027,4.4859.0059v13.46234c0,.08548.10975,8.33747,10.06806,8.33944h3.5008v-5.60561ZM60.9941,58.97621c-10.60428,2.76203-14.15728,1.17945-15.19621.35744-.94755-.73653-1.15081-1.82044-1.18404-3.00885,1.94434.0223,5.69147-.01552,12.31355-.11762,2.6624-.04219,4.21629-1.35019,5.04852-2.40809,2.14662-2.70847,1.64647-6.56141,1.43644-7.69736-.33001-2.96163-3.37952-8.08956-12.87065-7.69517-3.90131.15413-6.9839,1.44223-9.15992,3.81162-2.98328,3.26748-3.02224,7.33314-3.00284,8.13438l-.00339,5.22325c-.01601,1.58936-.06624,5.81308,3.58497,8.67174,2.14433,1.68512,5.12744,2.52811,9.00022,2.52811,3.23119,0,7.08993-.59421,11.6078-1.75857l-1.57444-6.04088ZM45.98497,46.42835c1.00723-1.10118,2.62376-1.70588,4.80465-1.78874,4.54383-.18364,6.14467,1.21902,6.41171,2.14771,0,0,.55376,1.58258-.09007,3.13303-.01273.02951-.14177.05465-.36313.05859-5.50882.08854-10.34068.13205-12.13429.11937.00115-.35045.1063-2.28413,1.37112-3.66996ZM90.99393,65.9237l.0023-19.17683c0-.08001-.11406-8.36611-10.16355-8.37114h-4.49945c-10.05068,0-10.166,8.28151-10.166,8.36546l-.00328,19.17792,6.95651.00459.00683-19.18251c0-.23414.08564-2.33901,3.20594-2.33441h4.49945c3.07799,0,3.25726,2.02157,3.26529,2.24303l-.00115,19.27389h6.8971ZM167.03401,65.93966l-10.64167-14.12432,10.11676-13.42212h-7.61991l-10.11332,13.4184,10.6397,14.12804h7.61844ZM148.77588,51.81162l.00459-20.70738-6.66876-.00568-.00344,34.83891h6.65848l.00913-14.12585ZM187.30235,31.10993h-6.65875l-.00574,34.8341h6.65307l.01142-34.8341ZM126.42323,38.6125h-1.60056c-6.71784,0-12.17429,5.45367-12.17429,12.15784v3.64766c0,6.70833,5.45389,12.16309,12.16631,12.16309h1.60428c6.71324.007,12.17052-5.45258,12.17052-12.16112v-3.64678c0-6.70024-5.45526-12.16069-12.16626-12.16069ZM132.32807,54.41997c0,3.25436-2.64502,5.9025-5.90485,5.9025h-1.60854c-3.25644,0-5.90632-2.65229-5.90064-5.90446v-3.64482c0-3.25742,2.65251-5.90337,5.90064-5.90337h1.60854c3.25983,0,5.90485,2.64988,5.90485,5.90337v3.64678ZM173.45644,36.79446c1.87799,0,3.40117-1.51962,3.40117-3.40062,0-1.87313-1.51858-3.39384-3.40117-3.39384-1.87001,0-3.39576,1.51787-3.39576,3.39384,0,1.87706,1.52088,3.40062,3.39576,3.40062ZM176.90559,38.39803h-6.89371l-.00454,27.54163h6.89366l.00459-27.54163ZM50.77218,79.48246h-1.65363l-1.40026,2.29419c-.1192.19348-.25322.44708-.25322.44708h-.02984s-.13401-.2536-.25332-.44708l-1.40031-2.29419h-1.65347l2.4282,3.66471-2.56238,3.87327h1.63877l1.57903-2.51762c.10434-.17861.22348-.41713.22348-.41713h.02984s.11915.23851.22337.41713l1.57914,2.51762h1.6386l-2.56222-3.87327,2.4282-3.66471ZM38.40867,82.35752h3.76894v-1.28111h-3.76894v-3.29197h4.63303v-1.28111h-6.10789v10.51711h6.3611v-1.28111h-4.88625v-3.38182ZM180.44831,79.30384c-2.24937,0-4.06686,1.65363-4.06686,3.93274,0,2.29419,1.81749,3.96247,4.06686,3.96247,2.24964,0,4.06713-1.66828,4.06713-3.96247,0-2.2791-1.81749-3.93274-4.06713-3.93274ZM180.44831,85.94768c-1.41496,0-2.59189-1.13201-2.59189-2.71109,0-1.564,1.17694-2.68136,2.59189-2.68136,1.43015,0,2.59222,1.11736,2.59222,2.68136,0,1.57909-1.16207,2.71109-2.59222,2.71109ZM144.16438,85.84361c-2.33868,0-3.90301-1.9068-3.90301-4.15639,0-2.23429,1.53432-4.02215,3.88819-4.02215,1.81743,0,3.03891,1.14731,3.03891,1.14731l.73019-1.1025s-1.29625-1.38561-3.82878-1.38561c-3.05378,0-5.34791,2.32414-5.34791,5.37781,0,3.08384,2.21964,5.49696,5.37792,5.49696,2.63671,0,4.08167-1.66828,4.08167-1.66828l-.78954-1.05768s-1.2663,1.37052-3.24764,1.37052ZM13.19129,76.50333h-1.47475v10.51711h6.18227v-1.28111h-4.70752v-9.236ZM27.95223,81.47867c0-.65542.61082-.92345,1.23645-.92345,1.19175,0,1.86214.67029,1.86214.67029l.58103-1.08763s-.77473-.83403-2.42826-.83403c-1.50459,0-2.72618.77479-2.72618,2.14509,0,2.45815,3.87333,2.17482,3.87333,3.56043,0,.6106-.62574.93831-1.25143.93831-1.31095,0-2.16001-.87885-2.16001-.87885l-.70024,1.02795s1.01308,1.10228,2.86025,1.10228c1.65358,0,2.72623-.93853,2.72623-2.18969,0-2.4728-3.87333-2.17504-3.87333-3.5307ZM22.18807,79.30384c-2.1452,0-3.76899,1.54913-3.76899,3.94782,0,2.23451,1.62379,3.94739,3.99248,3.94739,1.80251,0,2.91977-1.07233,2.91977-1.07233l-.5959-1.0579s-.93837.87885-2.23451.87885c-1.34074,0-2.51756-.83403-2.59206-2.48767h5.49701s.04465-.43177.04465-.62569c0-1.95139-1.13212-3.53048-3.26245-3.53048ZM19.95351,82.37282c.20856-1.23673,1.10244-1.9221,2.20472-1.9221.96843,0,1.77284.62569,1.81749,1.9221h-4.02221ZM188.02997,85.78393c-.44675,0-.80441-.16396-.80441-1.07255v-8.20805h-1.44496v8.46143c0,1.89193,1.20661,2.11536,2.02611,2.11536.25322,0,.47675-.02995.47675-.02995v-1.28111s-.11931.01487-.25349.01487ZM152.77366,79.30384c-2.24964,0-4.06713,1.65363-4.06713,3.93274,0,2.29419,1.81749,3.96247,4.06713,3.96247,2.24937,0,4.06686-1.66828,4.06686-3.96247,0-2.2791-1.81749-3.93274-4.06686-3.93274ZM152.77366,85.94768c-1.41529,0-2.59217-1.13201-2.59217-2.71109,0-1.564,1.17688-2.68136,2.59217-2.68136,1.4301,0,2.59195,1.11736,2.59195,2.68136,0,1.57909-1.16185,2.71109-2.59195,2.71109ZM112.25906,76.50333h-3.84338v10.51711h1.47497v-3.88814h2.36841c1.92193,0,3.30721-1.34079,3.30721-3.337,0-1.99599-1.38528-3.29197-3.30721-3.29197ZM112.02066,81.85119h-2.13001v-4.06675h2.14514c1.25116,0,2.02589.74462,2.02589,2.01086s-.77473,2.05589-2.04103,2.05589ZM162.39568,79.30384c-1.63844,0-2.53226,1.07255-2.83024,1.72818h-.02995s.02995-.2536.02995-.55136v-.99821h-1.40042v7.53799h1.44496v-3.53048c0-.37253.02995-.7151.11931-1.01308.31284-1.08741,1.23629-1.84711,2.38355-1.84711,1.20661,0,1.4301.83403,1.4301,1.89171v4.49896h1.44496v-4.82667c0-1.92166-.81922-2.88993-2.59222-2.88993ZM125.50033,81.47867c0-.65542.61088-.92345,1.23656-.92345,1.1918,0,1.86203.67029,1.86203.67029l.58093-1.08763s-.77446-.83403-2.42809-.83403c-1.50459,0-2.72607.77479-2.72607,2.14509,0,2.45815,3.87306,2.17482,3.87306,3.56043,0,.6106-.62574.93831-1.25116.93831-1.31111,0-2.16028-.87885-2.16028-.87885l-.69996,1.02795s1.01281,1.10228,2.86025,1.10228c1.65331,0,2.72607-.93853,2.72607-2.18969,0-2.4728-3.87333-2.17504-3.87333-3.5307ZM120.01938,79.30384c-2.1452,0-3.76888,1.54913-3.76888,3.94782,0,2.23451,1.62368,3.94739,3.99237,3.94739,1.80262,0,2.91988-1.07233,2.91988-1.07233l-.59601-1.0579s-.93859.87885-2.23451.87885c-1.34079,0-2.51773-.83403-2.59222-2.48767h5.49729s.04449-.43177.04449-.62569c0-1.95139-1.13206-3.53048-3.2624-3.53048ZM117.78482,82.37282c.20867-1.23673,1.10244-1.9221,2.20483-1.9221.96826,0,1.77267.62569,1.81749,1.9221h-4.02232ZM55.85125,79.30384c-1.89198,0-2.53254,1.3703-2.53254,1.3703h-.02984s.02984-.25316.02984-.55114v-.64055h-1.32582v10.51754h1.44502v-3.3816c0-.38739-.02984-.65542-.02984-.65542h.02984s.65537,1.23607,2.309,1.23607c1.96648,0,3.41144-1.54913,3.41144-3.94739,0-2.33901-1.28111-3.94782-3.30711-3.94782ZM55.52337,85.96298c-1.38528,0-2.13017-1.34079-2.13017-2.68158,0-1.92166,1.04276-2.71131,2.17499-2.71131,1.25132,0,2.13022,1.05768,2.13022,2.69645,0,1.71288-.98324,2.69645-2.17504,2.69645ZM101.62379,83.01337c0,1.48945-.90864,2.84511-2.44307,2.84511-1.20672,0-1.41529-.83425-1.41529-1.87684v-4.49918h-1.44496v4.82689c0,1.99599.8789,2.88971,2.57719,2.88971,1.4748,0,2.45804-.98291,2.77094-1.72797h.02968s-.02968.23873-.02968.55114v.99821h1.40026v-7.53799h-1.44507v3.53092ZM132.47138,84.10056v-3.35165h1.81749v-1.16218h-1.81749v-2.17482h-1.40015v2.17482h-1.02789v1.16218h.98308v3.51539c0,2.51784,1.92172,2.81581,2.8902,2.81581.29776,0,.50643-.02995.50643-.02995v-1.28111s-.13418.02995-.34258.02995c-.55119,0-1.60909-.1937-1.60909-1.69845ZM69.58413,81.35974h-.02984s.02984-.25316.02984-.56622v-1.31106h-1.40031v7.53799h1.44496v-3.08362c0-.46194.04465-.92345.17867-1.35566.34274-1.11736,1.1918-1.77278,2.11552-1.77278.22337,0,.41707.0446.41707.0446v-1.43021s-.17872-.02973-.37242-.02973c-1.16191,0-2.04097.8642-2.38349,1.9667ZM63.52193,79.30384c-2.1452,0-3.76894,1.54913-3.76894,3.94782,0,2.23451,1.62374,3.94739,3.99242,3.94739,1.80251,0,2.91977-1.07233,2.91977-1.07233l-.59585-1.0579s-.93842.87885-2.23456.87885c-1.34074,0-2.51756-.83403-2.59206-2.48767h5.49701s.04465-.43177.04465-.62569c0-1.95139-1.13212-3.53048-3.26245-3.53048ZM61.28743,82.37282c.20851-1.23673,1.10239-1.9221,2.20466-1.9221.96843,0,1.77284.62569,1.81749,1.9221h-4.02215ZM173.11988,81.35974h-.02995s.02995-.25316.02995-.56622v-1.31106h-1.40042v7.53799h1.44496v-3.08362c0-.46194.04482-.92345.17899-1.35566.34252-1.11736,1.19175-1.77278,2.11519-1.77278.22348,0,.41734.0446.41734.0446v-1.43021s-.17899-.02973-.37253-.02973c-1.16207,0-2.04097.8642-2.38355,1.9667ZM75.16985,84.10056v-3.35165h1.81733v-1.16218h-1.81733v-2.17482h-1.40031v2.17482h-1.02789v1.16218h.98313v3.51539c0,2.51784,1.92177,2.81581,2.89003,2.81581.29803,0,.50654-.02995.50654-.02995v-1.28111s-.13418.02995-.34269.02995c-.55119,0-1.60882-.1937-1.60882-1.69845ZM168.51723,84.10056v-3.35165h1.81749v-1.16218h-1.81749v-2.17482h-1.40015v2.17482h-1.02789v1.16218h.98313v3.51539c0,2.51784,1.92166,2.81581,2.8902,2.81581.2977,0,.50638-.02995.50638-.02995v-1.28111s-.13418.02995-.34258.02995c-.55119,0-1.60909-.1937-1.60909-1.69845ZM93.38672,79.98921c0,.28289.02984.50632.02984.50632h-.02984s-.58087-1.19169-2.32387-1.19169c-1.99616,0-3.41144,1.54913-3.41144,3.94782,0,2.33879,1.28111,3.94739,3.32208,3.94739,1.8622,0,2.47291-1.40004,2.47291-1.40004h.02984s-.01498.20834-.01498.50632v.7151h1.37058v-10.51711h-1.44513v3.48588ZM91.25655,85.94768c-1.25143,0-2.13033-1.05746-2.13033-2.69601,0-1.71332.98324-2.69645,2.17499-2.69645,1.43015,0,2.13033,1.34079,2.13033,2.68136,0,1.92188-1.05773,2.71109-2.17499,2.71109ZM79.50403,81.47867c0-.65542.61088-.92345,1.2364-.92345,1.1918,0,1.8622.67029,1.8622.67029l.58103-1.08763s-.77473-.83403-2.4282-.83403c-1.50459,0-2.72623.77479-2.72623,2.14509,0,2.45815,3.87333,2.17482,3.87333,3.56043,0,.6106-.62574.93831-1.25143.93831-1.31095,0-2.16001-.87885-2.16001-.87885l-.70024,1.02795s1.01308,1.10228,2.86025,1.10228c1.65363,0,2.72618-.93853,2.72618-2.18969,0-2.4728-3.87327-2.17504-3.87327-3.5307Z" style="fill:#fff; stroke-width:0px;"/></svg>