<?xml version="1.0" encoding="UTF-8"?><svg id="uuid-de538cf2-e4bd-4344-ad7f-e7183e3e0ed1" xmlns="http://www.w3.org/2000/svg" width="200" height="120" viewBox="0 0 200 120"><path d="M52.4767,92.15706l-.56601,1.42407h1.12377l-.27914-.71229-.27862-.71177ZM69.37562,92.09927c-.11454-.12383-.25076-.2229-.40865-.29694-.15892-.07404-.33331-.11093-.52422-.11093-.19194,0-.3653.03586-.52009.10732-.15582.07146-.28997.1682-.40245.28997-.11248.12151-.19916.26392-.25798.42567-.06088.16253-.08978.33409-.08978.51545v.01445c0,.18136.03096.35292.09287.51519.06192.16253.14963.30545.26211.42954s.24766.22316.40555.2972.33228.11093.52422.11093c.19091,0,.3653-.03586.52319-.10732.15789-.07172.29204-.1682.40245-.28997s.19607-.26366.25798-.42593c.06295-.16227.09391-.33383.09391-.51545v-.01419c0-.18136-.03096-.35318-.09391-.51545-.06192-.16227-.15066-.30519-.26521-.42954ZM94.92006,92.09927c-.11454-.12383-.25076-.2229-.40865-.29694s-.33228-.11093-.52422-.11093c-.19091,0-.36427.03586-.52009.10732s-.28997.1682-.40245.28997c-.11248.12151-.19813.26392-.25798.42567-.05985.16253-.08978.33409-.08978.51545v.01445c0,.18136.03096.35292.09287.51519.06295.16253.14963.30545.26211.42954s.24766.22316.40555.2972.33331.11093.52422.11093.36634-.03586.52422-.10732c.15789-.07172.29204-.1682.40142-.28997.11042-.12177.1971-.26366.25901-.42593s.09287-.33383.09287-.51545v-.01419c0-.18136-.03096-.35318-.09287-.51545s-.15066-.30519-.26624-.42954ZM144.395,92.09927c-.11454-.12383-.25076-.2229-.40865-.29694s-.33331-.11093-.52422-.11093c-.19194,0-.3653.03586-.52009.10732-.15582.07146-.28997.1682-.40245.28997-.11248.12151-.19916.26392-.25798.42567-.02993.08126-.02993.17182-.04541.25772-.01445.08591-.04437.16717-.04437.25772v.01445c0,.18136.03096.35292.09287.51519.06192.16253.14963.30545.26211.42954s.24766.22316.40555.2972.33228.11093.52422.11093c.19091,0,.3653-.03586.52319-.10732.15892-.07172.29307-.1682.40245-.28997.11042-.12177.19607-.26366.25798-.42593.06295-.16227.09391-.33383.09391-.51545v-.01419c0-.18136-.03096-.35318-.09391-.51545-.06192-.16227-.15066-.30519-.26521-.42954ZM34.23679,86.0893v13.9107h130.91139v-13.9107H34.23679ZM53.80067,95.54954l-.3653-.89468h-1.93229l-.35808.89468h-1.46018l2.133-5.0464h1.33842l2.13352,5.0464h-1.48908ZM60.37923,93.31644c0,.40555-.05572.75486-.1682,1.04844s-.26985.53454-.47262.72287c-.20277.18884-.44837.32815-.73732.41896-.28894.09055-.61194.13622-.97002.13622s-.68004-.04566-.9664-.13622c-.28636-.09081-.5299-.23012-.73009-.41896-.20019-.18833-.35447-.4267-.46179-.7159-.10732-.28868-.16098-.62845-.16098-1.01981v-2.81305h1.41736v2.78467c0,.36272.08255.63103.2487.80516.16563.17414.38801.26108.66714.26108.10165,0,.1873-.02348.27398-.04541.15118-.0387.28842-.09881.39368-.2051.16614-.16717.24921-.42722.24921-.78014v-2.82027h1.41736v2.77744ZM65.31806,91.75564h-1.50352v3.7939h-1.38795v-3.7939h-1.50352v-1.21665h4.395v1.21665ZM71.1526,93.04426c0,.35808-.06811.69552-.20432,1.0131-.13622.31706-.32609.59388-.56963.83019-.24354.23605-.52938.42206-.85857.55828-.32919.13596-.68727.20381-1.07424.20381-.38594,0-.74402-.06785-1.07321-.20381-.32919-.13622-.614-.32093-.85238-.55466s-.42516-.50848-.56137-.82348-.20432-.65115-.20432-1.00923v-.01419c0-.35808.06811-.69526.20432-1.0131.13622-.31706.32506-.59413.56859-.83045.24354-.2358.53041-.42232.8596-.55802.32919-.13622.68623-.20432,1.07321-.20432s.74505.06811,1.07424.20432c.32919.1357.61297.32067.85134.55492.23838.23373.42619.50797.5624.82271.13622.31526.20432.65141.20432,1.00949v.01445ZM80.15414,93.48928c-.13518.1762-.33847.2972-.57788.2972h-2.74184c-.20535,0-.3911-.08307-.52525-.21748-.13415-.13415-.21774-.31964-.21774-.52474,0-.40993.33228-.74222.74299-.74222h2.74184c.40968,0,.74196.33228.74196.74222,0,.17027-.06708.31964-.16408.44502ZM90.58388,95.54954h-1.38176v-2.8778l-1.27753,1.9617h-.02889l-1.27031-1.94726v2.86335h-1.36731v-5.01055h1.46741l1.19498,1.93952,1.19601-1.93952h1.46741v5.01055ZM96.69704,93.04426c0,.35808-.06811.69552-.20432,1.0131-.13622.31706-.32506.59388-.56859.83019-.24354.23605-.52938.42206-.8596.55828-.32919.13596-.68727.20381-1.07321.20381-.38697,0-.74505-.06785-1.07424-.20381-.32919-.13622-.61297-.32093-.85134-.55466-.23941-.23373-.42619-.50848-.5624-.82348-.13518-.315-.20432-.65115-.20432-1.00923v-.01419c0-.35808.06914-.69526.20432-1.0131.13622-.31706.32609-.59413.56859-.83045.24354-.2358.53041-.42232.8596-.55802.32919-.13622.68727-.20432,1.07321-.20432h.00103c.38594,0,.74402.06811,1.07321.20432.32919.1357.61297.32067.85238.55492.23838.23373.42516.50797.56137.82271.13622.31526.20432.65141.20432,1.00949v.01445ZM101.53577,91.75564h-1.50352v3.7939h-1.38898v-3.7939h-1.50249v-1.21665h4.395v1.21665ZM107.36928,93.04426c0,.35808-.06811.69552-.20329,1.0131-.13622.31706-.32609.59388-.56963.83019-.24354.23605-.52938.42206-.85857.55828-.32919.13596-.68727.20381-1.07424.20381-.38594,0-.74402-.06785-1.07321-.20381-.32919-.13622-.61297-.32093-.85238-.55466-.23838-.23373-.42619-.50848-.56137-.82348-.13622-.315-.20432-.65115-.20432-1.00923v-.01419c0-.35808.06811-.69526.20432-1.0131.13518-.31706.32506-.59413.56859-.83045.24354-.2358.52938-.42232.8596-.55802.32919-.13622.68623-.20432,1.07321-.20432s.74505.06811,1.07424.20432c.13312.05495.25386.12383.37253.19504.1744.10448.33744.22058.47882.35989.23838.23373.42619.50797.5624.82271.13518.31526.20329.65141.20329,1.00949v.01445ZM116.20675,93.58654c-.13209.12151-.30545.19994-.49946.19994h-2.74184c-.20742,0-.39317-.08565-.52835-.2229-.13106-.13364-.21361-.31655-.21361-.51932,0-.40993.33228-.74222.74196-.74222h2.74184c.41071,0,.74299.33228.74299.74222,0,.21645-.09597.40684-.24354.54228ZM125.71703,94.96985c-.14137.13828-.30029.25747-.47985.35782-.17852.1001-.37975.17904-.60162.23631s-.47056.08565-.74712.08565h-.00103c-.35808,0-.69346-.06424-1.00923-.19323-.31474-.12873-.5882-.30881-.81935-.54047-.23115-.23115-.41484-.50565-.55105-.82297-.13622-.31758-.20432-.66198-.20432-1.03451v-.01419c0-.36272.06708-.70249.20123-1.02032.13312-.31706.3168-.59413.55105-.82993.23322-.23631.51184-.42129.8338-.55492s.67385-.20071,1.05567-.20071c.25798,0,.4912.02554.70171.07533.20948.05005.40142.12177.57582.2149.1744.09287.33228.20381.47262.3328s.26624.26985.37562.42232l-1.04432.80878c-.14344-.18136-.30132-.32428-.47262-.42954-.17233-.10474-.37975-.15737-.62329-.15737-.17646,0-.33744.03457-.48294.10397-.1455.06888-.2714.1633-.37562.28249-.10526.11945-.18781.26056-.24663.42232-.06088.16253-.08978.33409-.08978.51545v.01445c0,.18601.02889.36118.08978.52603.05882.16459.14137.30674.24663.42593.10423.11945.23012.21335.37562.28275.1455.06914.30648.10371.48294.10371.12899,0,.24766-.01419.35395-.04308.10732-.02838.20535-.07017.2941-.12512.08875-.05469.1713-.11945.25076-.19323.07843-.07378.15582-.15634.23218-.24689l1.04535.74454c-.1197.16227-.24973.31242-.39007.45095ZM130.41645,95.54954l-.3653-.89468h-1.93281l-.35808.89468h-1.46018l2.133-5.0464h1.33945l2.133,5.0464h-1.48908ZM137.71737,95.54954h-1.38176v-2.8778l-1.27753,1.9617h-.02786l-1.27134-1.94726v2.86335h-1.36731v-5.01055h1.46741l1.19601,1.93952,1.19498-1.93952h1.46741v5.01055ZM140.02993,95.54954h-1.3962v-5.01055h1.3962v5.01055ZM146.17095,93.04426c0,.35808-.06708.69552-.20329,1.0131-.13622.31706-.32609.59388-.56963.83019-.24354.23605-.52938.42206-.85857.55828-.32919.13596-.68727.20381-1.07424.20381-.38594,0-.74402-.06785-1.07321-.20381-.32919-.13622-.614-.32093-.85238-.55466s-.42516-.50848-.56137-.82348-.20432-.65115-.20432-1.00923v-.01419c0-.35808.06811-.69526.20432-1.0131.13622-.31706.32506-.59413.56859-.83045.24354-.2358.53041-.42232.8596-.55802.32919-.13622.68727-.20432,1.07321-.20432.38697,0,.74505.06811,1.07424.20432.32919.1357.61297.32067.85134.55492.23838.23373.42619.50797.5624.82271.13622.31526.20329.65141.20329,1.00949v.01445ZM151.62574,95.54954h-1.21974l-2.14435-2.74881v2.74881h-1.36731v-5.01055h1.29817l2.06593,2.64845v-2.64845h1.36731v5.01055ZM128.52595,93.58113h1.12481l-.55931-1.42458-.5655,1.42458ZM105.59333,92.09927c-.11454-.12383-.25076-.2229-.40968-.29694-.15685-.07404-.33228-.11093-.52319-.11093-.19194,0-.3653.03586-.52113.10732-.15479.07146-.28894.1682-.40142.28997-.11248.12151-.19916.26392-.25798.42567-.02993.08126-.02993.17182-.04541.25772-.01445.08591-.04437.16717-.04437.25772v.01445c0,.18136.03096.35292.09287.51519.06192.16253.14963.30545.26211.42954s.24766.22316.40555.2972.33228.11093.52422.11093c.19091,0,.36634-.03586.52319-.10732.15892-.07172.29204-.1682.40245-.28997s.19607-.26366.25798-.42593c.06295-.16227.09391-.33383.09391-.51545v-.01419c0-.18136-.03096-.35318-.09391-.51545-.06192-.16227-.15066-.30519-.26521-.42954Z" style="fill:#fff; stroke-width:0px;"/><path d="M83.93205,54.60829c-1.0794.71319-2.59634,1.06895-4.55185,1.06895-2.44361,0-4.69426-.46747-6.74987-1.40498-2.05767-.93622-4.06272-2.1993-6.01823-3.78771l-5.55902,6.65906c2.56641,2.32146,5.41661,4.04246,8.55265,5.16198,3.13604,1.1199,6.33297,1.68024,9.59181,1.68024,2.32185,0,4.43524-.29591,6.34329-.88591,1.90804-.58988,3.54881-1.44522,4.92644-2.5659,1.37453-1.11952,2.44671-2.50463,3.21653-4.15404.76776-1.64954,1.15267-3.53282,1.15267-5.65086v-.12254c0-1.8727-.2972-3.482-.88849-4.82583-.59233-1.34435-1.4705-2.51443-2.63349-3.51295-1.16505-.99736-2.59324-1.85258-4.28768-2.56564-1.69546-.71203-3.62518-1.35364-5.78811-1.92442-1.8389-.48875-3.35997-.91648-4.56423-1.28282-1.2053-.36659-2.15467-.75318-2.84813-1.16105-.69552-.40645-1.17434-.8645-1.43954-1.37428-.26521-.509-.39833-1.10946-.39833-1.80227v-.12215c0-1.05876.45818-1.94468,1.37453-2.65774.91636-.71203,2.29089-1.06895,4.1236-1.06895s3.66542.37717,5.49813,1.13035c1.83271.75396,3.70567,1.78215,5.62093,3.08522l4.88723-7.08679c-2.19905-1.75067-4.61274-3.09451-7.24003-4.03202-2.62627-.93648-5.50845-1.40498-8.64346-1.40498-2.20008,0-4.21338.30532-6.03783.9161-1.82652.6109-3.39609,1.4874-4.7118,2.62717-1.31571,1.14041-2.33733,2.49521-3.06484,4.06233-.72854,1.56854-1.09178,3.32966-1.09178,5.28452v.12203c0,2.11843.33641,3.89,1.01026,5.31522.67385,1.42587,1.62323,2.61724,2.84813,3.57358,1.2249.95763,2.71501,1.76215,4.47136,2.41317,1.75635.65192,3.71599,1.24296,5.88098,1.77157,1.79659.44863,3.25574.87637,4.37952,1.28321,1.12274.40736,2.00092.81497,2.63349,1.22181.63257.40736,1.06186.84567,1.28682,1.31339.22496.4685.33744,1.00794.33744,1.61884v.12203c0,1.26308-.54073,2.25103-1.6191,2.96306ZM91.41871,70.02315l-3.92856,8.68267h.99788l1.02264-2.27825h4.69219l1.01026,2.27825h1.04638l-3.92856-8.68267h-.91223ZM89.89249,75.55276l1.96996-4.3968,1.95861,4.3968h-3.92856ZM97.342,70.98362h2.89354v7.7222h.97311v-7.7222h2.89457v-.89907h-6.76122v.89907ZM84.63479,77.62823c-.42722.218-.93596.32635-1.52726.32635-.47572,0-.91739-.0921-1.32397-.27707-.40658-.18472-.7595-.43728-1.05876-.75718-.30029-.32067-.53454-.6963-.70171-1.12713-.16924-.43109-.25282-.89701-.25282-1.39775v-.02451c0-.49275.08359-.95479.25282-1.38588.16717-.43096.40142-.80671.70171-1.12674.29926-.32041.65218-.57079,1.05876-.75138s.84825-.27101,1.32397-.27101c.5913,0,1.09798.11093,1.52107.33267.42309.22161.81935.50474,1.18879.8498l.66456-.71423c-.21361-.20523-.43548-.39226-.66456-.56073-.23012-.16795-.47985-.31164-.75125-.43096-.2714-.1188-.56447-.21142-.88127-.27707-.31577-.06566-.67076-.09868-1.06495-.09868-.63257,0-1.21562.11712-1.74912.35111-.53351.23425-.99272.55428-1.37866.96073-.38594.40632-.6883.88075-.90604,1.42252-.21774.54202-.32609,1.11668-.32609,1.72436v.02451c0,.61555.10835,1.19472.32609,1.73648.21774.54202.52009,1.01207.90604,1.41039.38594.39807.84102.71229,1.36628.94215s1.10004.34467,1.72436.34467c.3942,0,.75228-.03689,1.07218-.11093.3199-.07353.61916-.1762.89881-.30777.27862-.13106.5397-.28946.7822-.47391.2425-.18497.47366-.39239.69552-.622l-.64083-.62845c-.41071.3942-.82864.70017-1.25586.91765ZM62.0262,70.08455h-.97311v8.62127h5.82526v-.89907h-4.85214v-7.7222ZM75.87988,71.26083c-.38594-.40645-.84722-.72867-1.38588-.96679-.53764-.23812-1.13513-.35731-1.79143-.35731-.65734,0-1.25586.12151-1.79763.3635-.5428.24237-1.00613.56653-1.39208.97285-.38697.40632-.68623.88075-.89984,1.42265s-.3199,1.10829-.3199,1.69972v.02451c0,.59104.10526,1.15576.31371,1.69366.20948.53789.50771,1.00975.89365,1.41607s.84722.72906,1.38485.96718c.53867.23786,1.13513.35679,1.79247.35679.65631,0,1.25586-.12099,1.79763-.36298.5428-.2425,1.00613-.56679,1.39208-.97337.38594-.40632.6852-.88024.89984-1.42226.21258-.54228.3199-1.10855.3199-1.69959.00722-.00826.00722-.01625,0-.02451,0-.59155-.10526-1.15576-.31371-1.69366-.20948-.53764-.50771-1.01-.89365-1.41646ZM76.07698,74.41996c0,.49275-.08462.95273-.25282,1.37943-.1682.42696-.40039.80026-.69552,1.12094-.29513.3199-.65115.57246-1.06495.75718-.41484.18497-.86889.27707-1.36112.27707-.49326,0-.94628-.09442-1.36112-.28327-.41484-.18859-.77395-.44321-1.07734-.76337-.30442-.32041-.5397-.69604-.70894-1.12713-.1682-.43083-.25179-.89314-.25179-1.38537v-.02451c0-.49275.08359-.95273.25179-1.37969.16924-.4267.40039-.80052.69655-1.12068.29513-.32041.65012-.57298,1.06495-.75744.41484-.18472.86889-.2772,1.36112-.2772s.94628.09468,1.36112.28327c.4138.18897.77395.44334,1.07734.76376.30442.3199.5397.69578.70791,1.12661.1682.43135.25282.89314.25282,1.38588v.02451ZM136.19733,63.43736c1.24657-.36479,2.38583-.84851,3.41776-1.45115v-7.86809c-1.50456.8605-3.11747,1.28966-4.83666,1.28966-2.1072,0-3.16081-1.12171-3.16081-3.36577v-13.9058h7.97271v-9.29564h-7.97271v-8.84056h-9.80232v8.83592h-4.12773v9.29551h4.12773v15.47085c0,2.02117.24663,3.68683.74093,4.99829.4943,1.3121,1.18259,2.37589,2.06386,3.19241.88127.81716,1.93487,1.38653,3.16081,1.70914,1.2249.32222,2.59015.48372,4.09574.48372,1.63252,0,3.07309-.18355,4.3207-.54847ZM138.61618,76.54135c.18162-.08591.34054-.19658.47262-.32893.13518-.13493.24147-.29642.3168-.48062.07327-.18239.11145-.38981.11145-.63051,0-.21748-.03818-.42154-.11145-.606-.07533-.18549-.18265-.34957-.3199-.48759-.1713-.1713-.38904-.30623-.64909-.40142-.25489-.09313-.54589-.14034-.86682-.14034h-2.27954v5.23783h.93596v-1.88379h1.09385l1.40549,1.88379h1.15989l-1.54583-2.05561c.09597-.02967.18781-.06553.27656-.1068ZM137.58734,76.0259h-1.35596v-1.75196h1.36215c.33538,0,.59542.07507.78117.22522.18575.15002.27759.35885.27759.62612v.01213c0,.14008-.0258.26417-.07946.3733s-.12693.20148-.22187.27785c-.09494.07585-.20742.13441-.33744.17543-.13002.04128-.27243.06192-.42619.06192ZM130.64967,78.70376h.93699v-2.11236h2.62523v-.88127h-2.62523v-1.34886h2.93585v-.89533h-3.87284v5.23783ZM128.51253,78.70325h.97621v-1.05773h-.97621v1.05773ZM111.27102,20h-9.75382v8.8323h9.75382v-8.8323ZM111.27102,38.13801h-9.75382v25.84783h9.75382v-25.84783ZM106.02261,78.70583h.97311v-8.62127h-.97311v8.62127ZM116.72375,71.26083c-.38594-.40645-.84825-.72867-1.38588-.96679s-1.13513-.35731-1.79247-.35731c-.65631,0-1.25586.12151-1.79763.3635-.54176.24237-1.00613.56653-1.39208.97285-.38594.40632-.6852.88075-.89881,1.42265s-.3199,1.10829-.3199,1.69972v.02451c0,.59104.10423,1.15576.31371,1.69366s.50668,1.00975.89262,1.41607.84825.72906,1.38588.96718c.53764.23786,1.13513.35679,1.79247.35679.65631,0,1.25586-.12099,1.79763-.36298.54176-.2425,1.0051-.56679,1.39208-.97337.38594-.40632.6852-.88024.89881-1.42226.21361-.54228.3199-1.10855.3199-1.69959.00826-.00826.00826-.01625,0-.02451,0-.59155-.10423-1.15576-.31371-1.69366-.20948-.53764-.50771-1.01-.89262-1.41646ZM116.92084,74.41996c0,.49275-.08462.95273-.25282,1.37943-.1682.42696-.40039.80026-.69552,1.12094-.29616.3199-.65115.57246-1.06599.75718-.41484.18497-.86785.27707-1.36112.27707-.49223,0-.94628-.09442-1.36009-.28327-.41484-.18859-.77395-.44321-1.07837-.76337-.30339-.32041-.5397-.69604-.70791-1.12713-.1682-.43083-.25282-.89314-.25282-1.38537v-.02451c0-.49275.08462-.95273.25282-1.37969.1682-.4267.40039-.80052.69552-1.12068.29616-.32041.65115-.57298,1.06599-.75744.4138-.18472.86785-.2772,1.36112-.2772.49223,0,.94525.09468,1.36009.28327.41484.18897.77395.44334,1.07734.76376.30442.3199.54073.69578.70894,1.12661.1682.43135.25282.89314.25282,1.38588v.02451ZM126.32794,76.99385l-5.43106-6.9093h-.9112v8.62127h.94835v-7.06925l5.56624,7.06925h.77601v-8.62127h-.94835v6.9093ZM45.16753,39.93976h-8.66823c-1.24967,0-2.26251,1.01258-2.26251,2.26212,0,1.24928,1.01284,2.26187,2.26251,2.26187h8.66823c1.24967,0,2.26199-1.01258,2.26199-2.26187,0-1.24954-1.01233-2.26212-2.26199-2.26212ZM163.50122,39.93976h-8.66926c-1.24864,0-2.26199,1.01258-2.26199,2.26212,0,1.24928,1.01336,2.26187,2.26199,2.26187h8.66926c1.24864,0,2.26199-1.01258,2.26199-2.26187,0-1.24954-1.01336-2.26212-2.26199-2.26212Z" style="fill:#fff; stroke-width:0px;"/></svg>