<?xml version="1.0" encoding="UTF-8"?><svg id="uuid-1c2a739f-b956-45f1-9527-cd7bc66a2be2" xmlns="http://www.w3.org/2000/svg" width="200" height="120" viewBox="0 0 200 120"><path d="M89.54048,50.78237h-3.31494l-1.82987-4.48049h-5.91249l-1.72263,4.48049h-1.5117l6.9998-17.65831h.05307l7.23877,17.65831ZM81.42687,38.8777l-2.49225,6.30988h5.01108l-2.51882-6.30988Z" style="fill:#fff; stroke-width:0px;"/><polygon points="102.82104 50.78249 102.82104 33.60121 106.05586 33.60121 106.05586 49.43062 112.94995 49.43062 112.94995 50.78249 102.82104 50.78249" style="fill:#fff; stroke-width:0px;"/><polygon points="126.41368 50.78249 126.41368 33.60121 136.56859 33.60121 136.56859 34.71508 129.6485 34.71508 129.6485 41.34357 136.17127 41.34357 136.17127 42.4569 129.6485 42.4569 129.6485 49.66867 136.67485 49.66867 136.67485 50.78249 126.41368 50.78249" style="fill:#fff; stroke-width:0px;"/><polygon points="150.16856 50.78249 150.16856 33.60121 153.0582 33.60121 162.04666 45.42667 162.0993 45.42667 162.0993 33.60121 163.47768 33.60121 163.47768 50.78249 162.04666 50.78249 151.59963 37.07457 151.547 37.07457 151.547 50.78249 150.16856 50.78249" style="fill:#fff; stroke-width:0px;"/><polygon points="180.42885 49.66867 189.84029 49.66867 189.84029 50.78249 175.94794 50.78249 185.46601 34.7146 176.84934 34.7146 176.84934 33.60121 190.00012 33.60121 180.42885 49.66867" style="fill:#fff; stroke-width:0px;"/><polygon points="57.63311 50.78249 57.63311 34.71508 54.21337 34.71508 54.21337 33.60121 64.28865 33.60121 64.28865 34.71508 60.86793 34.71508 60.86793 50.78249 57.63311 50.78249" style="fill:#fff; stroke-width:0px;"/><line x1="54.21337" y1="58.96476" x2="189.84029" y2="58.96476" style="fill:none; stroke:#fff; stroke-miterlimit:10; stroke-width:.60652px;"/><path d="M54.08709,73.7128v-6.4777h4.09402v.61865h-3.35703v2.25638h3.1752v.62781h-3.1752v2.35621h3.35703v.61865h-4.09402Z" style="fill:#fff; stroke-width:0px;"/><path d="M64.64049,67.2351h.70976v6.4777h-.58226l-3.91206-5.21317v5.21317h-.70066v-6.4777h.57335l3.91187,5.21317v-5.21317Z" style="fill:#fff; stroke-width:0px;"/><path d="M69.22579,73.7128v-5.84074h-2.25638v-.63697h5.26769v.63697h-2.25625v5.84074h-.75506Z" style="fill:#fff; stroke-width:0px;"/><path d="M78.95117,73.7128h-.79132l-.8008-2.15624c-.09698-.26687-.23187-.44573-.40485-.53665-.1728-.09092-.41699-.13653-.73238-.13653h-1.61935v2.82942h-.73686v-6.4777h2.57462c.69744,0,1.23275.15484,1.60589.46405.37288.30945.55945.75518.55945,1.33744,0,.42469-.11075.78096-.332,1.06911-.22151.28785-.54139.4928-.95983.61392.18778.03051.34857.11075.48212.24103.13331.13064.24552.31721.33662.55945l.81868,2.19269ZM76.37655,70.26473c.99463,0,1.49216-.40637,1.49216-1.21899,0-.40043-.12143-.6992-.36397-.89613-.24266-.19724-.61865-.29586-1.12819-.29586h-1.77407v2.41098h1.77407Z" style="fill:#fff; stroke-width:0px;"/><path d="M80.88889,73.7128v-6.4777h4.09402v.61865h-3.35686v2.25638h3.17502v.62781h-3.17502v2.35621h3.35686v.61865h-4.09402Z" style="fill:#fff; stroke-width:0px;"/><path d="M86.95725,67.2351h2.58378c.66723,0,1.18727.16079,1.56028.48243.37301.32127.55957.76403.55957,1.32822,0,.56388-.18808,1.0084-.56419,1.33271-.3761.32455-.89468.48685-1.55567.48685h-1.83764v2.84749h-.74614v-6.4777ZM89.47735,70.24665c.47915,0,.83991-.10305,1.08269-.30951.24243-.2061.36385-.50317.36385-.8914s-.12143-.68379-.36385-.88728c-.24278-.20288-.60355-.30472-1.08269-.30472h-1.77396v2.39291h1.77396Z" style="fill:#fff; stroke-width:0px;"/><path d="M98.68414,73.7128h-.79132l-.8008-2.15624c-.09698-.26687-.23187-.44573-.40485-.53665-.1728-.09092-.41698-.13653-.73237-.13653h-1.61934v2.82942h-.73687v-6.4777h2.57462c.69744,0,1.23276.15484,1.60589.46405.37282.30945.55945.75518.55945,1.33744,0,.42469-.11081.78096-.332,1.06911-.2215.28785-.54139.4928-.95983.61392.18772.03051.34857.11075.48212.24103.13326.13064.24552.31721.33656.55945l.81874,2.19269ZM96.10952,70.26473c.99463,0,1.49216-.40637,1.49216-1.21899,0-.40043-.12143-.6992-.36397-.89613-.24267-.19724-.61865-.29586-1.12819-.29586h-1.77407v2.41098h1.77407Z" style="fill:#fff; stroke-width:0px;"/><path d="M100.62186,73.7128v-6.4777h4.09402v.61865h-3.35691v2.25638h3.17508v.62781h-3.17508v2.35621h3.35691v.61865h-4.09402Z" style="fill:#fff; stroke-width:0px;"/><path d="M111.17545,67.2351h.70969v6.4777h-.5822l-3.91219-5.21317v5.21317h-.70059v-6.4777h.57323l3.91206,5.21317v-5.21317Z" style="fill:#fff; stroke-width:0px;"/><path d="M114.19574,67.2351h2.17432c1.03714,0,1.83927.2807,2.40655.84161.56685.56121.85058,1.35727.85058,2.38818,0,1.03715-.28374,1.83764-.85058,2.40182-.56729.56419-1.36941.8461-2.40655.8461h-2.17432v-6.4777ZM116.32462,73.07607c.83707,0,1.46609-.21853,1.8878-.6551.42147-.43682.63229-1.08864.63229-1.95609,0-1.72865-.84015-2.59282-2.52009-2.59282h-1.38286v5.20401h1.38286Z" style="fill:#fff; stroke-width:0px;"/><path d="M126.78699,73.7128h-.79133l-.80079-2.15624c-.09704-.26687-.23193-.44573-.40486-.53665-.17279-.09092-.41698-.13653-.73237-.13653h-1.61941v2.82942h-.7368v-6.4777h2.57462c.69744,0,1.23269.15484,1.60588.46405.37283.30945.5594.75518.5594,1.33744,0,.42469-.11076.78096-.33196,1.06911-.22155.28785-.54137.4928-.95987.61392.18778.03051.34863.11075.48218.24103.13325.13064.24552.31721.33655.55945l.81875,2.19269ZM124.21237,70.26473c.99463,0,1.49216-.40637,1.49216-1.21899,0-.40043-.12143-.6992-.36397-.89613-.24273-.19724-.61865-.29586-1.12819-.29586h-1.77413v2.41098h1.77413Z" style="fill:#fff; stroke-width:0px;"/><path d="M128.7247,73.7128v-6.4777h4.09402v.61865h-3.35691v2.25638h3.17508v.62781h-3.17508v2.35621h3.35691v.61865h-4.09402Z" style="fill:#fff; stroke-width:0px;"/><path d="M54.08709,85.18369v-6.47776h4.09402v.61871h-3.35703v2.25638h3.1752v.62781h-3.1752v2.35621h3.35703v.61865h-4.09402Z" style="fill:#fff; stroke-width:0px;"/><path d="M59.79142,84.43767l.2821-.57304c.32133.27275.64886.46702.98262.58226.33347.11518.72158.17262,1.16446.17262.52154,0,.92342-.10123,1.20533-.30472.2821-.20318.42323-.48952.42323-.85974,0-.21823-.06842-.39563-.20476-.53216-.13641-.13653-.31557-.24406-.53683-.32279-.2215-.07879-.51706-.16085-.88698-.24582-.49753-.1093-.90681-.22745-1.22827-.35481-.32145-.12731-.58225-.31066-.78229-.55054-.20021-.23927-.30028-.55321-.30028-.94144,0-.36992.0968-.69598.29113-.97789.19396-.28227.46847-.50202.82329-.65983.35475-.15757.76883-.23636,1.24192-.23636.44883,0,.86726.06963,1.25555.20907.38794.1398.71545.34268.98245.60949l-.29107.57334c-.30344-.26086-.61114-.45192-.92343-.57334-.3126-.12112-.65377-.18183-1.0235-.18183-.5036,0-.89778.10784-1.18272.32309-.28519.21531-.4276.51087-.4276.88698,0,.32758.12421.5731.37301.73686.24861.16376.63059.30623,1.1462.42766.558.13356.99627.25613,1.31464.3684.31854.11221.58371.28191.79606.50936.21234.22745.31854.52925.31854.90535,0,.36397-.09717.68379-.29113.95982-.19415.27603-.47164.48983-.83251.64146-.36082.15163-.78405.22745-1.26915.22745-1.01301,0-1.81956-.27306-2.42002-.81886Z" style="fill:#fff; stroke-width:0px;"/><path d="M68.10664,85.18369v-5.84074h-2.25608v-.63703h5.26752v.63703h-2.25626v5.84074h-.75518Z" style="fill:#fff; stroke-width:0px;"/><path d="M76.44466,84.597c-.43366-.43979-.65049-1.0904-.65049-1.9516v-3.93947h.73686v4.0031c0,.63084.15472,1.10702.46405,1.42836.30933.32164.76719.48212,1.37389.48212.60027,0,1.05371-.16049,1.36007-.48212.30605-.32133.45949-.79751.45949-1.42836v-4.0031h.74596v3.93947c0,.85526-.21841,1.50411-.65504,1.94687-.43669.44276-1.0736.66426-1.91048.66426-.84937,0-1.49071-.21974-1.92431-.65953Z" style="fill:#fff; stroke-width:0px;"/><path d="M87.69393,78.70592h.7097v6.47776h-.58221l-3.91206-5.21317v5.21317h-.70071v-6.47776h.5734l3.91188,5.21323v-5.21323Z" style="fill:#fff; stroke-width:0px;"/><path d="M98.75668,85.18369l-.70956-1.66496h-3.38445l-.71873,1.66496h-.77331l2.84755-6.47776h.6551l2.84762,6.47776h-.76422ZM94.92657,82.90008h2.85665l-1.42836-3.32968-1.4283,3.32968Z" style="fill:#fff; stroke-width:0px;"/><path d="M106.28962,85.18369h-.79146l-.80066-2.1563c-.09711-.26681-.23188-.44567-.40479-.53659-.17299-.09092-.41698-.13653-.73243-.13653h-1.61936v2.82942h-.73698v-6.47776h2.57461c.69744,0,1.23287.15491,1.60589.46411.37301.30945.55958.75518.55958,1.33744,0,.42469-.11075.78096-.33213,1.06911-.2215.28785-.54137.4928-.95981.61392.18789.03051.34869.11075.48224.24103.13331.13064.24552.31721.33644.55945l.81886,2.19269ZM103.71488,81.73562c.99482,0,1.49216-.40637,1.49216-1.21899,0-.40043-.12142-.6992-.36397-.89613-.24268-.19724-.61853-.29586-1.12819-.29586h-1.77396v2.41098h1.77396Z" style="fill:#fff; stroke-width:0px;"/><path d="M109.79222,85.18369v-5.84074h-2.2562v-.63703h5.26751v.63703h-2.25607v5.84074h-.75524Z" style="fill:#fff; stroke-width:0px;"/><path d="M123.02935,78.70592h.61871v6.47776h-.69137v-4.81274l-2.10165,4.81274h-.52773l-2.11973-4.77635.00904,4.77635h-.69137v-6.47776h.61865l2.45646,5.58606,2.42899-5.58606Z" style="fill:#fff; stroke-width:0px;"/><path d="M130.91709,85.18369l-.70957-1.66496h-3.38445l-.7186,1.66496h-.77337l2.84761-6.47776h.65511l2.84767,6.47776h-.7644ZM127.08698,82.90008h2.85665l-1.4283-3.32968-1.42836,3.32968Z" style="fill:#fff; stroke-width:0px;"/><path d="M132.51843,86.15715c.27287.04858.49128.07284.65504.07284.3092,0,.52598-.08649.65037-.25941.1244-.17268.18657-.46854.18657-.88698v-6.37769h.74602v6.38685c0,.63084-.11372,1.08573-.34117,1.36467-.22745.279-.60209.4185-1.12357.4185-.20628,0-.46394-.02432-.77326-.0729v-.64588Z" style="fill:#fff; stroke-width:0px;"/><path d="M137.0762,85.18369v-6.47776h4.09402v.61871h-3.35692v2.25638h3.17508v.62781h-3.17508v2.35621h3.35692v.61865h-4.09402Z" style="fill:#fff; stroke-width:0px;"/><path d="M143.74956,84.597c-.43372-.43979-.65049-1.0904-.65049-1.9516v-3.93947h.7368v4.0031c0,.63084.15478,1.10702.46411,1.42836.30933.32164.76719.48212,1.37382.48212.60028,0,1.05371-.16049,1.36007-.48212.3061-.32133.45949-.79751.45949-1.42836v-4.0031h.74603v3.93947c0,.85526-.21841,1.50411-.65511,1.94687-.43669.44276-1.07353.66426-1.91048.66426-.84936,0-1.4907-.21974-1.92425-.65953Z" style="fill:#fff; stroke-width:0px;"/><path d="M155.59934,85.18369h-.79158l-.80054-2.1563c-.09711-.26681-.232-.44567-.40479-.53659-.17298-.09092-.41717-.13653-.73243-.13653h-1.61935v2.82942h-.7371v-6.47776h2.57474c.69744,0,1.23288.15491,1.60576.46411.37313.30945.55958.75518.55958,1.33744,0,.42469-.11076.78096-.33214,1.06911-.22155.28785-.54137.4928-.95982.61392.18803.03051.34882.11075.48225.24103.13343.13064.24564.31721.33655.55945l.81887,2.19269ZM153.02459,81.73562c.99482,0,1.49204-.40637,1.49204-1.21899,0-.40043-.12142-.6992-.36397-.89613-.24256-.19724-.61853-.29586-1.12808-.29586h-1.77394v2.41098h1.77394Z" style="fill:#fff; stroke-width:0px;"/><path d="M26.29187,33.60575c.25391,1.07825.33105,2.25818.19678,3.54358-.63525,6.07861-4.90723,7.58594-7.98193,8.09338l-.01318.12317c3.34033,1.25513,7.44482,3.82471,6.76514,10.33276-.8208,7.85938-6.22607,10.37305-13.86426,9.63074-.47852-.04651-.93896-.11731-1.39453-.1947v9.70581c1.34668,3.33447,4.24512,5.69458,8.72559,5.69458,2.91309,0,6.58301-2.23853,6.58301-6.45435-.10791-3.01941-1.72656-4.63281-2.85986-5.56982v-2.91455l15.32129.77551.02441-7.37756-3.45654-.00391c-3.22607-.00378-3.3042,1.33032-3.53809,3.59009l-1.19043-.00146.19873-5.03882h.02197l-.00244-1.09497,11.93408-19.00134-7.26953.01331c-2.83447.00476-2.86523,1.22778-3.06152,3.15845l-1.03369.00134.19141-4.40735,15.03906-.02734.00293,1.38306-11.96777,19.03406,8.37012-.0155c2.83447-.00537,2.86523-1.38831,3.09424-3.57666l.5332-.00085v-19.40063h-19.36816ZM19.58777,55.20963c.51318-4.91162-1.38721-8.88013-6.22461-9.35022-1.28223-.12451-2.39893.09265-3.36328.54761v16.18958c.48682.16431,1.01367.27734,1.58105.33252,5.15479.50061,7.50049-2.8689,8.00684-7.71948ZM20.82996,36.53775c.10742-1.03027.08838-2.01917-.06787-2.93201h-10.76221v8.63391c.86328.82141,2.03174,1.38184,3.58105,1.53247,4.8374.46997,6.79395-2.87537,7.24902-7.23438ZM41.13562,58.99845l-.00488,26.1731-3.42285.00879.04932-14.97998-11.58545-.59619c.43115.72876,1.77979,2.96704,1.77979,6.24634,0,5.36157-3.83008,9.31726-9.49561,9.31726-3.77051,0-6.56689-1.50305-8.45605-3.82166v3.83777h35.66016v-26.12073c-.31152-.03955-.66406-.06055-1.06787-.06116l-3.45654-.00354Z" style="fill:#fff; stroke-width:0px;"/></svg>