<?xml version="1.0" encoding="UTF-8"?><svg id="uuid-f9316648-17c9-4b67-84f0-520b44edc239" xmlns="http://www.w3.org/2000/svg" width="220" height="120" viewBox="0 0 220 120"><path d="M115.0153,44.00147h22.21807v5.36791h-16.21708v7.6779h15.7857v5.20743h-15.7857v7.78538h16.21708v5.36938h-22.21807v-31.40799ZM197.61125,75.99984c6.8122,0,10.65041-3.22133,10.65041-7.6779,0-3.16686-2.27172-5.52986-7.02863-6.55014l-5.02781-1.02028c-2.91952-.53591-3.83822-1.07329-3.83822-2.14657,0-1.39571,1.40602-2.25552,4.00164-2.25552,2.81056,0,4.86585.75086,5.46066,3.32734h5.89203c-.3239-4.83053-3.83821-8.05333-10.97432-8.05333-6.16293,0-10.48847,2.52495-10.48847,7.40995,0,3.38328,2.37919,5.58433,7.51448,6.65761l5.62261,1.28824c2.21578.4299,2.81056,1.02029,2.81056,1.93309,0,1.45019-1.67545,2.363-4.37854,2.363-3.40537,0-5.35171-.75086-6.10846-3.32881h-5.94798c.86569,4.832,4.48748,8.05333,11.84001,8.05333h.00002ZM184.17824,70.14756h-4.43301c-1.35154,0-2.21724-.59038-2.21724-1.82562v-10.84476h6.65025v-5.2619h-6.65025v-6.60314h-5.94651v6.60314h-4.48748v5.2619h4.48748v12.34795c0,3.11386,2.21577,5.58286,6.21741,5.58286h6.37936v-5.26043ZM164.58377,52.21528v23.19418h-5.89203v-2.09357c-2.09217,1.7477-4.73541,2.69849-7.46148,2.68395-6.97415,0-12.43334-5.42238-12.43334-12.18747s5.46066-12.18747,12.43334-12.18747c2.72625-.01412,5.36951.9372,7.46148,2.68542v-2.09357h5.89203v-.00147ZM158.79921,63.81237c.03509-3.87921-3.08118-7.05237-6.96038-7.08747-.04041-.00037-.08083-.00038-.12124-.00005-3.89886-.01223-7.06942,3.13852-7.08165,7.03738-.00006.01671-.00004.03343.00002.05014-.01466,3.89885,3.13411,7.07138,7.03296,7.08603.01623.00006.03245.00006.04867.00001,3.94569,0,7.08163-3.11386,7.08163-7.08605ZM24.25413,71.72878c4.38148,0,7.76918-3.36561,7.76918-8.34631v-19.38246h4.74513v31.40652h-4.69949v-2.9151c-2.12302,2.19663-5.0602,3.45395-8.35809,3.45395-6.7754,0-11.97252-4.89089-11.97252-12.29347v-19.65042h4.74513v19.38247c0,5.06903,3.34206,8.34484,7.77065,8.34484ZM40.29159,75.40651h4.5184v-2.87093c2.17376,2.191,5.1348,3.41964,8.22117,3.41125,6.77687,0,12.10797-5.33993,12.10797-11.93571,0-6.63995-5.32962-11.97841-12.10797-11.97841-3.07321-.00884-6.02053,1.22018-8.177,3.40978v-11.44103h-4.56404v31.40652l.00147-.00147ZM52.7161,71.95256c-4.37207.01954-7.93217-3.50888-7.95171-7.88095-.00009-.02016-.0001-.04032-.00004-.06048-.01386-4.37209,3.51918-7.92761,7.89127-7.94147.01967-.00006.03934-.00005.059.00003,4.36642-.00004,7.90614,3.5396,7.90618,7.90602,0,.01181-.00003.02361-.00008.03541,0,4.39768-3.56732,7.94144-7.9061,7.94144h.00147ZM78.78268,52.07688c-6.73123,0-11.83707,5.42827-11.83707,11.8886,0,6.81956,5.33257,11.93571,12.24342,11.93571,4.20187,0,7.63521-1.84034,9.93931-4.89089l-3.29789-2.42336c-1.71667,2.28791-3.97514,3.36561-6.63995,3.36561-3.8868,0-7.0036-2.78259-7.63668-6.50597h18.74939v-1.48111c0-6.81957-4.87911-11.8886-11.52053-11.8886ZM71.6451,61.85719c.81417-3.49959,3.66007-5.83167,7.04777-5.83167,3.38917,0,6.23507,2.33208,7.0036,5.83167h-14.05284.00147ZM104.44586,56.5629v-4.21659h-1.58122c-2.52936,0-4.38149,1.16604-5.51072,3.00638v-2.82676h-4.5184v22.88206h4.56404v-13.01194c0-3.54376,2.16719-5.83314,5.14854-5.83314h1.89776Z" style="fill:#fff; stroke-width:0px;"/></svg>