<?xml version="1.0" encoding="UTF-8"?><svg id="uuid-d63f30fe-9b9b-467e-b898-fe76c662560e" xmlns="http://www.w3.org/2000/svg" width="270" height="30" viewBox="0 0 270 30"><path d="m153.30413,3.44492h26.84874c2.75958,0,5,2.24042,5,5v18.11017h-36.84874V8.44492c0-2.75958,2.24042-5,5-5Z" style="fill:#34bc6e; stroke-width:0px;"/><path d="m135.2028,16.48753h13.10133v10.06755h-13.10133c-1.10383,0-2-.89617-2-2v-6.06755c0-1.10383.89617-2,2-2Z" style="fill:#2e9b43; stroke-width:0px;"/><rect x="185.15287" y="16.48753" width="15.10133" height="10.06755" style="fill:#cadd00; stroke-width:0px;"/><rect x="200.2542" y="16.48753" width="15.10133" height="10.06755" style="fill:#f7ed00; stroke-width:0px;"/><rect x="215.35552" y="16.48753" width="15.10133" height="10.06755" style="fill:#ffce00; stroke-width:0px;"/><rect x="230.45685" y="16.48753" width="15.10133" height="10.06755" style="fill:#fb9929; stroke-width:0px;"/><path d="m245.55817,16.48753h13.10133c1.10383,0,2,.89617,2,2v6.06755c0,1.10383-.89617,2-2,2h-13.10133v-10.06755h0Z" style="fill:#f01c16; stroke-width:0px;"/><path d="m161.97949,8.62305h4.27637c1.85547,0,3.25488.26953,4.19922.80664.94336.53711,1.41504,1.46484,1.41504,2.78223,0,.55078-.09668,1.04688-.29004,1.48926s-.47363.80664-.83984,1.0918c-.36719.28516-.82031.47656-1.35742.5752v.09766c.55664.09863,1.05371.27246,1.48926.52148.43652.24902.78027.60645,1.03223,1.07129.25293.46582.37891,1.06836.37891,1.80957,0,.87793-.20801,1.625-.62402,2.24121-.41699.61621-1.00977,1.08496-1.78027,1.40625-.76953.32129-1.68262.48145-2.7373.48145h-5.16211v-14.37402Zm2.36035,5.92871h2.26074c1.06836,0,1.80957-.17383,2.22168-.52148.41309-.34668.61914-.85449.61914-1.52344,0-.68164-.24414-1.17285-.73242-1.47461s-1.2627-.45215-2.32422-.45215h-2.04492v3.97168Zm0,1.90723v4.56152h2.48633c1.10156,0,1.875-.21289,2.32031-.63867.44629-.42578.66895-1.00293.66895-1.73047,0-.44531-.09961-.83203-.2998-1.16016-.2002-.32715-.52539-.58105-.97852-.76172-.45215-.18066-1.06152-.27051-1.82812-.27051h-2.36914Z" style="fill:#fff; stroke-width:0px;"/><path d="m46.47825,13.31818c1.18304,0,2.01489.6098,2.18127,1.79285h2.1073c-.20331-2.3476-2.08881-3.4566-4.30695-3.4566-3.14258,0-4.71381,2.25507-4.71381,5.13885,0,2.80981,1.64526,4.9353,4.63977,4.9353,2.4585,0,3.9928-1.34918,4.38098-3.84479h-2.1073c-.20337,1.3866-1.03516,2.18146-2.27368,2.18146-1.82996,0-2.53241-1.68225-2.53241-3.27197,0-2.88379,1.5343-3.4751,2.62482-3.4751Zm-10.3902-1.66376c-2.8468,0-4.6214,2.3291-4.6214,5.04633,0,2.95782,1.66376,5.02783,4.67682,5.02783,2.07031,0,3.8819-1.16455,4.32544-3.25305h-1.9964c-.36969,1.05353-1.09064,1.58972-2.32904,1.58972-1.7561,0-2.56946-1.33105-2.56946-2.82825h7.02435c.35114-2.8653-1.49731-5.58258-4.51031-5.58258Zm-2.51404,4.19592c.05554-1.42316,1.05359-2.53217,2.51404-2.53217,1.44177,0,2.31055,1.20154,2.40295,2.53217h-4.91699Zm58.59039-2.53217c-1.97791,0-2.68036,1.77435-2.68036,3.4751,0,1.64526.81335,3.27197,2.64331,3.27197,1.867,0,2.68036-1.71924,2.68036-3.383,0-2.12549-1.01672-3.36407-2.64331-3.36407Zm-35.29584-1.66376c-3.05005,0-4.82458,2.12549-4.82458,5.02783,0,2.93933,1.77454,5.04633,4.82458,5.04633s4.82458-2.10699,4.82458-5.04633c0-2.90234-1.77454-5.02783-4.82458-5.02783Zm0,8.41083c-1.8855,0-2.71722-1.71924-2.71722-3.383,0-1.64526.83173-3.36407,2.71722-3.36407s2.71735,1.71881,2.71735,3.36407c0,1.66376-.83185,3.383-2.71735,3.383Zm9.73993-16.62036v23.11017h55.46442V3.44489h-55.46442Zm8.08502,18.02502h-2.31055v-13.19849h2.31055v13.19849Zm10.92566,0h-2.10736v-6.00775c-.05536-1.49719-.60999-2.14398-1.86694-2.14398-1.40491,0-2.31067,1.10901-2.31067,2.51367v5.63806h-2.10724v-9.55682h1.99628v1.40509l.03705.03699c.64703-1.05389,1.71912-1.70074,2.97607-1.70074,2.08887,0,3.38281,1.09052,3.38281,3.25348v6.56201Zm11.22186,0h-1.99628v-1.29407h-.03705c-.573,1.10901-1.75604,1.55273-2.95758,1.55273-3.013,0-4.47345-2.23657-4.47345-5.10187,0-3.4751,2.05194-4.97229,4.14069-4.97229,1.18304,0,2.53253.44373,3.17944,1.49719h.03699v-4.88019h2.10724v13.19849Zm10.96344-4.23291h-7.02435c0,1.49719.81342,2.82825,2.56946,2.82825,1.23846,0,1.95941-.53619,2.32904-1.58972h1.99646c-.4436,2.0885-2.25519,3.25305-4.3255,3.25305-3.013,0-4.67676-2.07001-4.67676-5.02783,0-2.71722,1.77454-5.04633,4.62134-5.04633,3.013,0,4.86151,2.71729,4.51031,5.58258Zm7.82092,4.23291l-2.42163-3.53058-2.3476,3.53058h-2.47699l3.60468-5.02777-3.3089-4.52905h2.5509l1.9964,2.93933,2.08887-2.93933h2.44l-3.25336,4.41797,3.66003,5.13885h-2.53241Zm-12.33124-8.15173c-1.46039,0-2.45862,1.10901-2.51404,2.53217h4.91705c-.09247-1.33063-.96124-2.53217-2.40302-2.53217Zm-86.46802-2.17078c-.4364.18835-.63812.69452-.44983,1.1308.02185.05292,2.27075,5.39227,2.27075,14.3609,0,.47583.38586.8609.8609.8609.47498,0,.86084-.38507.86084-.8609,0-9.35535-2.3136-14.81488-2.41199-15.04272-.18829-.43542-.69269-.63806-1.13068-.44897Zm-1.49896-8.09174l-.79199-.55566-.45984.85162c-.57593,1.06683-5.60077,10.54407-4.60455,14.51385.68604,2.73145,2.95251,4.90887,5.91852,5.68317.07233.01849.14551.02771.21698.02771.3833,0,.73138-.25635.83307-.64307.12024-.46075-.15552-.93073-.61627-1.0509-2.35559-.61456-4.14966-2.31445-4.68262-4.43555-.64233-2.56165,2.3371-9.17035,3.995-12.41046,3.0282,2.21606,8.88959,6.94,9.53186,9.51593.57672,2.30267-.41699,4.74658-2.53137,6.22955-.38922.2724-.4834.80963-.211,1.19885.27411.38928.81042.48425,1.19971.21021,2.70282-1.89496,3.96393-5.05688,3.21228-8.05566-.98529-3.95709-9.98669-10.36249-11.00977-11.07959Z" style="fill:#fff; stroke-width:0px;"/></svg>