<?xml version="1.0" encoding="UTF-8"?><svg id="uuid-d1883cc4-df24-4bb7-8fa2-f1532f3151f9" xmlns="http://www.w3.org/2000/svg" width="350" height="110" viewBox="0 0 350 110"><rect x="45.47832" y="78.83451" width="64.05642" height="26.69017" style="fill:#fff; stroke-width:0px;"/><path d="M52.1473,84.40869h2.6685v15.24311h-2.6685v-15.24311Z" style="fill:#96a596; stroke-width:0px;"/><path d="M57.74168,88.61447h2.30555v1.62278l.04275.04275c.74727-1.21722,1.98547-1.96423,3.43714-1.96423,2.41241,0,3.90683,1.25944,3.90683,3.75748v7.57855h-2.43378v-6.9384c-.06399-1.72913-.70453-2.47614-2.1562-2.47614-1.62252,0-2.66863,1.28082-2.66863,2.90308v6.51146h-2.43365v-11.03733Z" style="fill:#96a596; stroke-width:0px;"/><path d="M80.39418,99.6518h-2.30555v-1.49455h-.04275c-.66178,1.28082-2.02809,1.79325-3.41577,1.79325-3.47976,0-5.1664-2.583-5.1664-5.89217,0-4.01343,2.3698-5.74256,4.78208-5.74256,1.36631,0,2.92484.51243,3.67198,1.72913h.04275v-5.63621h2.43365v15.24311ZM74.95033,98.02954c2.1562,0,3.09556-1.9856,3.09556-3.90709,0-2.45477-1.17421-3.88519-3.05282-3.88519-2.2843,0-3.09556,2.0492-3.09556,4.01343,0,1.90011.93937,3.77885,3.05282,3.77885Z" style="fill:#96a596; stroke-width:0px;"/><path d="M84.9435,94.76312c0,1.72913.93937,3.26642,2.96746,3.26642,1.4303,0,2.26293-.6193,2.68987-1.83599h2.30568c-.5123,2.41202-2.60451,3.75695-4.99555,3.75695-3.47976,0-5.40124-2.39065-5.40124-5.80668,0-3.13818,2.04946-5.82805,5.33725-5.82805,3.47976,0,5.61458,3.13818,5.20901,6.44735h-8.11248ZM90.6222,93.16171c-.10673-1.53677-1.11009-2.92445-2.77523-2.92445-1.68664,0-2.83948,1.28082-2.90347,2.92445h5.6787Z" style="fill:#96a596; stroke-width:0px;"/><path d="M97.88276,93.84512l-3.82146-5.23065h2.94608l2.30568,3.39466,2.41241-3.39466h2.81798l-3.75735,5.10241,4.22703,5.93491h-2.92471l-2.79673-4.07755-2.71124,4.07755h-2.86072l4.16304-5.80668Z" style="fill:#96a596; stroke-width:0px;"/><path d="M7.32645,94.76312c0,1.72913.93937,3.26642,2.96746,3.26642,1.4303,0,2.26293-.6193,2.68987-1.83599h2.30568c-.5123,2.41202-2.60451,3.75695-4.99555,3.75695-3.47976,0-5.40124-2.39065-5.40124-5.80668,0-3.13818,2.04946-5.82805,5.33725-5.82805,3.47976,0,5.61458,3.13818,5.20901,6.44735H7.32645ZM13.00515,93.16171c-.10673-1.53677-1.11009-2.92445-2.77523-2.92445-1.68664,0-2.83935,1.28082-2.90347,2.92445h5.6787Z" style="fill:#fff; stroke-width:0px;"/><path d="M24.74882,92.30783c-.1921-1.36631-1.15284-2.07057-2.51915-2.07057-1.25944,0-3.03145.68289-3.03145,4.01343,0,1.83599.81126,3.77885,2.92471,3.77885,1.43043,0,2.39104-.918,2.62588-2.51941h2.43378c-.44831,2.88223-2.22031,4.44037-5.05966,4.44037-3.45838,0-5.3585-2.45477-5.3585-5.69981,0-3.33054,1.81462-5.93491,5.44399-5.93491,2.56176,0,4.73933,1.28082,4.97417,3.99206h-2.43378Z" style="fill:#fff; stroke-width:0px;"/><path d="M28.6576,94.12245c0-3.35191,2.04946-5.80668,5.57196-5.80668s5.57196,2.45477,5.57196,5.80668c0,3.39466-2.04946,5.82805-5.57196,5.82805s-5.57196-2.43339-5.57196-5.82805ZM37.36788,94.12245c0-1.90011-.96074-3.88519-3.13831-3.88519s-3.13818,1.98508-3.13818,3.88519c0,1.92148.96061,3.90709,3.13818,3.90709s3.13831-1.9856,3.13831-3.90709Z" style="fill:#fff; stroke-width:0px;"/><path d="M53.1988,4.47532h87.37591c2.75958,0,5,2.24042,5,5v56.07057H48.1988V9.47532c0-2.75958,2.24042-5,5-5Z" style="fill:#34bc6e; stroke-width:0px;"/><path d="M10.29227,38.94154h37.90653v26.60435H10.29227c-1.10383,0-2-.89617-2-2v-22.60435c0-1.10383.89617-2,2-2Z" style="fill:#2e9b43; stroke-width:0px;"/><rect x="145.57471" y="38.94154" width="39.90653" height="26.60435" style="fill:#cadd00; stroke-width:0px;"/><rect x="185.48124" y="38.94154" width="39.90653" height="26.60435" style="fill:#f7ed00; stroke-width:0px;"/><rect x="225.38776" y="38.94154" width="39.90653" height="26.60435" style="fill:#ffce00; stroke-width:0px;"/><rect x="265.29429" y="38.94154" width="39.90653" height="26.60435" style="fill:#fb9929; stroke-width:0px;"/><path d="M305.20081,38.94154h37.90653c1.10383,0,2,.89617,2,2v22.60435c0,1.10383-.89617,2-2,2h-37.90653v-26.60435h0Z" style="fill:#f01c16; stroke-width:0px;"/><path d="M84.33793,18.15968h11.30176c4.90137,0,8.59961.71094,11.09375,2.13086,2.49414,1.4209,3.74121,3.87109,3.74121,7.35254,0,1.45508-.25586,2.7666-.7666,3.93652-.51074,1.16895-1.25098,2.12988-2.2207,2.88379-.9707.75293-2.16602,1.25977-3.58594,1.51953v.25977c1.47168.25977,2.78418.71875,3.93652,1.37695,1.15137.6582,2.06055,1.60254,2.72754,2.83203.66699,1.23047,1,2.82324,1,4.78027,0,2.32129-.5498,4.2959-1.64941,5.92383-1.10059,1.62793-2.66797,2.86719-4.70215,3.71484-2.03613.84961-4.44727,1.27344-7.23633,1.27344h-13.63965V18.15968ZM90.57329,33.82668h5.97559c2.82324,0,4.78027-.45898,5.87207-1.37695,1.09082-.91797,1.63672-2.26074,1.63672-4.02734,0-1.80078-.64551-3.09961-1.93555-3.89648-1.29102-.79688-3.33887-1.19531-6.14453-1.19531h-5.4043v10.49609ZM90.57329,38.86672v12.05566h6.57324c2.91016,0,4.95312-.56348,6.13184-1.68945,1.17773-1.125,1.7666-2.64941,1.7666-4.57227,0-1.17773-.26465-2.19922-.79297-3.06543s-1.38965-1.53711-2.58496-2.01367-2.80566-.71484-4.83203-.71484h-6.26172Z" style="fill:#fff; stroke-width:0px;"/></svg>