<?xml version="1.0" encoding="UTF-8"?><svg id="uuid-1b23a23c-6497-4d7c-b457-e4d6bc6969b3" xmlns="http://www.w3.org/2000/svg" width="2000" height="1300" xmlns:xlink="http://www.w3.org/1999/xlink" viewBox="0 0 2000 1300"><defs><style>.uuid-cf5b8cdf-4867-4327-8e8d-886e252608e5,.uuid-e33b4fc1-9ffa-4dde-af32-283b470a36a3,.uuid-8ea46e3b-9da1-443f-86c9-f43eb08beda6{fill:none;}.uuid-e33b4fc1-9ffa-4dde-af32-283b470a36a3{clip-path:url(#uuid-c62a82f9-f446-42bc-bce8-3c2c8f00395a);}.uuid-8ea46e3b-9da1-443f-86c9-f43eb08beda6{stroke:#b0bbb0;stroke-miterlimit:10;stroke-width:.48841px;}</style><clipPath id="uuid-c62a82f9-f446-42bc-bce8-3c2c8f00395a"><rect class="uuid-cf5b8cdf-4867-4327-8e8d-886e252608e5" y="0" width="2000" height="1300"/></clipPath></defs><g class="uuid-e33b4fc1-9ffa-4dde-af32-283b470a36a3"><line class="uuid-8ea46e3b-9da1-443f-86c9-f43eb08beda6" x1="1000.68932" y1="2961.52048" x2="3418.18932" y2="544.02048"/><line class="uuid-8ea46e3b-9da1-443f-86c9-f43eb08beda6" x1="966.15361" y1="2926.98477" x2="3383.65361" y2="509.48477"/><line class="uuid-8ea46e3b-9da1-443f-86c9-f43eb08beda6" x1="931.61789" y1="2892.44905" x2="3349.11789" y2="474.94905"/><line class="uuid-8ea46e3b-9da1-443f-86c9-f43eb08beda6" x1="897.08218" y1="2857.91334" x2="3314.58218" y2="440.41334"/><line class="uuid-8ea46e3b-9da1-443f-86c9-f43eb08beda6" x1="862.54646" y1="2823.37762" x2="3280.04646" y2="405.87762"/><line class="uuid-8ea46e3b-9da1-443f-86c9-f43eb08beda6" x1="828.01075" y1="2788.84191" x2="3245.51075" y2="371.34191"/><line class="uuid-8ea46e3b-9da1-443f-86c9-f43eb08beda6" x1="793.47503" y1="2754.3062" x2="3210.97503" y2="336.8062"/><line class="uuid-8ea46e3b-9da1-443f-86c9-f43eb08beda6" x1="758.93932" y1="2719.77048" x2="3176.43932" y2="302.27048"/><line class="uuid-8ea46e3b-9da1-443f-86c9-f43eb08beda6" x1="724.40361" y1="2685.23477" x2="3141.90361" y2="267.73477"/><line class="uuid-8ea46e3b-9da1-443f-86c9-f43eb08beda6" x1="689.86789" y1="2650.69905" x2="3107.36789" y2="233.19905"/><line class="uuid-8ea46e3b-9da1-443f-86c9-f43eb08beda6" x1="655.33218" y1="2616.16334" x2="3072.83218" y2="198.66334"/><line class="uuid-8ea46e3b-9da1-443f-86c9-f43eb08beda6" x1="620.79646" y1="2581.62762" x2="3038.29646" y2="164.12762"/><line class="uuid-8ea46e3b-9da1-443f-86c9-f43eb08beda6" x1="586.26075" y1="2547.09191" x2="3003.76075" y2="129.59191"/><line class="uuid-8ea46e3b-9da1-443f-86c9-f43eb08beda6" x1="551.72503" y1="2512.5562" x2="2969.22503" y2="95.0562"/><line class="uuid-8ea46e3b-9da1-443f-86c9-f43eb08beda6" x1="517.18932" y1="2478.02048" x2="2934.68932" y2="60.52048"/><line class="uuid-8ea46e3b-9da1-443f-86c9-f43eb08beda6" x1="482.65361" y1="2443.48477" x2="2900.15361" y2="25.98477"/><line class="uuid-8ea46e3b-9da1-443f-86c9-f43eb08beda6" x1="448.11789" y1="2408.94905" x2="2865.61789" y2="-8.55095"/><line class="uuid-8ea46e3b-9da1-443f-86c9-f43eb08beda6" x1="413.58218" y1="2374.41334" x2="2831.08218" y2="-43.08666"/><line class="uuid-8ea46e3b-9da1-443f-86c9-f43eb08beda6" x1="379.04646" y1="2339.87762" x2="2796.54646" y2="-77.62238"/><line class="uuid-8ea46e3b-9da1-443f-86c9-f43eb08beda6" x1="344.51075" y1="2305.34191" x2="2762.01075" y2="-112.15809"/><line class="uuid-8ea46e3b-9da1-443f-86c9-f43eb08beda6" x1="309.97503" y1="2270.8062" x2="2727.47503" y2="-146.6938"/><line class="uuid-8ea46e3b-9da1-443f-86c9-f43eb08beda6" x1="275.43932" y1="2236.27048" x2="2692.93932" y2="-181.22952"/><line class="uuid-8ea46e3b-9da1-443f-86c9-f43eb08beda6" x1="240.90361" y1="2201.73477" x2="2658.40361" y2="-215.76523"/><line class="uuid-8ea46e3b-9da1-443f-86c9-f43eb08beda6" x1="206.36789" y1="2167.19905" x2="2623.86789" y2="-250.30095"/><line class="uuid-8ea46e3b-9da1-443f-86c9-f43eb08beda6" x1="171.83218" y1="2132.66334" x2="2589.33218" y2="-284.83666"/><line class="uuid-8ea46e3b-9da1-443f-86c9-f43eb08beda6" x1="137.29646" y1="2098.12762" x2="2554.79646" y2="-319.37238"/><line class="uuid-8ea46e3b-9da1-443f-86c9-f43eb08beda6" x1="102.76075" y1="2063.59191" x2="2520.26075" y2="-353.90809"/><line class="uuid-8ea46e3b-9da1-443f-86c9-f43eb08beda6" x1="68.22503" y1="2029.0562" x2="2485.72503" y2="-388.4438"/><line class="uuid-8ea46e3b-9da1-443f-86c9-f43eb08beda6" x1="33.68932" y1="1994.52048" x2="2451.18932" y2="-422.97952"/><line class="uuid-8ea46e3b-9da1-443f-86c9-f43eb08beda6" x1="-.84639" y1="1959.98477" x2="2416.65361" y2="-457.51523"/><line class="uuid-8ea46e3b-9da1-443f-86c9-f43eb08beda6" x1="-35.38211" y1="1925.44905" x2="2382.11789" y2="-492.05095"/><line class="uuid-8ea46e3b-9da1-443f-86c9-f43eb08beda6" x1="-69.91782" y1="1890.91334" x2="2347.58218" y2="-526.58666"/><line class="uuid-8ea46e3b-9da1-443f-86c9-f43eb08beda6" x1="-104.45354" y1="1856.37762" x2="2313.04646" y2="-561.12238"/><line class="uuid-8ea46e3b-9da1-443f-86c9-f43eb08beda6" x1="-138.98925" y1="1821.84191" x2="2278.51075" y2="-595.65809"/><line class="uuid-8ea46e3b-9da1-443f-86c9-f43eb08beda6" x1="-173.52497" y1="1787.3062" x2="2243.97503" y2="-630.1938"/><line class="uuid-8ea46e3b-9da1-443f-86c9-f43eb08beda6" x1="-208.06068" y1="1752.77048" x2="2209.43932" y2="-664.72952"/><line class="uuid-8ea46e3b-9da1-443f-86c9-f43eb08beda6" x1="-242.59639" y1="1718.23477" x2="2174.90361" y2="-699.26523"/><line class="uuid-8ea46e3b-9da1-443f-86c9-f43eb08beda6" x1="-277.13211" y1="1683.69905" x2="2140.36789" y2="-733.80095"/><line class="uuid-8ea46e3b-9da1-443f-86c9-f43eb08beda6" x1="-311.66782" y1="1649.16334" x2="2105.83218" y2="-768.33666"/><line class="uuid-8ea46e3b-9da1-443f-86c9-f43eb08beda6" x1="-346.20354" y1="1614.62762" x2="2071.29646" y2="-802.87238"/><line class="uuid-8ea46e3b-9da1-443f-86c9-f43eb08beda6" x1="-380.73925" y1="1580.09191" x2="2036.76075" y2="-837.40809"/><line class="uuid-8ea46e3b-9da1-443f-86c9-f43eb08beda6" x1="-415.27497" y1="1545.5562" x2="2002.22503" y2="-871.9438"/><line class="uuid-8ea46e3b-9da1-443f-86c9-f43eb08beda6" x1="-449.81068" y1="1511.02048" x2="1967.68932" y2="-906.47952"/><line class="uuid-8ea46e3b-9da1-443f-86c9-f43eb08beda6" x1="-484.34639" y1="1476.48477" x2="1933.15361" y2="-941.01523"/><line class="uuid-8ea46e3b-9da1-443f-86c9-f43eb08beda6" x1="-518.88211" y1="1441.94905" x2="1898.61789" y2="-975.55095"/><line class="uuid-8ea46e3b-9da1-443f-86c9-f43eb08beda6" x1="-553.41782" y1="1407.41334" x2="1864.08218" y2="-1010.08666"/><line class="uuid-8ea46e3b-9da1-443f-86c9-f43eb08beda6" x1="-587.95354" y1="1372.87762" x2="1829.54646" y2="-1044.62238"/><line class="uuid-8ea46e3b-9da1-443f-86c9-f43eb08beda6" x1="-622.48925" y1="1338.34191" x2="1795.01075" y2="-1079.15809"/><line class="uuid-8ea46e3b-9da1-443f-86c9-f43eb08beda6" x1="-657.02497" y1="1303.8062" x2="1760.47503" y2="-1113.6938"/><line class="uuid-8ea46e3b-9da1-443f-86c9-f43eb08beda6" x1="-691.56068" y1="1269.27048" x2="1725.93932" y2="-1148.22952"/><line class="uuid-8ea46e3b-9da1-443f-86c9-f43eb08beda6" x1="-726.09639" y1="1234.73477" x2="1691.40361" y2="-1182.76523"/><line class="uuid-8ea46e3b-9da1-443f-86c9-f43eb08beda6" x1="-760.63211" y1="1200.19905" x2="1656.86789" y2="-1217.30095"/><line class="uuid-8ea46e3b-9da1-443f-86c9-f43eb08beda6" x1="-795.16782" y1="1165.66334" x2="1622.33218" y2="-1251.83666"/><line class="uuid-8ea46e3b-9da1-443f-86c9-f43eb08beda6" x1="-829.70354" y1="1131.12762" x2="1587.79646" y2="-1286.37238"/><line class="uuid-8ea46e3b-9da1-443f-86c9-f43eb08beda6" x1="-864.23925" y1="1096.59191" x2="1553.26075" y2="-1320.90809"/><line class="uuid-8ea46e3b-9da1-443f-86c9-f43eb08beda6" x1="-898.77497" y1="1062.0562" x2="1518.72503" y2="-1355.4438"/><line class="uuid-8ea46e3b-9da1-443f-86c9-f43eb08beda6" x1="-933.31068" y1="1027.52048" x2="1484.18932" y2="-1389.97952"/><line class="uuid-8ea46e3b-9da1-443f-86c9-f43eb08beda6" x1="-967.84639" y1="992.98477" x2="1449.65361" y2="-1424.51523"/><line class="uuid-8ea46e3b-9da1-443f-86c9-f43eb08beda6" x1="-1002.38211" y1="958.44905" x2="1415.11789" y2="-1459.05095"/><line class="uuid-8ea46e3b-9da1-443f-86c9-f43eb08beda6" x1="-1036.91782" y1="923.91334" x2="1380.58218" y2="-1493.58666"/><line class="uuid-8ea46e3b-9da1-443f-86c9-f43eb08beda6" x1="-1071.45354" y1="889.37762" x2="1346.04646" y2="-1528.12238"/><line class="uuid-8ea46e3b-9da1-443f-86c9-f43eb08beda6" x1="-1105.98925" y1="854.84191" x2="1311.51075" y2="-1562.65809"/><line class="uuid-8ea46e3b-9da1-443f-86c9-f43eb08beda6" x1="-1140.52497" y1="820.3062" x2="1276.97503" y2="-1597.1938"/><line class="uuid-8ea46e3b-9da1-443f-86c9-f43eb08beda6" x1="-1175.06068" y1="785.77048" x2="1242.43932" y2="-1631.72952"/><line class="uuid-8ea46e3b-9da1-443f-86c9-f43eb08beda6" x1="-1209.59639" y1="751.23477" x2="1207.90361" y2="-1666.26523"/><line class="uuid-8ea46e3b-9da1-443f-86c9-f43eb08beda6" x1="-1244.13211" y1="716.69905" x2="1173.36789" y2="-1700.80095"/><line class="uuid-8ea46e3b-9da1-443f-86c9-f43eb08beda6" x1="-1278.66782" y1="682.16334" x2="1138.83218" y2="-1735.33666"/><line class="uuid-8ea46e3b-9da1-443f-86c9-f43eb08beda6" x1="-1313.20354" y1="647.62762" x2="1104.29646" y2="-1769.87238"/><line class="uuid-8ea46e3b-9da1-443f-86c9-f43eb08beda6" x1="-1347.73925" y1="613.09191" x2="1069.76075" y2="-1804.40809"/><line class="uuid-8ea46e3b-9da1-443f-86c9-f43eb08beda6" x1="-1382.27497" y1="578.5562" x2="1035.22503" y2="-1838.9438"/><line class="uuid-8ea46e3b-9da1-443f-86c9-f43eb08beda6" x1="-1416.81068" y1="544.02048" x2="1000.68932" y2="-1873.47952"/><line class="uuid-8ea46e3b-9da1-443f-86c9-f43eb08beda6" x1="1000.68932" y1="2961.52048" x2="-1416.81068" y2="544.02048"/><line class="uuid-8ea46e3b-9da1-443f-86c9-f43eb08beda6" x1="1035.22503" y1="2926.98477" x2="-1382.27497" y2="509.48477"/><line class="uuid-8ea46e3b-9da1-443f-86c9-f43eb08beda6" x1="1069.76075" y1="2892.44905" x2="-1347.73925" y2="474.94905"/><line class="uuid-8ea46e3b-9da1-443f-86c9-f43eb08beda6" x1="1104.29646" y1="2857.91334" x2="-1313.20354" y2="440.41334"/><line class="uuid-8ea46e3b-9da1-443f-86c9-f43eb08beda6" x1="1138.83218" y1="2823.37762" x2="-1278.66782" y2="405.87762"/><line class="uuid-8ea46e3b-9da1-443f-86c9-f43eb08beda6" x1="1173.36789" y1="2788.84191" x2="-1244.13211" y2="371.34191"/><line class="uuid-8ea46e3b-9da1-443f-86c9-f43eb08beda6" x1="1207.90361" y1="2754.3062" x2="-1209.59639" y2="336.8062"/><line class="uuid-8ea46e3b-9da1-443f-86c9-f43eb08beda6" x1="1242.43932" y1="2719.77048" x2="-1175.06068" y2="302.27048"/><line class="uuid-8ea46e3b-9da1-443f-86c9-f43eb08beda6" x1="1276.97503" y1="2685.23477" x2="-1140.52497" y2="267.73477"/><line class="uuid-8ea46e3b-9da1-443f-86c9-f43eb08beda6" x1="1311.51075" y1="2650.69905" x2="-1105.98925" y2="233.19905"/><line class="uuid-8ea46e3b-9da1-443f-86c9-f43eb08beda6" x1="1346.04646" y1="2616.16334" x2="-1071.45354" y2="198.66334"/><line class="uuid-8ea46e3b-9da1-443f-86c9-f43eb08beda6" x1="1380.58218" y1="2581.62762" x2="-1036.91782" y2="164.12762"/><line class="uuid-8ea46e3b-9da1-443f-86c9-f43eb08beda6" x1="1415.11789" y1="2547.09191" x2="-1002.38211" y2="129.59191"/><line class="uuid-8ea46e3b-9da1-443f-86c9-f43eb08beda6" x1="1449.65361" y1="2512.5562" x2="-967.84639" y2="95.0562"/><line class="uuid-8ea46e3b-9da1-443f-86c9-f43eb08beda6" x1="1484.18932" y1="2478.02048" x2="-933.31068" y2="60.52048"/><line class="uuid-8ea46e3b-9da1-443f-86c9-f43eb08beda6" x1="1518.72503" y1="2443.48477" x2="-898.77497" y2="25.98477"/><line class="uuid-8ea46e3b-9da1-443f-86c9-f43eb08beda6" x1="1553.26075" y1="2408.94905" x2="-864.23925" y2="-8.55095"/><line class="uuid-8ea46e3b-9da1-443f-86c9-f43eb08beda6" x1="1587.79646" y1="2374.41334" x2="-829.70354" y2="-43.08666"/><line class="uuid-8ea46e3b-9da1-443f-86c9-f43eb08beda6" x1="1622.33218" y1="2339.87762" x2="-795.16782" y2="-77.62238"/><line class="uuid-8ea46e3b-9da1-443f-86c9-f43eb08beda6" x1="1656.86789" y1="2305.34191" x2="-760.63211" y2="-112.15809"/><line class="uuid-8ea46e3b-9da1-443f-86c9-f43eb08beda6" x1="1691.40361" y1="2270.8062" x2="-726.09639" y2="-146.6938"/><line class="uuid-8ea46e3b-9da1-443f-86c9-f43eb08beda6" x1="1725.93932" y1="2236.27048" x2="-691.56068" y2="-181.22952"/><line class="uuid-8ea46e3b-9da1-443f-86c9-f43eb08beda6" x1="1760.47503" y1="2201.73477" x2="-657.02497" y2="-215.76523"/><line class="uuid-8ea46e3b-9da1-443f-86c9-f43eb08beda6" x1="1795.01075" y1="2167.19905" x2="-622.48925" y2="-250.30095"/><line class="uuid-8ea46e3b-9da1-443f-86c9-f43eb08beda6" x1="1829.54646" y1="2132.66334" x2="-587.95354" y2="-284.83666"/><line class="uuid-8ea46e3b-9da1-443f-86c9-f43eb08beda6" x1="1864.08218" y1="2098.12762" x2="-553.41782" y2="-319.37238"/><line class="uuid-8ea46e3b-9da1-443f-86c9-f43eb08beda6" x1="1898.61789" y1="2063.59191" x2="-518.88211" y2="-353.90809"/><line class="uuid-8ea46e3b-9da1-443f-86c9-f43eb08beda6" x1="1933.15361" y1="2029.0562" x2="-484.34639" y2="-388.4438"/><line class="uuid-8ea46e3b-9da1-443f-86c9-f43eb08beda6" x1="1967.68932" y1="1994.52048" x2="-449.81068" y2="-422.97952"/><line class="uuid-8ea46e3b-9da1-443f-86c9-f43eb08beda6" x1="2002.22503" y1="1959.98477" x2="-415.27497" y2="-457.51523"/><line class="uuid-8ea46e3b-9da1-443f-86c9-f43eb08beda6" x1="2036.76075" y1="1925.44905" x2="-380.73925" y2="-492.05095"/><line class="uuid-8ea46e3b-9da1-443f-86c9-f43eb08beda6" x1="2071.29646" y1="1890.91334" x2="-346.20354" y2="-526.58666"/><line class="uuid-8ea46e3b-9da1-443f-86c9-f43eb08beda6" x1="2105.83218" y1="1856.37762" x2="-311.66782" y2="-561.12238"/><line class="uuid-8ea46e3b-9da1-443f-86c9-f43eb08beda6" x1="2140.36789" y1="1821.84191" x2="-277.13211" y2="-595.65809"/><line class="uuid-8ea46e3b-9da1-443f-86c9-f43eb08beda6" x1="2174.90361" y1="1787.3062" x2="-242.59639" y2="-630.1938"/><line class="uuid-8ea46e3b-9da1-443f-86c9-f43eb08beda6" x1="2209.43932" y1="1752.77048" x2="-208.06068" y2="-664.72952"/><line class="uuid-8ea46e3b-9da1-443f-86c9-f43eb08beda6" x1="2243.97503" y1="1718.23477" x2="-173.52497" y2="-699.26523"/><line class="uuid-8ea46e3b-9da1-443f-86c9-f43eb08beda6" x1="2278.51075" y1="1683.69905" x2="-138.98925" y2="-733.80095"/><line class="uuid-8ea46e3b-9da1-443f-86c9-f43eb08beda6" x1="2313.04646" y1="1649.16334" x2="-104.45354" y2="-768.33666"/><line class="uuid-8ea46e3b-9da1-443f-86c9-f43eb08beda6" x1="2347.58218" y1="1614.62762" x2="-69.91782" y2="-802.87238"/><line class="uuid-8ea46e3b-9da1-443f-86c9-f43eb08beda6" x1="2382.11789" y1="1580.09191" x2="-35.38211" y2="-837.40809"/><line class="uuid-8ea46e3b-9da1-443f-86c9-f43eb08beda6" x1="2416.65361" y1="1545.5562" x2="-.84639" y2="-871.9438"/><line class="uuid-8ea46e3b-9da1-443f-86c9-f43eb08beda6" x1="2451.18932" y1="1511.02048" x2="33.68932" y2="-906.47952"/><line class="uuid-8ea46e3b-9da1-443f-86c9-f43eb08beda6" x1="2485.72503" y1="1476.48477" x2="68.22503" y2="-941.01523"/><line class="uuid-8ea46e3b-9da1-443f-86c9-f43eb08beda6" x1="2520.26075" y1="1441.94905" x2="102.76075" y2="-975.55095"/><line class="uuid-8ea46e3b-9da1-443f-86c9-f43eb08beda6" x1="2554.79646" y1="1407.41334" x2="137.29646" y2="-1010.08666"/><line class="uuid-8ea46e3b-9da1-443f-86c9-f43eb08beda6" x1="2589.33218" y1="1372.87762" x2="171.83218" y2="-1044.62238"/><line class="uuid-8ea46e3b-9da1-443f-86c9-f43eb08beda6" x1="2623.86789" y1="1338.34191" x2="206.36789" y2="-1079.15809"/><line class="uuid-8ea46e3b-9da1-443f-86c9-f43eb08beda6" x1="2658.40361" y1="1303.8062" x2="240.90361" y2="-1113.6938"/><line class="uuid-8ea46e3b-9da1-443f-86c9-f43eb08beda6" x1="2692.93932" y1="1269.27048" x2="275.43932" y2="-1148.22952"/><line class="uuid-8ea46e3b-9da1-443f-86c9-f43eb08beda6" x1="2727.47503" y1="1234.73477" x2="309.97503" y2="-1182.76523"/><line class="uuid-8ea46e3b-9da1-443f-86c9-f43eb08beda6" x1="2762.01075" y1="1200.19905" x2="344.51075" y2="-1217.30095"/><line class="uuid-8ea46e3b-9da1-443f-86c9-f43eb08beda6" x1="2796.54646" y1="1165.66334" x2="379.04646" y2="-1251.83666"/><line class="uuid-8ea46e3b-9da1-443f-86c9-f43eb08beda6" x1="2831.08218" y1="1131.12762" x2="413.58218" y2="-1286.37238"/><line class="uuid-8ea46e3b-9da1-443f-86c9-f43eb08beda6" x1="2865.61789" y1="1096.59191" x2="448.11789" y2="-1320.90809"/><line class="uuid-8ea46e3b-9da1-443f-86c9-f43eb08beda6" x1="2900.15361" y1="1062.0562" x2="482.65361" y2="-1355.4438"/><line class="uuid-8ea46e3b-9da1-443f-86c9-f43eb08beda6" x1="2934.68932" y1="1027.52048" x2="517.18932" y2="-1389.97952"/><line class="uuid-8ea46e3b-9da1-443f-86c9-f43eb08beda6" x1="2969.22503" y1="992.98477" x2="551.72503" y2="-1424.51523"/><line class="uuid-8ea46e3b-9da1-443f-86c9-f43eb08beda6" x1="3003.76075" y1="958.44905" x2="586.26075" y2="-1459.05095"/><line class="uuid-8ea46e3b-9da1-443f-86c9-f43eb08beda6" x1="3038.29646" y1="923.91334" x2="620.79646" y2="-1493.58666"/><line class="uuid-8ea46e3b-9da1-443f-86c9-f43eb08beda6" x1="3072.83218" y1="889.37762" x2="655.33218" y2="-1528.12238"/><line class="uuid-8ea46e3b-9da1-443f-86c9-f43eb08beda6" x1="3107.36789" y1="854.84191" x2="689.86789" y2="-1562.65809"/><line class="uuid-8ea46e3b-9da1-443f-86c9-f43eb08beda6" x1="3141.90361" y1="820.3062" x2="724.40361" y2="-1597.1938"/><line class="uuid-8ea46e3b-9da1-443f-86c9-f43eb08beda6" x1="3176.43932" y1="785.77048" x2="758.93932" y2="-1631.72952"/><line class="uuid-8ea46e3b-9da1-443f-86c9-f43eb08beda6" x1="3210.97503" y1="751.23477" x2="793.47503" y2="-1666.26523"/><line class="uuid-8ea46e3b-9da1-443f-86c9-f43eb08beda6" x1="3245.51075" y1="716.69905" x2="828.01075" y2="-1700.80095"/><line class="uuid-8ea46e3b-9da1-443f-86c9-f43eb08beda6" x1="3280.04646" y1="682.16334" x2="862.54646" y2="-1735.33666"/><line class="uuid-8ea46e3b-9da1-443f-86c9-f43eb08beda6" x1="3314.58218" y1="647.62762" x2="897.08218" y2="-1769.87238"/><line class="uuid-8ea46e3b-9da1-443f-86c9-f43eb08beda6" x1="3349.11789" y1="613.09191" x2="931.61789" y2="-1804.40809"/><line class="uuid-8ea46e3b-9da1-443f-86c9-f43eb08beda6" x1="3383.65361" y1="578.5562" x2="966.15361" y2="-1838.9438"/><line class="uuid-8ea46e3b-9da1-443f-86c9-f43eb08beda6" x1="3418.18932" y1="544.02048" x2="1000.68932" y2="-1873.47952"/><line class="uuid-8ea46e3b-9da1-443f-86c9-f43eb08beda6" x1="1000.68932" y1="-2043.79477" x2="1000.68932" y2="3103.36224"/><line class="uuid-8ea46e3b-9da1-443f-86c9-f43eb08beda6" x1="33.70287" y1="-2043.79477" x2="33.70287" y2="3103.36224"/><line class="uuid-8ea46e3b-9da1-443f-86c9-f43eb08beda6" x1="68.26225" y1="-2043.79477" x2="68.26225" y2="3103.36224"/><line class="uuid-8ea46e3b-9da1-443f-86c9-f43eb08beda6" x1="102.79535" y1="-2043.79477" x2="102.79535" y2="3103.36224"/><line class="uuid-8ea46e3b-9da1-443f-86c9-f43eb08beda6" x1="137.32845" y1="-2043.79477" x2="137.32845" y2="3103.36224"/><line class="uuid-8ea46e3b-9da1-443f-86c9-f43eb08beda6" x1="171.83527" y1="-2043.79477" x2="171.83527" y2="3103.36224"/><line class="uuid-8ea46e3b-9da1-443f-86c9-f43eb08beda6" x1="206.39465" y1="-2043.79477" x2="206.39465" y2="3103.36224"/><line class="uuid-8ea46e3b-9da1-443f-86c9-f43eb08beda6" x1="240.92776" y1="-2043.79477" x2="240.92776" y2="3103.36224"/><line class="uuid-8ea46e3b-9da1-443f-86c9-f43eb08beda6" x1="275.48714" y1="-2043.79477" x2="275.48714" y2="3103.36224"/><line class="uuid-8ea46e3b-9da1-443f-86c9-f43eb08beda6" x1="309.99396" y1="-2043.79477" x2="309.99396" y2="3103.36224"/><line class="uuid-8ea46e3b-9da1-443f-86c9-f43eb08beda6" x1="344.55334" y1="-2043.79477" x2="344.55334" y2="3103.36224"/><line class="uuid-8ea46e3b-9da1-443f-86c9-f43eb08beda6" x1="379.08644" y1="-2043.79477" x2="379.08644" y2="3103.36224"/><line class="uuid-8ea46e3b-9da1-443f-86c9-f43eb08beda6" x1="413.61954" y1="-2043.79477" x2="413.61954" y2="3103.36224"/><line class="uuid-8ea46e3b-9da1-443f-86c9-f43eb08beda6" x1="448.15264" y1="-2043.79477" x2="448.15264" y2="3103.36224"/><line class="uuid-8ea46e3b-9da1-443f-86c9-f43eb08beda6" x1="482.68574" y1="-2043.79477" x2="482.68574" y2="3103.36224"/><line class="uuid-8ea46e3b-9da1-443f-86c9-f43eb08beda6" x1="517.21884" y1="-2043.79477" x2="517.21884" y2="3103.36224"/><line class="uuid-8ea46e3b-9da1-443f-86c9-f43eb08beda6" x1="551.77822" y1="-2043.79477" x2="551.77822" y2="3103.36224"/><line class="uuid-8ea46e3b-9da1-443f-86c9-f43eb08beda6" x1="586.31132" y1="-2043.79477" x2="586.31132" y2="3103.36224"/><line class="uuid-8ea46e3b-9da1-443f-86c9-f43eb08beda6" x1="620.81814" y1="-2043.79477" x2="620.81814" y2="3103.36224"/><line class="uuid-8ea46e3b-9da1-443f-86c9-f43eb08beda6" x1="655.41274" y1="-2043.79477" x2="655.41274" y2="3103.36224"/><line class="uuid-8ea46e3b-9da1-443f-86c9-f43eb08beda6" x1="690.00734" y1="-2043.79477" x2="690.00734" y2="3103.36224"/><line class="uuid-8ea46e3b-9da1-443f-86c9-f43eb08beda6" x1="724.60194" y1="-2043.79477" x2="724.60194" y2="3103.36224"/><line class="uuid-8ea46e3b-9da1-443f-86c9-f43eb08beda6" x1="759.03412" y1="-2043.79477" x2="759.03412" y2="3103.36224"/><line class="uuid-8ea46e3b-9da1-443f-86c9-f43eb08beda6" x1="793.61534" y1="-2042.67124" x2="793.61534" y2="3104.48577"/><line class="uuid-8ea46e3b-9da1-443f-86c9-f43eb08beda6" x1="828.22332" y1="-2043.79477" x2="828.22332" y2="3103.36224"/><line class="uuid-8ea46e3b-9da1-443f-86c9-f43eb08beda6" x1="862.6555" y1="-2043.79477" x2="862.6555" y2="3103.36224"/><line class="uuid-8ea46e3b-9da1-443f-86c9-f43eb08beda6" x1="897.13481" y1="-2043.79477" x2="897.13481" y2="3103.36224"/><line class="uuid-8ea46e3b-9da1-443f-86c9-f43eb08beda6" x1="931.88991" y1="-2042.72282" x2="931.88991" y2="3104.43419"/><line class="uuid-8ea46e3b-9da1-443f-86c9-f43eb08beda6" x1="966.32887" y1="-2043.79477" x2="966.32887" y2="3103.36224"/><line class="uuid-8ea46e3b-9da1-443f-86c9-f43eb08beda6" x1="1035.13834" y1="-2043.79477" x2="1035.13834" y2="3103.36224"/><line class="uuid-8ea46e3b-9da1-443f-86c9-f43eb08beda6" x1="1069.69408" y1="-2043.79477" x2="1069.69408" y2="3103.36224"/><line class="uuid-8ea46e3b-9da1-443f-86c9-f43eb08beda6" x1="1104.24983" y1="-2043.79477" x2="1104.24983" y2="3103.36224"/><line class="uuid-8ea46e3b-9da1-443f-86c9-f43eb08beda6" x1="1138.80557" y1="-2043.79477" x2="1138.80557" y2="3103.36224"/><line class="uuid-8ea46e3b-9da1-443f-86c9-f43eb08beda6" x1="1173.30869" y1="-2043.79477" x2="1173.30869" y2="3103.36224"/><line class="uuid-8ea46e3b-9da1-443f-86c9-f43eb08beda6" x1="1207.84238" y1="-2043.79477" x2="1207.84238" y2="3103.36224"/><line class="uuid-8ea46e3b-9da1-443f-86c9-f43eb08beda6" x1="1242.37608" y1="-2043.79477" x2="1242.37608" y2="3103.36224"/><line class="uuid-8ea46e3b-9da1-443f-86c9-f43eb08beda6" x1="1276.88947" y1="-2043.79477" x2="1276.88947" y2="3103.36224"/><line class="uuid-8ea46e3b-9da1-443f-86c9-f43eb08beda6" x1="1311.44346" y1="-2043.79477" x2="1311.44346" y2="3103.36224"/><line class="uuid-8ea46e3b-9da1-443f-86c9-f43eb08beda6" x1="1345.97715" y1="-2043.79477" x2="1345.97715" y2="3103.36224"/><line class="uuid-8ea46e3b-9da1-443f-86c9-f43eb08beda6" x1="1380.51084" y1="-2043.79477" x2="1380.51084" y2="3103.36224"/><line class="uuid-8ea46e3b-9da1-443f-86c9-f43eb08beda6" x1="1415.06484" y1="-2043.79477" x2="1415.06484" y2="3103.36224"/><line class="uuid-8ea46e3b-9da1-443f-86c9-f43eb08beda6" x1="1449.61883" y1="-2043.79477" x2="1449.61883" y2="3103.36224"/><line class="uuid-8ea46e3b-9da1-443f-86c9-f43eb08beda6" x1="1484.13222" y1="-2043.79477" x2="1484.13222" y2="3103.36224"/><line class="uuid-8ea46e3b-9da1-443f-86c9-f43eb08beda6" x1="1518.66592" y1="-2043.79477" x2="1518.66592" y2="3103.36224"/><line class="uuid-8ea46e3b-9da1-443f-86c9-f43eb08beda6" x1="1553.19961" y1="-2043.79477" x2="1553.19961" y2="3103.36224"/><line class="uuid-8ea46e3b-9da1-443f-86c9-f43eb08beda6" x1="1587.7605" y1="-2043.79477" x2="1587.7605" y2="3103.36224"/><line class="uuid-8ea46e3b-9da1-443f-86c9-f43eb08beda6" x1="1622.32154" y1="-2043.5303" x2="1622.32154" y2="3103.62671"/><line class="uuid-8ea46e3b-9da1-443f-86c9-f43eb08beda6" x1="1656.8267" y1="-2043.79477" x2="1656.8267" y2="3103.36224"/><line class="uuid-8ea46e3b-9da1-443f-86c9-f43eb08beda6" x1="1691.3598" y1="-2043.79477" x2="1691.3598" y2="3103.36224"/><line class="uuid-8ea46e3b-9da1-443f-86c9-f43eb08beda6" x1="1725.8929" y1="-2043.79477" x2="1725.8929" y2="3103.36224"/><line class="uuid-8ea46e3b-9da1-443f-86c9-f43eb08beda6" x1="1760.426" y1="-2043.79477" x2="1760.426" y2="3103.36224"/><line class="uuid-8ea46e3b-9da1-443f-86c9-f43eb08beda6" x1="1794.9591" y1="-2043.79477" x2="1794.9591" y2="3103.36224"/><line class="uuid-8ea46e3b-9da1-443f-86c9-f43eb08beda6" x1="1829.49221" y1="-2043.79477" x2="1829.49221" y2="3103.36224"/><line class="uuid-8ea46e3b-9da1-443f-86c9-f43eb08beda6" x1="1864.05159" y1="-2043.79477" x2="1864.05159" y2="3103.36224"/><line class="uuid-8ea46e3b-9da1-443f-86c9-f43eb08beda6" x1="1898.55841" y1="-2043.79477" x2="1898.55841" y2="3103.36224"/><line class="uuid-8ea46e3b-9da1-443f-86c9-f43eb08beda6" x1="1933.09151" y1="-2043.79477" x2="1933.09151" y2="3103.36224"/><line class="uuid-8ea46e3b-9da1-443f-86c9-f43eb08beda6" x1="1967.62461" y1="-2043.79477" x2="1967.62461" y2="3103.36224"/></g></svg>